<svg width="171" height="31" viewBox="0 0 171 31" fill="none" xmlns="http://www.w3.org/2000/svg">
<circle cx="54.0002" cy="15" r="5" fill="#10CE5D"/>
<path d="M2.91272 13.8218L3.21979 14.2164C3.47454 14.0181 3.79983 13.6666 4.14676 13.248C4.50164 12.8198 4.9038 12.2912 5.31498 11.7137L5.32677 11.6972L5.33717 11.6797C5.36695 11.6298 5.43659 11.5397 5.55356 11.4083C5.665 11.283 5.79879 11.1429 5.94036 10.996C5.96562 10.9698 5.99147 10.943 6.01771 10.9159C6.24225 10.6835 6.49504 10.4219 6.64758 10.221C8.81135 8.42042 12.8174 5.51422 14.6217 4.24572C15.5498 3.59548 16.0931 2.7398 16.4625 2.15804C16.5601 2.00432 16.6456 1.86973 16.7228 1.76311L16.7229 1.76296C17.062 1.2943 17.3068 0.970897 17.6556 0.784512L17.6566 0.783986C18.0372 0.5795 18.5253 0.567019 19.0633 0.726442C19.5983 0.884946 20.1291 1.19967 20.537 1.56185C20.666 1.67904 20.7795 1.79275 20.8782 1.90891L20.8805 1.91162C21.1116 2.17963 21.2488 2.64953 21.1521 3.41524L21.1519 3.41686C21.0632 4.13816 20.7652 5.07371 20.2875 5.99032C19.8102 6.90636 19.1719 7.76772 18.4284 8.36488L18.4281 8.36513C17.7237 8.93184 16.9922 9.55835 16.3553 10.117L15.3582 10.9917L16.6846 10.9929L16.685 10.4929L16.6847 10.9929L16.6849 10.9929L16.6859 10.9929L16.6899 10.9929L16.7058 10.9929L16.7677 10.993L17.003 10.9933C17.206 10.9936 17.4963 10.9942 17.8457 10.995C18.5446 10.9967 19.4798 10.9996 20.4251 11.0046C21.3706 11.0095 22.3251 11.0166 23.0633 11.0265C23.4326 11.0314 23.7459 11.0371 23.9761 11.0435C24.0915 11.0467 24.1835 11.05 24.2501 11.0534C24.308 11.0564 24.3293 11.0587 24.3294 11.0583L24.3609 11.0646L24.4049 11.0656L35.0558 11.3118L39.8878 11.4234L39.8878 11.4236L39.9017 11.4235C41.6615 11.4153 42.9905 12.6644 42.9972 14.0916L42.9981 14.27C43.003 15.3234 42.0254 16.2807 40.685 16.287L40.185 16.2893L40.185 16.2894L34.9124 16.3141L26.8901 16.3517L25.3749 16.3588L26.5968 17.2549C27.2817 17.7572 27.7608 18.414 27.8485 19.2831C27.9083 19.8887 27.7963 20.3845 27.5609 20.7766C27.3251 21.1693 26.9439 21.4939 26.405 21.7198L25.7848 21.9798L26.2124 22.4988C26.5601 22.921 26.92 23.6308 26.7167 24.7008C26.5652 25.4935 25.9916 26.0674 24.9627 26.3147L24.5486 26.4142L24.5811 26.839L24.5843 26.8809L24.5934 27.024L24.5997 27.1233L24.6436 27.2126C24.8992 27.7328 24.9872 28.3101 24.7468 28.9188C24.5045 29.5282 23.9678 29.8882 23.3449 30.0981C22.7229 30.3076 22.0884 30.3403 21.7919 30.3417L12.3856 30.3858L12.3829 30.3858L12.3801 30.3859L12.3772 30.3859L12.3743 30.3859L12.3714 30.3859L12.3684 30.3859L12.3653 30.3859L12.3622 30.3859L12.3591 30.386L12.3559 30.386L12.3527 30.386L12.3495 30.386L12.3461 30.386L12.3428 30.386L12.3394 30.386L12.336 30.3861L12.3325 30.3861L12.329 30.3861L12.3254 30.3861L12.3218 30.3861L12.3181 30.3861L12.3144 30.3862L12.3107 30.3862L12.3069 30.3862L12.3031 30.3862L12.2992 30.3862L12.2953 30.3862L12.2914 30.3863L12.2874 30.3863L12.2833 30.3863L12.2793 30.3863L12.2752 30.3863L12.271 30.3864L12.2668 30.3864L12.2626 30.3864L12.2583 30.3864L12.254 30.3864L12.2496 30.3865L12.2452 30.3865L12.2408 30.3865L12.2363 30.3865L12.2318 30.3865L12.2273 30.3866L12.2227 30.3866L12.218 30.3866L12.2134 30.3866L12.2087 30.3867L12.2039 30.3867L12.1991 30.3867L12.1943 30.3867L12.1895 30.3867L12.1846 30.3868L12.1796 30.3868L12.1747 30.3868L12.1696 30.3868L12.1646 30.3869L12.1595 30.3869L12.1544 30.3869L12.1492 30.3869L12.1441 30.387L12.1388 30.387L12.1336 30.387L12.1283 30.387L12.1229 30.3871L12.1176 30.3871L12.1122 30.3871L12.1067 30.3871L12.1013 30.3872L12.0957 30.3872L12.0902 30.3872L12.0846 30.3872L12.079 30.3873L12.0734 30.3873L12.0677 30.3873L12.062 30.3873L12.0562 30.3874L12.0505 30.3874L12.0447 30.3874L12.0388 30.3875L12.0329 30.3875L12.027 30.3875L12.0211 30.3875L12.0151 30.3876L12.0091 30.3876L12.0031 30.3876L11.997 30.3876L11.9909 30.3877L11.9848 30.3877L11.9786 30.3877L11.9724 30.3878L11.9662 30.3878L11.9599 30.3878L11.9536 30.3879L11.9473 30.3879L11.941 30.3879L11.9346 30.3879L11.9282 30.388L11.9218 30.388L11.9153 30.388L11.9088 30.3881L11.9023 30.3881L11.8957 30.3881L11.8891 30.3882L11.8825 30.3882L11.8759 30.3882L11.8692 30.3882L11.8625 30.3883L11.8558 30.3883L11.8491 30.3883L11.8423 30.3884L11.8355 30.3884L11.8286 30.3884L11.8218 30.3885L11.8149 30.3885L11.808 30.3885L11.801 30.3886L11.7941 30.3886L11.7871 30.3886L11.7801 30.3887L11.773 30.3887L11.766 30.3887L11.7589 30.3888L11.7517 30.3888L11.7446 30.3888L11.7374 30.3889L11.7302 30.3889L11.723 30.3889L11.7158 30.389L11.7085 30.389L11.7012 30.389L11.6939 30.3891L11.6865 30.3891L11.6792 30.3891L11.6718 30.3892L11.6644 30.3892L11.6569 30.3892L11.6495 30.3893L11.642 30.3893L11.6345 30.3893L11.627 30.3894L11.6194 30.3894L11.6119 30.3895L11.6043 30.3895L11.5967 30.3895L11.589 30.3896L11.5814 30.3896L11.5737 30.3896L11.566 30.3897L11.5583 30.3897L11.5505 30.3897L11.5428 30.3898L11.535 30.3898L11.5272 30.3899L11.5194 30.3899L11.5115 30.3899L11.5037 30.39L11.4958 30.39L11.4879 30.39L11.48 30.3901L11.472 30.3901L11.4641 30.3901L11.4561 30.3902L11.4481 30.3902L11.4401 30.3903L11.4321 30.3903L11.424 30.3903L11.416 30.3904L11.4079 30.3904L11.3998 30.3904L11.3917 30.3905L11.3835 30.3905L11.3754 30.3906L11.3672 30.3906L11.359 30.3906L11.3508 30.3907L11.3426 30.3907L11.3344 30.3908L11.3261 30.3908L11.3179 30.3908L11.3096 30.3909L11.3013 30.3909L11.293 30.3909L11.2846 30.391L11.2763 30.391L11.2679 30.3911L11.2596 30.3911L11.2512 30.3911L11.2428 30.3912L11.2344 30.3912L11.2259 30.3913L11.2175 30.3913L11.209 30.3913L11.2006 30.3914L11.1921 30.3914L11.1836 30.3915L11.1751 30.3915L11.1666 30.3915L11.1581 30.3916L11.1495 30.3916L11.141 30.3917L11.1324 30.3917L11.1238 30.3917L11.1152 30.3918L11.1066 30.3918L11.098 30.3919L11.0894 30.3919L11.0807 30.3919L11.0721 30.392L11.0634 30.392L11.0548 30.3921L11.0461 30.3921L11.0374 30.3921L11.0287 30.3922L11.02 30.3922L11.0113 30.3923L11.0026 30.3923L10.9938 30.3924L10.9851 30.3924L10.9763 30.3924L10.9676 30.3925L10.9588 30.3925L10.95 30.3926L10.9412 30.3926L10.9324 30.3926L10.9236 30.3927L10.9148 30.3927L10.906 30.3928L10.8972 30.3928L10.8883 30.3928L10.8795 30.3929L10.8706 30.3929L10.8618 30.393L10.8529 30.393L10.8441 30.3931L10.8352 30.3931L10.8263 30.3931L10.8174 30.3932L10.8085 30.3932L10.7996 30.3933L10.7907 30.3933L10.7818 30.3933L10.7729 30.3934L10.764 30.3934L10.7551 30.3935L10.7462 30.3935L10.7372 30.3936L10.7283 30.3936L10.7194 30.3936L10.7104 30.3937L10.7015 30.3937L10.6925 30.3938L10.6836 30.3938L10.6746 30.3938L10.6657 30.3939L10.6567 30.3939L10.6478 30.394L10.6388 30.394L10.6298 30.3941L10.6209 30.3941L10.6119 30.3941L10.6029 30.3942L10.594 30.3942L10.585 30.3943L10.576 30.3943L10.567 30.3944L10.5581 30.3944L10.5491 30.3944L10.5401 30.3945L10.5311 30.3945L10.5221 30.3946L10.5132 30.3946L10.5042 30.3946L10.4952 30.3947L10.4862 30.3947L10.4773 30.3948L10.4683 30.3948L10.4593 30.3949L10.4503 30.3949L10.4414 30.3949L10.4324 30.395L10.4234 30.395L10.4144 30.3951L10.4055 30.3951L10.3965 30.3952L10.3876 30.3952L10.3786 30.3952L10.3697 30.3953L10.3607 30.3953L10.3518 30.3954L10.3428 30.3954L10.3339 30.3954L10.3249 30.3955L10.316 30.3955L10.3071 30.3956L10.2981 30.3956L10.2892 30.3957L10.2803 30.3957L10.2714 30.3957L10.2625 30.3958L10.2536 30.3958L10.2447 30.3959L10.2358 30.3959L10.2269 30.3959L10.218 30.396L10.2091 30.396L10.2003 30.3961L10.1914 30.3961L10.1826 30.3962L10.1737 30.3962L10.1649 30.3962L10.156 30.3963L10.1472 30.3963L10.1384 30.3964L10.1296 30.3964L10.1208 30.3964L10.112 30.3965L10.1032 30.3965L10.0944 30.3966L10.0856 30.3966L10.0769 30.3967L10.0681 30.3967L10.0593 30.3967L10.0506 30.3968L10.0419 30.3968L10.0332 30.3969L10.0244 30.3969L10.0157 30.3969L10.007 30.397L9.99837 30.397L9.9897 30.3971L9.98103 30.3971L9.97238 30.3971L9.96374 30.3972L9.95511 30.3972L9.94649 30.3973L9.93789 30.3973L9.92929 30.3973L9.92071 30.3974L9.91214 30.3974L9.90357 30.3975L9.89502 30.3975L9.88649 30.3975L9.87796 30.3976L9.86945 30.3976L9.86095 30.3977L9.85247 30.3977L9.84399 30.3977L9.83554 30.3978L9.82709 30.3978L9.81866 30.3979L9.81024 30.3979L9.80184 30.3979L9.79344 30.398L9.78507 30.398L9.7767 30.3981L9.76836 30.3981L9.76003 30.3981L9.75171 30.3982L9.74341 30.3982L9.73512 30.3983L9.72685 30.3983L9.71859 30.3983L9.71035 30.3984L9.70213 30.3984L9.69392 30.3984L9.68572 30.3985L9.67755 30.3985L9.66939 30.3986L9.66125 30.3986L9.65313 30.3986L9.64502 30.3987L9.63693 30.3987L9.62886 30.3988L9.6208 30.3988L9.61277 30.3988L9.60475 30.3989L9.59675 30.3989L9.58876 30.3989L9.5808 30.399L9.57286 30.399L9.56493 30.3991L9.55702 30.3991L9.54914 30.3991L9.54127 30.3992L9.53342 30.3992L9.52559 30.3992L9.51778 30.3993L9.50999 30.3993L9.50222 30.3993L9.49448 30.3994L9.48675 30.3994L9.47904 30.3995L9.47136 30.3995L9.46369 30.3995L9.45605 30.3996L9.44843 30.3996L9.44083 30.3996L9.43325 30.3997L9.42569 30.3997L9.41816 30.3997L9.41065 30.3998L9.40316 30.3998L9.39569 30.3998L9.38825 30.3999L9.38083 30.3999L9.37343 30.3999L9.36606 30.4L9.35871 30.4L9.35138 30.4001L9.34408 30.4001L9.3368 30.4001L9.32954 30.4002L9.32231 30.4002L9.31511 30.4002L9.30792 30.4003L9.30077 30.4003L9.29364 30.4003L9.28654 30.4004L9.27946 30.4004L9.2724 30.4004L9.26537 30.4005L9.25837 30.4005L9.25139 30.4005L9.24444 30.4006L9.23752 30.4006L9.23062 30.4006L9.22375 30.4007L9.21691 30.4007L9.21009 30.4007L9.2033 30.4007L9.19654 30.4008L9.1898 30.4008L9.1831 30.4008L9.17642 30.4009L9.16977 30.4009L9.16315 30.4009L9.15656 30.401L9.14999 30.401L9.14346 30.401L9.13695 30.4011L9.13047 30.4011L9.12402 30.4011L9.11761 30.4011L9.11122 30.4012L9.10486 30.4012L9.09853 30.4012L9.09223 30.4013L9.08597 30.4013L9.07973 30.4013L9.07352 30.4014L9.06734 30.4014L9.0612 30.4014L9.05509 30.4014L9.04901 30.4015L9.04296 30.4015L9.03694 30.4015L9.03095 30.4016L9.02499 30.4016L9.01907 30.4016L9.01318 30.4016L9.00732 30.4017L9.0015 30.4017L8.99571 30.4017L8.98995 30.4017L8.98422 30.4018L8.97853 30.4018L8.97288 30.4018L8.96725 30.4019L8.96166 30.4019L8.95611 30.4019L8.95058 30.4019L8.9451 30.402L8.93965 30.402L8.93423 30.402L8.92885 30.402L8.9235 30.4021L8.91819 30.4021L8.91291 30.4021L8.90767 30.4021L8.90247 30.4022L8.8973 30.4022L8.89217 30.4022L8.88707 30.4022L8.88201 30.4023L8.87699 30.4023L8.872 30.4023L8.86705 30.4023L8.86214 30.4023L8.85727 30.4024L8.85243 30.4024L8.84763 30.4024L8.84287 30.4024L8.83815 30.4025L8.83347 30.4025L8.82882 30.4025L8.82422 30.4025L8.81965 30.4025L8.81512 30.4026L8.81063 30.4026L8.80618 30.4026L8.80176 30.4026L8.79739 30.4026L8.79306 30.4027L8.78877 30.4027L8.78452 30.4027L8.7803 30.4027L8.77614 30.4027L8.772 30.4028L8.76791 30.4028L8.76387 30.4028L8.75986 30.4028L8.75589 30.4028C6.17315 30.415 3.83717 29.4183 2.14363 27.801L2.14361 27.7953L1.99808 27.6499C1.24989 26.9019 0.901385 26.0166 0.740016 24.9879C0.603574 24.118 0.604403 23.181 0.605315 22.1511C0.605506 21.9364 0.605701 21.7176 0.604655 21.4946C0.593239 19.0596 1.35841 16.9682 2.14588 15.8554L2.15992 15.8356L2.17198 15.8145L2.17205 15.8143L2.17242 15.8137L2.17407 15.8108L2.18087 15.7989L2.2076 15.7526C2.23091 15.7124 2.26473 15.6543 2.30638 15.5838C2.38981 15.4424 2.50397 15.2521 2.62758 15.0546C2.75183 14.8562 2.88251 14.6557 2.99939 14.492C3.0579 14.4101 3.10978 14.3419 3.15321 14.2899C3.19499 14.2398 3.21691 14.2193 3.2206 14.2158C3.22113 14.2153 3.22128 14.2152 3.22107 14.2154L2.91272 13.8218ZM2.91272 13.8218C2.5889 14.0754 1.73774 15.5666 1.73774 15.5666M2.91272 13.8218C3.32913 13.4977 4.09555 12.5642 4.90769 11.4237C5.0289 11.2204 5.34436 10.8935 5.64972 10.5771C5.90888 10.3086 6.16076 10.0476 6.28044 9.87609C8.45007 8.06434 12.516 5.11494 14.3341 3.8367L1.73774 15.5666M1.73774 15.5666C0.88386 16.7732 0.092808 18.9689 0.104661 21.4969C0.105671 21.7123 0.105433 21.926 0.105197 22.1378C0.102672 24.411 0.100394 26.4597 1.64458 28.0035L1.73774 15.5666Z" fill="#282F3C" stroke="#D4E6FD"/>
<path d="M69.88 8.06C71.4 8.06 72.7133 8.34667 73.82 8.92C74.94 9.48 75.7933 10.2867 76.38 11.34C76.98 12.3933 77.28 13.6333 77.28 15.06C77.28 16.4867 76.98 17.7267 76.38 18.78C75.7933 19.82 74.94 20.62 73.82 21.18C72.7133 21.7267 71.4 22 69.88 22H65.54V8.06H69.88ZM69.88 20.5C71.68 20.5 73.0533 20.0267 74 19.08C74.9467 18.12 75.42 16.78 75.42 15.06C75.42 13.3267 74.94 11.9733 73.98 11C73.0333 10.0267 71.6667 9.54 69.88 9.54H67.36V20.5H69.88ZM80.6206 9.26C80.274 9.26 79.9806 9.14 79.7406 8.9C79.5006 8.66 79.3806 8.36667 79.3806 8.02C79.3806 7.67333 79.5006 7.38 79.7406 7.14C79.9806 6.9 80.274 6.78 80.6206 6.78C80.954 6.78 81.234 6.9 81.4606 7.14C81.7006 7.38 81.8206 7.67333 81.8206 8.02C81.8206 8.36667 81.7006 8.66 81.4606 8.9C81.234 9.14 80.954 9.26 80.6206 9.26ZM81.5006 11.04V22H79.6806V11.04H81.5006ZM88.4825 22.18C87.6425 22.18 86.8892 22.04 86.2225 21.76C85.5558 21.4667 85.0292 21.0667 84.6425 20.56C84.2558 20.04 84.0425 19.4467 84.0025 18.78H85.8825C85.9358 19.3267 86.1892 19.7733 86.6425 20.12C87.1092 20.4667 87.7158 20.64 88.4625 20.64C89.1558 20.64 89.7025 20.4867 90.1025 20.18C90.5025 19.8733 90.7025 19.4867 90.7025 19.02C90.7025 18.54 90.4892 18.1867 90.0625 17.96C89.6358 17.72 88.9758 17.4867 88.0825 17.26C87.2692 17.0467 86.6025 16.8333 86.0825 16.62C85.5758 16.3933 85.1358 16.0667 84.7625 15.64C84.4025 15.2 84.2225 14.6267 84.2225 13.92C84.2225 13.36 84.3892 12.8467 84.7225 12.38C85.0558 11.9133 85.5292 11.5467 86.1425 11.28C86.7558 11 87.4558 10.86 88.2425 10.86C89.4558 10.86 90.4358 11.1667 91.1825 11.78C91.9292 12.3933 92.3292 13.2333 92.3825 14.3H90.5625C90.5225 13.7267 90.2892 13.2667 89.8625 12.92C89.4492 12.5733 88.8892 12.4 88.1825 12.4C87.5292 12.4 87.0092 12.54 86.6225 12.82C86.2358 13.1 86.0425 13.4667 86.0425 13.92C86.0425 14.28 86.1558 14.58 86.3825 14.82C86.6225 15.0467 86.9158 15.2333 87.2625 15.38C87.6225 15.5133 88.1158 15.6667 88.7425 15.84C89.5292 16.0533 90.1692 16.2667 90.6625 16.48C91.1558 16.68 91.5758 16.9867 91.9225 17.4C92.2825 17.8133 92.4692 18.3533 92.4825 19.02C92.4825 19.62 92.3158 20.16 91.9825 20.64C91.6492 21.12 91.1758 21.5 90.5625 21.78C89.9625 22.0467 89.2692 22.18 88.4825 22.18ZM96.8717 13.06C97.2317 12.4333 97.7651 11.9133 98.4717 11.5C99.1917 11.0733 100.025 10.86 100.972 10.86C101.945 10.86 102.825 11.0933 103.612 11.56C104.412 12.0267 105.038 12.6867 105.492 13.54C105.945 14.38 106.172 15.36 106.172 16.48C106.172 17.5867 105.945 18.5733 105.492 19.44C105.038 20.3067 104.412 20.98 103.612 21.46C102.825 21.94 101.945 22.18 100.972 22.18C100.038 22.18 99.2117 21.9733 98.4917 21.56C97.7851 21.1333 97.2451 20.6067 96.8717 19.98V27.2H95.0517V11.04H96.8717V13.06ZM104.312 16.48C104.312 15.6533 104.145 14.9333 103.812 14.32C103.478 13.7067 103.025 13.24 102.452 12.92C101.892 12.6 101.272 12.44 100.592 12.44C99.9251 12.44 99.3051 12.6067 98.7317 12.94C98.1717 13.26 97.7184 13.7333 97.3717 14.36C97.0384 14.9733 96.8717 15.6867 96.8717 16.5C96.8717 17.3267 97.0384 18.0533 97.3717 18.68C97.7184 19.2933 98.1717 19.7667 98.7317 20.1C99.3051 20.42 99.9251 20.58 100.592 20.58C101.272 20.58 101.892 20.42 102.452 20.1C103.025 19.7667 103.478 19.2933 103.812 18.68C104.145 18.0533 104.312 17.32 104.312 16.48ZM113.347 22.18C112.321 22.18 111.387 21.9467 110.547 21.48C109.721 21.0133 109.067 20.3533 108.587 19.5C108.121 18.6333 107.887 17.6333 107.887 16.5C107.887 15.38 108.127 14.3933 108.607 13.54C109.101 12.6733 109.767 12.0133 110.607 11.56C111.447 11.0933 112.387 10.86 113.427 10.86C114.467 10.86 115.407 11.0933 116.247 11.56C117.087 12.0133 117.747 12.6667 118.227 13.52C118.721 14.3733 118.967 15.3667 118.967 16.5C118.967 17.6333 118.714 18.6333 118.207 19.5C117.714 20.3533 117.041 21.0133 116.187 21.48C115.334 21.9467 114.387 22.18 113.347 22.18ZM113.347 20.58C114.001 20.58 114.614 20.4267 115.187 20.12C115.761 19.8133 116.221 19.3533 116.567 18.74C116.927 18.1267 117.107 17.38 117.107 16.5C117.107 15.62 116.934 14.8733 116.587 14.26C116.241 13.6467 115.787 13.1933 115.227 12.9C114.667 12.5933 114.061 12.44 113.407 12.44C112.741 12.44 112.127 12.5933 111.567 12.9C111.021 13.1933 110.581 13.6467 110.247 14.26C109.914 14.8733 109.747 15.62 109.747 16.5C109.747 17.3933 109.907 18.1467 110.227 18.76C110.561 19.3733 111.001 19.8333 111.547 20.14C112.094 20.4333 112.694 20.58 113.347 20.58ZM126.7 10.84C128.034 10.84 129.114 11.2467 129.94 12.06C130.767 12.86 131.18 14.02 131.18 15.54V22H129.38V15.8C129.38 14.7067 129.107 13.8733 128.56 13.3C128.014 12.7133 127.267 12.42 126.32 12.42C125.36 12.42 124.594 12.72 124.02 13.32C123.46 13.92 123.18 14.7933 123.18 15.94V22H121.36V11.04H123.18V12.6C123.54 12.04 124.027 11.6067 124.64 11.3C125.267 10.9933 125.954 10.84 126.7 10.84ZM135.093 9.26C134.747 9.26 134.453 9.14 134.213 8.9C133.973 8.66 133.853 8.36667 133.853 8.02C133.853 7.67333 133.973 7.38 134.213 7.14C134.453 6.9 134.747 6.78 135.093 6.78C135.427 6.78 135.707 6.9 135.933 7.14C136.173 7.38 136.293 7.67333 136.293 8.02C136.293 8.36667 136.173 8.66 135.933 8.9C135.707 9.14 135.427 9.26 135.093 9.26ZM135.973 11.04V22H134.153V11.04H135.973ZM140.895 13.08C141.268 12.4267 141.815 11.8933 142.535 11.48C143.255 11.0667 144.075 10.86 144.995 10.86C145.982 10.86 146.868 11.0933 147.655 11.56C148.442 12.0267 149.062 12.6867 149.515 13.54C149.968 14.38 150.195 15.36 150.195 16.48C150.195 17.5867 149.968 18.5733 149.515 19.44C149.062 20.3067 148.435 20.98 147.635 21.46C146.848 21.94 145.968 22.18 144.995 22.18C144.048 22.18 143.215 21.9733 142.495 21.56C141.788 21.1467 141.255 20.62 140.895 19.98V22H139.075V7.2H140.895V13.08ZM148.335 16.48C148.335 15.6533 148.168 14.9333 147.835 14.32C147.502 13.7067 147.048 13.24 146.475 12.92C145.915 12.6 145.295 12.44 144.615 12.44C143.948 12.44 143.328 12.6067 142.755 12.94C142.195 13.26 141.742 13.7333 141.395 14.36C141.062 14.9733 140.895 15.6867 140.895 16.5C140.895 17.3267 141.062 18.0533 141.395 18.68C141.742 19.2933 142.195 19.7667 142.755 20.1C143.328 20.42 143.948 20.58 144.615 20.58C145.295 20.58 145.915 20.42 146.475 20.1C147.048 19.7667 147.502 19.2933 147.835 18.68C148.168 18.0533 148.335 17.32 148.335 16.48ZM154.411 7.2V22H152.591V7.2H154.411ZM167.513 16.1C167.513 16.4467 167.493 16.8133 167.453 17.2H158.693C158.759 18.28 159.126 19.1267 159.793 19.74C160.473 20.34 161.293 20.64 162.253 20.64C163.039 20.64 163.693 20.46 164.213 20.1C164.746 19.7267 165.119 19.2333 165.333 18.62H167.293C166.999 19.6733 166.413 20.5333 165.533 21.2C164.653 21.8533 163.559 22.18 162.253 22.18C161.213 22.18 160.279 21.9467 159.453 21.48C158.639 21.0133 157.999 20.3533 157.533 19.5C157.066 18.6333 156.833 17.6333 156.833 16.5C156.833 15.3667 157.059 14.3733 157.513 13.52C157.966 12.6667 158.599 12.0133 159.413 11.56C160.239 11.0933 161.186 10.86 162.253 10.86C163.293 10.86 164.213 11.0867 165.013 11.54C165.813 11.9933 166.426 12.62 166.853 13.42C167.293 14.2067 167.513 15.1 167.513 16.1ZM165.633 15.72C165.633 15.0267 165.479 14.4333 165.173 13.94C164.866 13.4333 164.446 13.0533 163.913 12.8C163.393 12.5333 162.813 12.4 162.173 12.4C161.253 12.4 160.466 12.6933 159.813 13.28C159.173 13.8667 158.806 14.68 158.713 15.72H165.633Z" fill="#10CE5D"/>
</svg>
