<svg width="1440" height="200" viewBox="0 0 1440 200" fill="none" xmlns="http://www.w3.org/2000/svg">
<g clip-path="url(#clip0_57_8)">
<path opacity="0.5" d="M1440.5 24.0807V23.6633L1440.09 23.5887C1425.19 20.8817 1393.05 15.0176 1383.68 13.2136C1372 10.9602 1364.55 9.15786 1359.24 7.80656L1359.12 8.29107L1359.24 7.80645C1353.87 6.4411 1347.44 5.98773 1341.07 5.53787L1341.06 5.53664C1337.84 5.30983 1328.53 5.30983 1318.45 5.30983H1318.4C1308.29 5.30983 1297.39 5.30975 1291.01 5.08458C1282.73 4.79223 1270.89 3.36269 1259.81 2.02373C1253.81 1.29916 1248.03 0.601122 1243.15 0.124176V0.12418C1229.27 -1.23358 1211.12 -0.330714 1199.35 2.39031L1199.46 2.87746L1199.35 2.39035C1187.62 5.10592 1182.26 6.92223 1156.72 16.8477C1151.9 18.7204 1147.72 20.3838 1143.94 21.8924C1127.64 28.3838 1118.54 32.0107 1096.13 37.1273C1068.49 43.4327 1057.91 43.2474 1044.12 42.0791C1038.69 41.6186 1033.93 40.5442 1028.87 39.4039C1027.53 39.1007 1026.16 38.7929 1024.76 38.4907C1018.08 37.054 1010.6 35.7614 1000.44 35.7614C990.832 35.7614 980.698 36.7796 971.381 37.908C968.638 38.2402 965.969 38.5816 963.404 38.9095C957.243 39.6974 951.69 40.4075 947.193 40.7252C942.695 41.0429 938.596 41.3605 934.245 41.6975C926.229 42.3184 917.357 43.0056 903.56 43.8828C892.879 44.5619 884.336 46.2601 875.948 48.066C875.059 48.2575 874.171 48.4502 873.283 48.6429C865.794 50.2686 858.269 51.9024 849.257 52.9076C839.179 54.0318 829.893 54.0324 820.316 53.9196C819.299 53.9076 818.278 53.8944 817.253 53.8811C808.632 53.7691 799.689 53.6529 789.682 54.2589C778.578 54.9313 770.609 56.9353 762.838 58.8895L762.584 58.9535C754.738 60.9263 747.064 62.8322 736.476 63.2811C715.201 64.1829 689.671 64.1827 677.98 63.7322C672.188 63.5089 665.854 61.9451 659.324 60.3069L658.927 60.2073C652.544 58.6055 645.988 56.9604 639.681 56.5148C630.361 55.8565 609.188 56.3954 588.928 56.9112C581.357 57.1039 573.913 57.2934 567.263 57.4159C542.776 57.8673 535.318 58.3187 520.414 59.2214C512.947 59.6735 507.612 60.3519 502.29 61.0287L502.287 61.029C496.967 61.7055 491.66 62.3804 484.227 62.8304C469.355 63.731 415.107 62.3789 398.062 61.9274C381.044 61.4765 362.979 60.1241 350.243 57.8746C337.463 55.6177 327.85 54.258 317.162 54.258C306.465 54.258 300.033 55.62 293.611 57.4347L293.745 57.908L293.611 57.4347C292.864 57.6458 292.061 57.881 291.204 58.1318C284.71 60.0328 275.156 62.8295 263.946 62.8295C257.66 62.8295 251.348 60.8295 245.654 58.3594C241.944 56.7506 238.546 54.9665 235.583 53.4115C233.978 52.569 232.501 51.7938 231.172 51.15L230.959 51.5887L231.172 51.15C230.404 50.7782 229.679 50.4193 228.983 50.0746C226.327 48.7598 224.092 47.6533 221.526 46.8377C218.27 45.8024 214.49 45.2352 208.603 45.2352C203.58 45.2352 197.589 46.059 190.76 46.9981C189.571 47.1616 188.356 47.3286 187.117 47.4954C178.741 48.6225 169.189 49.7466 158.58 49.7466C147.971 49.7466 139.75 48.7352 131.636 47.7204L131.318 47.6805C123.312 46.6789 115.379 45.6864 105.366 45.6864C95.2472 45.6864 88.0567 45.9122 80.8722 46.1377L80.8712 46.1378C73.688 46.3633 66.5105 46.5887 56.408 46.5887C36.196 46.5887 12.8156 45.2352 0.0869615 42.9872L-0.5 42.8835V43.4796V225.641V226.141H0H1440H1440.5V225.641V24.0807Z" fill="url(#paint0_linear_57_8)" stroke="#282F3C"/>
</g>
<defs>
<linearGradient id="paint0_linear_57_8" x1="1173.2" y1="-0.548313" x2="1173.06" y2="225.174" gradientUnits="userSpaceOnUse">
<stop stop-color="#091737"/>
<stop offset="1" stop-color="#030712"/>
</linearGradient>
<clipPath id="clip0_57_8">
<rect width="1440" height="200" fill="white"/>
</clipPath>
</defs>
</svg>
