<svg width="200" height="31" viewBox="0 0 200 31" fill="currentColor" xmlns="http://www.w3.org/2000/svg">
<path d="M33.6245 1.60648L34.0433 1.75724C34.1829 1.75724 34.3525 1.6316 34.5519 1.38035C34.7513 1.10396 34.9209 0.965781 35.0605 0.965781C35.2201 0.965781 35.4393 1.07885 35.7186 1.30498C35.9979 1.50599 36.1374 1.69443 36.1374 1.8703C36.1374 2.2723 35.4094 3.5914 33.9536 5.82759C32.4978 8.03864 30.9023 10.413 29.1672 12.9507C27.4321 15.4884 25.8366 18.0512 24.3808 20.6391C22.9249 23.202 22.197 24.986 22.197 25.9909C22.197 27.6996 22.2967 29.006 22.4961 29.9105L22.5859 30.2874C22.5859 30.4632 22.4164 30.5512 22.0773 30.5512C21.7383 30.5512 21.469 30.5135 21.2696 30.4381C21.0901 30.3878 20.8707 30.2624 20.6115 30.0613C20.1328 29.6593 19.7938 28.5914 19.5944 26.8577C19.5944 26.0286 19.6542 25.2622 19.7739 24.5587C19.8935 23.83 20.1727 22.9632 20.6115 21.9582C21.0702 20.9533 21.5089 20.0488 21.9277 19.2447C22.3665 18.4406 23.1243 17.2221 24.2013 15.5889C25.6173 13.4532 27.2028 11.1542 28.9578 8.69191C30.7127 6.20447 31.67 4.84769 31.8296 4.62156C32.0091 4.37031 32.0989 4.21956 32.0989 4.1693C32.0989 4.11904 31.5305 4.73463 30.3937 6.01603C29.2768 7.27232 27.3323 9.53363 24.5603 12.8C21.8081 16.0663 20.1029 18.1894 19.4448 19.1693C16.8322 22.9381 15.2268 25.3879 14.6285 26.5185C14.5287 26.8451 14.3493 27.0085 14.09 27.0085C13.8507 27.0085 13.6313 26.795 13.4319 26.3678C13.0928 25.6391 12.9233 24.7222 12.9233 23.6165C13.3222 21.7825 14.1 19.4708 15.2567 16.6819C16.4134 13.8678 17.6997 11.104 19.1157 8.39041L20.5217 6.09141C20.6613 5.81502 20.7311 5.63915 20.7311 5.56377L20.7012 5.52608C20.6813 5.52608 19.9135 6.55624 18.3978 8.61654C16.8821 10.6768 15.9846 11.908 15.7054 12.31L9.30359 21.1291C6.77078 24.6215 4.94597 26.732 3.82913 27.4608C1.89462 28.2649 0.727932 28.7171 0.329066 28.8175C0.109689 28.8175 0 28.7672 0 28.6668C0 28.5664 0.0997167 28.403 0.299151 28.1768C3.21089 24.433 5.03571 22.109 5.77361 21.2045C5.93316 21.0787 7.23945 19.5085 9.69248 16.4934C12.1455 13.4532 14.7681 10.3125 17.5601 7.07131C20.3722 3.8301 22.3665 1.8075 23.5432 1.00347C24.321 0.701962 24.8994 0.551208 25.2782 0.551208C25.6772 0.551208 25.8765 0.689389 25.8765 0.965781C25.8765 1.14165 25.7868 1.34267 25.6073 1.5688C22.5959 6.99593 20.8309 10.4256 20.3123 11.8577L18.4875 16.1919C18.4277 16.3678 18.3978 16.4934 18.3978 16.5688C18.3978 16.7196 18.4177 16.7698 18.4576 16.7196C20.0331 15.1115 22.0973 12.8502 24.65 9.93563C27.2227 7.02105 29.1871 4.9105 30.5433 3.60397C31.8995 2.2723 32.9264 1.60648 33.6245 1.60648ZM35.0004 24.4834L35.2397 22.0713C35.2397 21.9959 35.2199 21.9582 35.1799 21.9582C35.16 21.9582 35.11 22.0086 35.0303 22.109C34.7711 22.4609 34.4421 22.9005 34.0431 23.4281C33.6442 23.9307 32.9561 24.6215 31.979 25.501C31.0217 26.3551 30.2439 26.7824 29.6456 26.7824C29.5458 26.7573 29.4261 26.707 29.2866 26.6316C29.127 26.5813 28.9276 26.3805 28.6883 26.0286C28.449 25.6767 28.3293 25.1744 28.3293 24.5211C28.3293 23.8677 28.7283 22.8754 29.5259 21.5437C30.3037 20.1869 31.2411 18.8678 32.338 17.5864C33.4348 16.2799 34.6515 15.1492 35.9876 14.1944C37.3438 13.2396 38.5203 12.7623 39.5176 12.7623C39.8964 12.7874 40.1956 13.1266 40.415 13.7799C40.6144 13.5286 40.7939 13.403 40.9535 13.403C41.1131 13.403 41.3024 13.5537 41.5219 13.8552C41.6415 13.8803 41.7612 13.9683 41.8809 14.119C42.0005 14.2447 42.0604 14.4331 42.0604 14.6844C42.0604 14.9356 41.9208 15.212 41.6415 15.5135C41.2227 16.1668 40.734 16.908 40.1757 17.7371C39.6174 18.5663 39.2184 19.1693 38.9791 19.5462C38.7398 19.898 38.4904 20.3 38.2312 20.7522C37.7925 21.531 37.5532 22.1593 37.5133 22.6366C39.5475 21.4056 42.7484 18.7547 47.116 14.6844C47.2955 14.8602 47.3852 15.0738 47.3852 15.3251C47.3852 15.5763 47.3055 15.7899 47.1459 15.9658C46.9863 16.1417 46.7869 16.3552 46.5476 16.6065C46.3282 16.8577 45.8794 17.3477 45.2014 18.0763C44.5234 18.8051 43.8653 19.5085 43.227 20.1869C42.6089 20.8403 41.8909 21.5814 41.0732 22.4105C40.2755 23.2146 39.5575 23.9054 38.9193 24.4834C37.3836 25.8652 36.4263 26.5562 36.0474 26.5562C35.6686 26.5562 35.3993 26.4055 35.2397 26.104C35.0801 25.8025 35.0004 25.2622 35.0004 24.4834ZM31.9491 22.9005C32.1884 22.9005 32.9164 22.2848 34.1329 21.0537C35.3694 19.8227 36.5361 18.5913 37.6329 17.3603L39.3082 15.5135C39.3879 15.413 39.4278 15.3502 39.4278 15.3251C39.4278 15.2748 39.3979 15.2497 39.3381 15.2497C38.5802 15.2497 37.593 15.8025 36.3765 16.908C35.16 17.9884 34.1029 19.1443 33.2055 20.3753C32.3279 21.5814 31.8892 22.3978 31.8892 22.8251C31.8892 22.8754 31.9091 22.9005 31.9491 22.9005ZM58.3535 8.65422L59.8792 8.61654C61.8536 8.61654 63.2895 8.9683 64.187 9.67181C64.6257 9.84768 64.8451 10.0738 64.8451 10.3502C64.8451 10.5512 64.6458 10.6894 64.2468 10.7648C63.868 10.8402 62.5218 11.0412 60.2083 11.3678C57.9149 11.6693 56.3392 11.8452 55.4817 11.8954C55.1029 11.9205 54.2253 12.7497 52.8492 14.3829C51.4929 16.016 50.1968 17.8125 48.9602 19.7723C47.7236 21.7321 47.1055 23.1016 47.1055 23.8804C47.1055 24.0061 47.1553 24.1191 47.2551 24.2196C47.3549 24.2949 47.4745 24.3326 47.614 24.3326C47.7737 24.3326 48.013 24.2572 48.332 24.1065C52.1212 21.2925 55.8007 18.2145 59.3707 14.8728C59.5502 15.0487 59.6399 15.2623 59.6399 15.5135C59.6399 15.7648 59.5401 16.016 59.3407 16.2673C59.1414 16.4934 58.8422 16.8326 58.4433 17.2849C58.0644 17.7371 57.3465 18.5536 56.2894 19.7346C55.2323 20.9156 54.2353 21.9709 53.2979 22.9005C50.785 25.4633 49.0301 26.9458 48.0328 27.3477C47.6739 27.4734 47.245 27.5361 46.7465 27.5361C46.2679 27.5361 45.8191 27.222 45.4003 26.5939C45.0014 25.9659 44.802 25.1114 44.802 24.0311C44.802 22.9508 45.3505 21.3929 46.4474 19.3577C47.5643 17.3226 49.0799 15.2371 50.9944 13.1015C51.1739 12.9256 51.2637 12.7623 51.2637 12.6115C51.2637 12.4608 51.0543 12.3854 50.6355 12.3854L48.7508 12.4608C46.0984 12.4608 44.7321 12.0839 44.6524 11.3301C44.0343 11.1794 43.7251 10.9532 43.7251 10.6517C43.7251 10.5512 43.765 10.501 43.8447 10.501C43.9244 10.4758 43.9943 10.4633 44.0541 10.4633C44.114 10.4382 44.2138 10.413 44.3533 10.3879C44.4928 10.3628 45.5899 10.1618 47.644 9.78488C49.7181 9.40799 52.0714 9.09391 54.7039 8.84267L56.7681 5.37533C56.8877 5.07382 57.3065 4.92307 58.0245 4.92307C58.7424 4.92307 59.1014 5.11151 59.1014 5.48839C59.1014 5.61403 59.0217 5.84016 58.8621 6.16679L58.1142 7.48588C58.0144 7.88788 57.9546 8.18939 57.9347 8.39041C57.9347 8.56628 58.0743 8.65422 58.3535 8.65422ZM60.7311 23.6165C60.8706 23.6165 61.1099 23.5412 61.4491 23.3904L62.9747 22.3351C64.0117 21.6317 65.4378 20.5511 67.2526 19.0939C69.0874 17.6366 70.8024 16.1668 72.398 14.6844C72.5775 14.8602 72.6672 15.1115 72.6672 15.4381C72.6672 15.614 72.5775 15.8025 72.398 16.0035L70.3039 18.3778C68.908 19.9357 67.2825 21.594 65.4278 23.3527C63.573 25.1114 62.1969 26.1794 61.2995 26.5562L60.1328 26.7447C58.5971 26.7447 57.8293 25.7144 57.8293 23.6542C57.8293 22.8501 58.1783 21.7071 58.8764 20.2246C59.5745 18.717 60.2924 17.3979 61.0302 16.2673C61.7681 15.1115 62.3065 14.4331 62.6457 14.2321C62.9848 14.0311 63.3737 13.9306 63.8123 13.9306C64.1314 13.9306 64.4805 14.0311 64.8594 14.2321C64.979 14.3326 65.0389 14.4582 65.0389 14.609C65.0389 14.6844 64.969 14.81 64.8295 14.9859L63.9918 16.1165C63.4134 16.8954 62.7653 17.9005 62.0474 19.1316C61.3493 20.3376 60.8706 21.3803 60.6114 22.2598C60.4518 22.6617 60.3721 22.9885 60.3721 23.2397C60.3721 23.4908 60.4918 23.6165 60.7311 23.6165ZM64.6799 10.6517C64.6799 11.0286 64.8295 11.217 65.1286 11.217C66.1259 11.217 67.3823 10.6643 68.8979 9.55875C69.8552 8.88035 70.5432 8.05121 70.962 7.07131L71.0219 6.20447C71.0219 5.7271 70.9123 5.26226 70.6928 4.81C70.4935 4.35774 70.234 4.13161 69.915 4.13161C69.596 4.13161 69.3366 4.30748 69.1372 4.65925L68.8082 5.41302C68.5887 5.91554 68.15 6.59393 67.4919 7.44819C66.8338 8.27734 66.066 9.01854 65.1884 9.67181C64.8493 10.099 64.6799 10.4256 64.6799 10.6517ZM74.8751 24.4834L75.1144 22.0713C75.1144 21.9959 75.0945 21.9582 75.0546 21.9582C75.0347 21.9582 74.9847 22.0086 74.905 22.109C74.6458 22.4609 74.3167 22.9005 73.9178 23.4281C73.5188 23.9307 72.8308 24.6215 71.8537 25.501C70.8964 26.3551 70.1186 26.7824 69.5203 26.7824C69.4205 26.7573 69.3008 26.707 69.1613 26.6316C69.0017 26.5813 68.8023 26.3805 68.563 26.0286C68.3237 25.6767 68.204 25.1744 68.204 24.5211C68.204 23.8677 68.603 22.8754 69.4006 21.5437C70.1784 20.1869 71.1158 18.8678 72.2126 17.5864C73.3094 16.2799 74.5261 15.1492 75.8623 14.1944C77.2185 13.2396 78.395 12.7623 79.3923 12.7623C79.7711 12.7874 80.0702 13.1266 80.2897 13.7799C80.4891 13.5286 80.6685 13.403 80.8282 13.403C80.9878 13.403 81.1771 13.5537 81.3966 13.8552C81.5162 13.8803 81.6359 13.9683 81.7555 14.119C81.8752 14.2447 81.935 14.4331 81.935 14.6844C81.935 14.9356 81.7955 15.212 81.5162 15.5135C81.0974 16.1668 80.6087 16.908 80.0504 17.7371C79.492 18.5663 79.0931 19.1693 78.8538 19.5462C78.6145 19.898 78.3651 20.3 78.1059 20.7522C77.6672 21.531 77.4279 22.1593 77.3879 22.6366C79.4222 21.4056 82.6231 18.7547 86.9907 14.6844C87.1702 14.8602 87.2599 15.0738 87.2599 15.3251C87.2599 15.5763 87.1802 15.7899 87.0206 15.9658C86.861 16.1417 86.6616 16.3552 86.4223 16.6065C86.2028 16.8577 85.7541 17.3477 85.0761 18.0763C84.3981 18.8051 83.74 19.5085 83.1017 20.1869C82.4835 20.8403 81.7656 21.5814 80.9478 22.4105C80.1502 23.2146 79.4322 23.9054 78.794 24.4834C77.2582 25.8652 76.301 26.5562 75.9221 26.5562C75.5433 26.5562 75.274 26.4055 75.1144 26.104C74.9548 25.8025 74.8751 25.2622 74.8751 24.4834ZM71.8237 22.9005C72.0631 22.9005 72.7911 22.2848 74.0075 21.0537C75.2441 19.8227 76.4108 18.5913 77.5076 17.3603L79.1828 15.5135C79.2625 15.413 79.3025 15.3502 79.3025 15.3251C79.3025 15.2748 79.2726 15.2497 79.2128 15.2497C78.4548 15.2497 77.4676 15.8025 76.2512 16.908C75.0347 17.9884 73.9776 19.1443 73.0802 20.3753C72.2026 21.5814 71.7639 22.3978 71.7639 22.8251C71.7639 22.8754 71.7838 22.9005 71.8237 22.9005ZM88.1733 23.315C88.8714 23.315 89.5094 22.7874 90.0878 21.7321C90.6861 20.6518 91.1049 19.5712 91.3443 18.4909C91.5836 17.3854 91.7032 16.506 91.7032 15.8527C91.7032 15.6768 91.5936 15.5889 91.3742 15.5889C91.1748 15.5889 90.9355 15.7271 90.6562 16.0035L86.7373 19.81C86.458 20.0111 86.139 20.1115 85.7801 20.1115C85.4211 20.1115 85.2416 19.9481 85.2416 19.6216C85.2416 19.3954 85.2614 19.2447 85.3014 19.1693C85.3612 19.0939 85.5108 18.9682 85.7501 18.7924C87.226 17.511 89.2402 15.4256 91.793 12.5361C92.0921 12.0336 92.3614 11.7824 92.6007 11.7824C92.84 11.7824 93.239 11.8829 93.7973 12.0839C94.3556 12.2597 94.6349 12.4733 94.6349 12.7246C94.6349 14.2321 94.5253 15.6015 94.3058 16.8326C94.0864 18.0638 93.8571 19.0059 93.6178 19.6592C93.3983 20.2873 93.2887 20.6265 93.2887 20.6768C93.2887 20.7272 93.3086 20.7522 93.3486 20.7522C93.3885 20.7522 93.4682 20.7145 93.5879 20.6391C95.0836 19.6843 96.9882 18.1266 99.3017 15.9658L100.02 15.2874C100.199 15.4633 100.289 15.6768 100.289 15.9281C100.289 16.1793 100.199 16.4055 100.02 16.6065C99.9797 16.6065 99.4613 17.1341 98.464 18.1894C97.4869 19.2447 96.3898 20.4004 95.1734 21.6567C93.9768 22.8878 92.6904 24.0184 91.3143 25.0487C89.9382 26.0789 88.8713 26.5939 88.1134 26.5939C86.2388 26.5939 85.3014 25.1744 85.3014 22.3351C85.3014 22.109 85.3713 21.9079 85.5108 21.7321C85.6704 21.531 85.8698 21.4306 86.1091 21.4306C86.1091 21.5563 86.1589 21.7571 86.2587 22.0336C86.3784 22.2848 86.498 22.4985 86.6177 22.6743C86.9767 23.1016 87.4953 23.315 88.1733 23.315ZM119.065 1.2296C121.698 1.2296 123.014 2.58638 123.014 5.29995C123.014 5.77733 122.824 6.68185 122.446 8.01352C122.067 9.34519 121.359 11.104 120.322 13.2899C119.285 15.4507 118.068 17.4231 116.672 19.207C115.874 20.388 115.475 21.0287 115.475 21.1291C115.475 21.2045 115.505 21.2422 115.565 21.2422C116.602 19.6843 118.088 17.6492 120.023 15.1366C121.977 12.6241 123.692 10.5386 125.168 8.88036C126.664 7.19695 128.269 5.67684 129.984 4.32005C131.719 2.93815 133.066 2.24719 134.023 2.24719C134.98 2.24719 135.748 2.4482 136.326 2.8502C136.905 3.2522 137.194 3.84268 137.194 4.62156C137.194 5.07382 137.074 5.29995 136.835 5.29995C135.399 5.35021 133.773 5.96577 131.959 7.14669C130.144 8.30246 128.399 9.74719 126.724 11.4809C125.068 13.1894 123.373 15.0487 121.638 17.0587C119.923 19.0689 118.387 20.928 117.031 22.6366C113.86 26.6316 111.826 28.6291 110.928 28.6291C110.789 28.6291 110.659 28.5914 110.539 28.516C110.42 28.3903 110.23 28.2145 109.971 27.9884C109.712 27.7873 109.502 27.6115 109.343 27.4608C109.183 27.335 109.104 27.1843 109.104 27.0085C109.104 26.8577 109.223 26.619 109.463 26.2924C111.776 23.2773 113.72 20.1869 115.296 17.0211C116.812 13.9557 118.118 10.9658 119.215 8.05121L119.813 6.43061C120.192 5.42559 120.382 4.7472 120.382 4.39543C120.382 4.01855 120.302 3.8301 120.142 3.8301C119.683 3.8301 118.716 4.34517 117.24 5.37533C115.785 6.40549 114.229 7.76227 112.574 9.44568C110.938 11.1291 109.821 12.6869 109.223 14.119C109.064 14.3201 108.954 14.4206 108.894 14.4206C108.814 14.4206 108.774 14.3452 108.774 14.1944C108.774 13.4155 109.084 12.31 109.702 10.8778C110.32 9.44568 111.098 8.01352 112.035 6.58136C112.973 5.12408 114.079 3.86779 115.356 2.81251C116.652 1.75724 117.888 1.2296 119.065 1.2296ZM136.537 7.4105C136.737 7.4105 136.866 7.46077 136.926 7.56126C137.205 7.9884 137.345 8.34014 137.345 8.61654C137.345 8.86778 137.285 9.09391 137.165 9.29493C137.046 9.4708 136.896 9.68439 136.717 9.93563C136.557 10.1618 136.218 10.4884 135.7 10.9155C135.201 11.3175 134.712 11.5185 134.234 11.5185C133.875 11.4432 133.695 11.1668 133.695 10.6894C133.695 9.93563 134.054 9.20698 134.772 8.50347C135.49 7.77482 136.079 7.4105 136.537 7.4105ZM129.358 22.2598C129.198 22.6116 129.118 22.9255 129.118 23.202C129.118 23.4784 129.238 23.6165 129.477 23.6165C129.617 23.6165 129.856 23.5412 130.195 23.3904C133.925 20.928 137.574 18.0261 141.144 14.6844C141.324 14.8602 141.413 15.0738 141.413 15.3251C141.413 15.5763 141.314 15.815 141.114 16.0412C140.915 16.2673 140.626 16.5939 140.247 17.0211C139.888 17.4482 139.19 18.2145 138.153 19.3201C137.116 20.4257 136.148 21.4306 135.251 22.3351C132.898 24.7222 131.163 26.129 130.046 26.5562C129.687 26.682 129.298 26.7447 128.879 26.7447C127.343 26.7447 126.576 25.7144 126.576 23.6542C126.576 22.8501 126.924 21.7071 127.623 20.2246C128.321 18.717 129.039 17.3979 129.776 16.2673C130.514 15.1115 131.003 14.4708 131.242 14.3452C131.601 14.0688 131.99 13.9306 132.409 13.9306C132.828 13.9306 133.227 14.0311 133.606 14.2321C133.725 14.3075 133.785 14.408 133.785 14.5336C133.785 14.6593 133.685 14.8477 133.486 15.0989C133.306 15.3502 133.017 15.7397 132.618 16.2673C132.24 16.7949 131.661 17.712 130.883 19.0185C130.125 20.3 129.617 21.3803 129.358 22.2598ZM140.66 22.9005C140.899 22.9005 141.627 22.2848 142.844 21.0537C144.08 19.8227 145.257 18.5913 146.374 17.3603L148.019 15.5135C148.099 15.413 148.138 15.3502 148.138 15.3251C148.138 15.2748 148.109 15.2497 148.049 15.2497C147.291 15.2497 146.304 15.8025 145.087 16.908C143.871 17.9884 142.814 19.1443 141.916 20.3753C141.039 21.5814 140.6 22.3978 140.6 22.8251C140.6 22.8754 140.62 22.9005 140.66 22.9005ZM145.835 23.4658C145.835 23.5412 145.895 23.5788 146.015 23.5788C146.154 23.5788 146.743 23.202 147.78 22.4482C150.492 20.5134 153.683 17.9256 157.352 14.6844C157.532 14.8602 157.622 15.0738 157.622 15.3251C157.622 15.5763 157.522 15.815 157.322 16.0412C157.123 16.2673 156.834 16.5939 156.455 17.0211C156.096 17.4482 155.398 18.2145 154.361 19.3201C153.324 20.4257 152.357 21.4306 151.459 22.3351C149.106 24.7222 147.371 26.129 146.254 26.5562C145.895 26.682 145.506 26.7447 145.087 26.7447C144.688 26.6693 144.319 26.4809 143.98 26.1794C143.661 25.8778 143.502 25.526 143.502 25.1241C143.502 24.7222 143.572 24.1315 143.711 23.3527C143.871 22.5486 143.95 22.1217 143.95 22.0713C143.95 21.9959 143.931 21.9582 143.891 21.9582C143.871 21.9582 143.821 22.0086 143.741 22.109C143.482 22.4609 143.153 22.9005 142.754 23.4281C142.355 23.9307 141.667 24.6215 140.69 25.501C139.732 26.3551 138.955 26.7824 138.356 26.7824C138.256 26.7573 138.137 26.707 137.997 26.6316C137.838 26.5813 137.638 26.3805 137.399 26.0286C137.16 25.6767 137.04 25.1744 137.04 24.5211C137.04 23.8677 137.429 22.8754 138.207 21.5437C138.984 20.1869 139.932 18.8678 141.049 17.5864C142.166 16.2799 143.392 15.1492 144.728 14.1944C146.064 13.2396 147.231 12.7623 148.228 12.7623C148.587 12.7623 148.886 13.1015 149.126 13.7799C149.106 13.604 149.754 12.4733 151.07 10.3879C152.386 8.27734 153.942 6.16679 155.737 4.05623C157.552 1.92056 158.958 0.852716 159.955 0.852716C160.294 0.852716 160.463 1.05373 160.463 1.45573C160.463 2.08386 160.124 2.93815 159.446 4.01854C158.788 5.09894 158.07 6.10398 157.292 7.03362C156.535 7.96326 155.547 9.1316 154.331 10.5386C151.519 13.7547 149.395 16.4934 147.959 18.7547C146.543 21.016 145.835 22.5863 145.835 23.4658ZM164.241 14.6844C163.722 14.6844 162.845 15.3628 161.608 16.7196C160.372 18.0512 159.753 18.8678 159.753 19.1693C159.753 19.2196 159.783 19.2447 159.843 19.2447C160.282 19.2447 161.149 18.629 162.446 17.3979C163.762 16.1668 164.42 15.3251 164.42 14.8728C164.42 14.7472 164.36 14.6844 164.241 14.6844ZM157.869 26.7447C156.333 26.7447 155.565 25.5637 155.565 23.202C155.565 21.7195 156.074 20.1492 157.091 18.4909C158.128 16.8075 159.345 15.4381 160.741 14.3829C162.137 13.3025 163.373 12.7623 164.45 12.7623C164.929 12.7623 165.367 13.001 165.766 13.4783C166.185 13.9557 166.395 14.4206 166.395 14.8728C166.395 15.702 165.926 16.6442 164.989 17.6995C164.051 18.7297 163.064 19.5712 162.027 20.2246C161.01 20.8526 160.332 21.1668 159.993 21.1668C159.674 21.1668 159.434 20.9783 159.275 20.6015C159.195 20.5261 159.085 20.4884 158.946 20.4884C158.806 20.4884 158.577 20.8276 158.258 21.506C157.939 22.1593 157.779 22.6994 157.779 23.1266C157.779 23.5285 157.899 23.78 158.138 23.8804C159.654 23.8804 161.299 23.3277 163.074 22.2221C164.849 21.0914 167.302 19.119 170.433 16.305C170.653 16.104 170.982 15.8025 171.42 15.4005C171.879 14.9985 172.148 14.7598 172.228 14.6844C172.408 14.8602 172.497 15.0738 172.497 15.3251C172.497 15.5763 172.408 15.8025 172.228 16.0035C171.231 17.2598 169.935 18.6667 168.339 20.2246C166.764 21.7825 164.949 23.2647 162.895 24.6718C160.84 26.0536 159.165 26.7447 157.869 26.7447ZM173.163 23.5788C173.821 23.5788 175.118 22.8377 177.052 21.3552C179.007 19.8727 180.781 18.3904 182.377 16.908L184.8 14.6844C184.98 14.8602 185.069 15.0738 185.069 15.3251C185.069 15.5763 184.97 15.815 184.77 16.0412C184.571 16.2673 184.281 16.5939 183.903 17.0211C183.544 17.4482 182.846 18.2145 181.809 19.3201C180.772 20.4257 179.804 21.4306 178.907 22.3351C176.554 24.7222 174.819 26.129 173.702 26.5562C173.343 26.682 172.974 26.7447 172.595 26.7447C172.216 26.7447 171.917 26.707 171.697 26.6316C171.478 26.5562 171.239 26.3928 170.979 26.1417C170.461 25.589 170.202 24.3576 170.202 22.4482C170.202 21.9206 170.381 21.1164 170.74 20.0361C171.099 18.9558 171.687 17.6492 172.505 16.1165C173.343 14.5839 174.31 13.0512 175.407 11.5185C176.524 9.98589 177.93 8.45321 179.625 6.92056C181.34 5.3879 183.165 4.14418 185.099 3.1894C185.398 3.06376 185.668 3.00096 185.907 3.00096C186.146 3.00096 186.366 3.13914 186.565 3.41553C186.764 3.66678 186.904 3.93059 186.984 4.20699L187.133 4.58387C187.133 5.16177 186.426 6.43061 185.01 8.39041C183.554 10.4256 181.868 12.3728 179.954 14.2321C178.059 16.0663 176.294 17.6366 174.659 18.9432C173.323 20.0488 172.655 21.2045 172.655 22.4105C172.655 23.1893 172.824 23.5788 173.163 23.5788ZM175.855 15.7773C176.354 15.7773 177.86 14.2321 180.373 11.1417C182.905 8.05121 184.172 6.33011 184.172 5.97834L184.142 5.90297L183.633 6.20447C182.596 7.05874 181.21 8.51604 179.475 10.5763C177.76 12.6366 176.573 14.2447 175.915 15.4005C175.836 15.5261 175.796 15.6266 175.796 15.702C175.796 15.7522 175.816 15.7773 175.855 15.7773ZM187.615 24.4834L187.854 22.0713C187.854 21.9959 187.835 21.9582 187.795 21.9582C187.775 21.9582 187.725 22.0086 187.645 22.109C187.386 22.4609 187.057 22.9005 186.658 23.4281C186.259 23.9307 185.571 24.6215 184.594 25.501C183.636 26.3551 182.859 26.7824 182.26 26.7824C182.161 26.7573 182.041 26.707 181.901 26.6316C181.742 26.5813 181.542 26.3805 181.303 26.0286C181.064 25.6767 180.944 25.1744 180.944 24.5211C180.944 23.8677 181.343 22.8754 182.141 21.5437C182.918 20.1869 183.856 18.8678 184.953 17.5864C186.05 16.2799 187.266 15.1492 188.602 14.1944C189.959 13.2396 191.135 12.7623 192.132 12.7623C192.511 12.7874 192.81 13.1266 193.03 13.7799C193.229 13.5286 193.409 13.403 193.568 13.403C193.728 13.403 193.917 13.5537 194.137 13.8552C194.256 13.8803 194.376 13.9683 194.496 14.119C194.615 14.2447 194.675 14.4331 194.675 14.6844C194.675 14.9356 194.536 15.212 194.256 15.5135C193.837 16.1668 193.349 16.908 192.79 17.7371C192.232 18.5663 191.833 19.1693 191.594 19.5462C191.355 19.898 191.105 20.3 190.846 20.7522C190.407 21.531 190.168 22.1593 190.128 22.6366C192.162 21.4056 195.363 18.7547 199.731 14.6844C199.91 14.8602 200 15.0738 200 15.3251C200 15.5763 199.92 15.7899 199.761 15.9658C199.601 16.1417 199.402 16.3552 199.162 16.6065C198.943 16.8577 198.494 17.3477 197.816 18.0763C197.138 18.8051 196.48 19.5085 195.842 20.1869C195.224 20.8403 194.506 21.5814 193.688 22.4105C192.89 23.2146 192.172 23.9054 191.534 24.4834C189.998 25.8652 189.041 26.5562 188.662 26.5562C188.283 26.5562 188.014 26.4055 187.854 26.104C187.695 25.8025 187.615 25.2622 187.615 24.4834ZM184.564 22.9005C184.803 22.9005 185.531 22.2848 186.748 21.0537C187.984 19.8227 189.151 18.5913 190.248 17.3603L191.923 15.5135C192.003 15.413 192.043 15.3502 192.043 15.3251C192.043 15.2748 192.013 15.2497 191.953 15.2497C191.195 15.2497 190.208 15.8025 188.991 16.908C187.775 17.9884 186.718 19.1443 185.82 20.3753C184.943 21.5814 184.504 22.3978 184.504 22.8251C184.504 22.8754 184.524 22.9005 184.564 22.9005Z" fill="currentColor"/>
</svg>
