<svg width="857" height="179" viewBox="0 0 857 179" fill="none" xmlns="http://www.w3.org/2000/svg">
<path d="M144.352 42.928L146.144 43.44C146.741 43.44 147.467 43.0133 148.32 42.16C149.173 41.2213 149.899 40.752 150.496 40.752C151.179 40.752 152.117 41.136 153.312 41.904C154.507 42.5867 155.104 43.2267 155.104 43.824C155.104 45.1893 151.989 49.6693 145.76 57.264C139.531 64.7733 132.704 72.8373 125.28 81.456C117.856 90.0747 111.029 98.7787 104.8 107.568C98.5707 116.272 95.456 122.331 95.456 125.744C95.456 131.547 95.8827 135.984 96.736 139.056L97.12 140.336C97.12 140.933 96.3947 141.232 94.944 141.232C93.4933 141.232 92.3413 141.104 91.488 140.848C90.72 140.677 89.7813 140.251 88.672 139.568C86.624 138.203 85.1733 134.576 84.32 128.688C84.32 125.872 84.576 123.269 85.088 120.88C85.6 118.405 86.7947 115.461 88.672 112.048C90.6347 108.635 92.512 105.563 94.304 102.832C96.1813 100.101 99.424 95.9627 104.032 90.416C110.091 83.1627 116.875 75.3547 124.384 66.992C131.893 58.544 135.989 53.936 136.672 53.168C137.44 52.3147 137.824 51.8027 137.824 51.632C137.824 51.4613 135.392 53.552 130.528 57.904C125.749 62.1707 117.429 69.8507 105.568 80.944C93.792 92.0373 86.496 99.248 83.68 102.576C72.5013 115.376 65.632 123.696 63.072 127.536C62.6453 128.645 61.8773 129.2 60.768 129.2C59.744 129.2 58.8053 128.475 57.952 127.024C56.5013 124.549 55.776 121.435 55.776 117.68C57.4827 111.451 60.8107 103.6 65.76 94.128C70.7093 84.5707 76.2133 75.184 82.272 65.968L88.288 58.16C88.8853 57.2213 89.184 56.624 89.184 56.368L89.056 56.24C88.9707 56.24 85.6853 59.7387 79.2 66.736C72.7147 73.7333 68.8747 77.9147 67.68 79.28L40.288 109.232C29.4507 121.093 21.6427 128.261 16.864 130.736C8.58667 133.467 3.59466 135.003 1.888 135.344C0.949333 135.344 0.48 135.173 0.48 134.832C0.48 134.491 0.906666 133.936 1.76 133.168C14.2187 120.453 22.0267 112.56 25.184 109.488C25.8667 109.061 31.456 103.728 41.952 93.488C52.448 83.1627 63.6693 72.496 75.616 61.488C87.648 50.48 96.1813 43.6107 101.216 40.88C104.544 39.856 107.019 39.344 108.64 39.344C110.347 39.344 111.2 39.8133 111.2 40.752C111.2 41.3493 110.816 42.032 110.048 42.8C97.1627 61.232 89.6107 72.88 87.392 77.744L79.584 92.464C79.328 93.0613 79.2 93.488 79.2 93.744C79.2 94.256 79.2853 94.4267 79.456 94.256C86.1973 88.7947 95.0293 81.1147 105.952 71.216C116.96 61.3173 125.365 54.1493 131.168 49.712C136.971 45.1893 141.365 42.928 144.352 42.928ZM150.239 120.624L151.263 112.432C151.263 112.176 151.178 112.048 151.007 112.048C150.922 112.048 150.708 112.219 150.367 112.56C149.258 113.755 147.85 115.248 146.143 117.04C144.436 118.747 141.492 121.093 137.311 124.08C133.215 126.981 129.887 128.432 127.327 128.432C126.9 128.347 126.388 128.176 125.791 127.92C125.108 127.749 124.255 127.067 123.231 125.872C122.207 124.677 121.695 122.971 121.695 120.752C121.695 118.533 123.402 115.163 126.815 110.64C130.143 106.032 134.154 101.552 138.847 97.2C143.54 92.7627 148.746 88.9227 154.463 85.68C160.266 82.4373 165.3 80.816 169.567 80.816C171.188 80.9013 172.468 82.0533 173.407 84.272C174.26 83.4187 175.028 82.992 175.711 82.992C176.394 82.992 177.204 83.504 178.143 84.528C178.655 84.6133 179.167 84.912 179.679 85.424C180.191 85.8507 180.447 86.4907 180.447 87.344C180.447 88.1973 179.85 89.136 178.655 90.16C176.863 92.3787 174.772 94.896 172.383 97.712C169.994 100.528 168.287 102.576 167.263 103.856C166.239 105.051 165.172 106.416 164.063 107.952C162.186 110.597 161.162 112.731 160.991 114.352C169.695 110.171 183.391 101.168 202.079 87.344C202.847 87.9413 203.231 88.6667 203.231 89.52C203.231 90.3733 202.89 91.0987 202.207 91.696C201.524 92.2933 200.671 93.0187 199.647 93.872C198.708 94.7253 196.788 96.3893 193.887 98.864C190.986 101.339 188.17 103.728 185.439 106.032C182.794 108.251 179.722 110.768 176.223 113.584C172.81 116.315 169.738 118.661 167.007 120.624C160.436 125.317 156.34 127.664 154.719 127.664C153.098 127.664 151.946 127.152 151.263 126.128C150.58 125.104 150.239 123.269 150.239 120.624ZM137.183 115.248C138.207 115.248 141.322 113.157 146.527 108.976C151.818 104.795 156.81 100.613 161.503 96.432L168.671 90.16C169.012 89.8187 169.183 89.6053 169.183 89.52C169.183 89.3493 169.055 89.264 168.799 89.264C165.556 89.264 161.332 91.1413 156.127 94.896C150.922 98.5653 146.399 102.491 142.559 106.672C138.804 110.768 136.927 113.541 136.927 114.992C136.927 115.163 137.012 115.248 137.183 115.248ZM250.162 66.864L256.69 66.736C265.138 66.736 271.282 67.9307 275.122 70.32C276.999 70.9173 277.938 71.6853 277.938 72.624C277.938 73.3067 277.085 73.776 275.378 74.032C273.757 74.288 267.997 74.9707 258.098 76.08C248.285 77.104 241.543 77.7013 237.874 77.872C236.253 77.9573 232.498 80.7733 226.61 86.32C220.807 91.8667 215.261 97.968 209.97 104.624C204.679 111.28 202.034 115.931 202.034 118.576C202.034 119.003 202.247 119.387 202.674 119.728C203.101 119.984 203.613 120.112 204.21 120.112C204.893 120.112 205.917 119.856 207.282 119.344C223.495 109.787 239.239 99.3333 254.514 87.984C255.282 88.5813 255.666 89.3067 255.666 90.16C255.666 91.0133 255.239 91.8667 254.386 92.72C253.533 93.488 252.253 94.64 250.546 96.176C248.925 97.712 245.853 100.485 241.33 104.496C236.807 108.507 232.541 112.091 228.53 115.248C217.778 123.952 210.269 128.987 206.002 130.352C204.466 130.779 202.631 130.992 200.498 130.992C198.45 130.992 196.53 129.925 194.738 127.792C193.031 125.659 192.178 122.757 192.178 119.088C192.178 115.419 194.525 110.128 199.218 103.216C203.997 96.304 210.482 89.2213 218.674 81.968C219.442 81.3707 219.826 80.816 219.826 80.304C219.826 79.792 218.93 79.536 217.138 79.536L209.074 79.792C197.725 79.792 191.879 78.512 191.538 75.952C188.893 75.44 187.57 74.672 187.57 73.648C187.57 73.3067 187.741 73.136 188.082 73.136C188.423 73.0507 188.722 73.008 188.978 73.008C189.234 72.9227 189.661 72.8373 190.258 72.752C190.855 72.6667 195.549 71.984 204.338 70.704C213.213 69.424 223.282 68.3573 234.546 67.504L243.378 55.728C243.89 54.704 245.682 54.192 248.754 54.192C251.826 54.192 253.362 54.832 253.362 56.112C253.362 56.5387 253.021 57.3067 252.338 58.416L249.138 62.896C248.711 64.2613 248.455 65.2853 248.37 65.968C248.37 66.5653 248.967 66.864 250.162 66.864ZM260.335 117.68C260.932 117.68 261.956 117.424 263.407 116.912L269.935 113.328C274.372 110.939 280.474 107.269 288.239 102.32C296.09 97.3707 303.428 92.3787 310.255 87.344C311.023 87.9413 311.407 88.7947 311.407 89.904C311.407 90.5013 311.023 91.1413 310.255 91.824L301.295 99.888C295.322 105.179 288.367 110.811 280.431 116.784C272.495 122.757 266.607 126.384 262.767 127.664L257.775 128.304C251.204 128.304 247.919 124.805 247.919 117.808C247.919 115.077 249.412 111.195 252.399 106.16C255.386 101.04 258.458 96.56 261.615 92.72C264.772 88.7947 267.076 86.4907 268.527 85.808C269.978 85.1253 271.642 84.784 273.519 84.784C274.884 84.784 276.378 85.1253 277.999 85.808C278.511 86.1493 278.767 86.576 278.767 87.088C278.767 87.344 278.468 87.7707 277.871 88.368L274.287 92.208C271.812 94.8533 269.039 98.2667 265.967 102.448C262.98 106.544 260.932 110.085 259.823 113.072C259.14 114.437 258.799 115.547 258.799 116.4C258.799 117.253 259.311 117.68 260.335 117.68ZM277.231 73.648C277.231 74.928 277.871 75.568 279.151 75.568C283.418 75.568 288.794 73.6907 295.279 69.936C299.375 67.632 302.319 64.816 304.111 61.488L304.367 58.544C304.367 56.9227 303.898 55.344 302.959 53.808C302.106 52.272 300.996 51.504 299.631 51.504C298.266 51.504 297.156 52.1013 296.303 53.296L294.895 55.856C293.956 57.5627 292.079 59.8667 289.263 62.768C286.447 65.584 283.162 68.1013 279.407 70.32C277.956 71.7707 277.231 72.88 277.231 73.648ZM320.854 120.624L321.878 112.432C321.878 112.176 321.793 112.048 321.622 112.048C321.537 112.048 321.323 112.219 320.982 112.56C319.873 113.755 318.465 115.248 316.758 117.04C315.051 118.747 312.107 121.093 307.926 124.08C303.83 126.981 300.502 128.432 297.942 128.432C297.515 128.347 297.003 128.176 296.406 127.92C295.723 127.749 294.87 127.067 293.846 125.872C292.822 124.677 292.31 122.971 292.31 120.752C292.31 118.533 294.017 115.163 297.43 110.64C300.758 106.032 304.769 101.552 309.462 97.2C314.155 92.7627 319.361 88.9227 325.078 85.68C330.881 82.4373 335.915 80.816 340.182 80.816C341.803 80.9013 343.083 82.0533 344.022 84.272C344.875 83.4187 345.643 82.992 346.326 82.992C347.009 82.992 347.819 83.504 348.758 84.528C349.27 84.6133 349.782 84.912 350.294 85.424C350.806 85.8507 351.062 86.4907 351.062 87.344C351.062 88.1973 350.465 89.136 349.27 90.16C347.478 92.3787 345.387 94.896 342.998 97.712C340.609 100.528 338.902 102.576 337.878 103.856C336.854 105.051 335.787 106.416 334.678 107.952C332.801 110.597 331.777 112.731 331.606 114.352C340.31 110.171 354.006 101.168 372.694 87.344C373.462 87.9413 373.846 88.6667 373.846 89.52C373.846 90.3733 373.505 91.0987 372.822 91.696C372.139 92.2933 371.286 93.0187 370.262 93.872C369.323 94.7253 367.403 96.3893 364.502 98.864C361.601 101.339 358.785 103.728 356.054 106.032C353.409 108.251 350.337 110.768 346.838 113.584C343.425 116.315 340.353 118.661 337.622 120.624C331.051 125.317 326.955 127.664 325.334 127.664C323.713 127.664 322.561 127.152 321.878 126.128C321.195 125.104 320.854 123.269 320.854 120.624ZM307.798 115.248C308.822 115.248 311.937 113.157 317.142 108.976C322.433 104.795 327.425 100.613 332.118 96.432L339.286 90.16C339.627 89.8187 339.798 89.6053 339.798 89.52C339.798 89.3493 339.67 89.264 339.414 89.264C336.171 89.264 331.947 91.1413 326.742 94.896C321.537 98.5653 317.014 102.491 313.174 106.672C309.419 110.768 307.542 113.541 307.542 114.992C307.542 115.163 307.627 115.248 307.798 115.248ZM377.754 116.656C380.741 116.656 383.471 114.864 385.946 111.28C388.506 107.611 390.298 103.941 391.322 100.272C392.346 96.5173 392.858 93.5307 392.858 91.312C392.858 90.7147 392.389 90.416 391.45 90.416C390.597 90.416 389.573 90.8853 388.378 91.824L371.61 104.752C370.415 105.435 369.05 105.776 367.514 105.776C365.978 105.776 365.21 105.221 365.21 104.112C365.21 103.344 365.295 102.832 365.466 102.576C365.722 102.32 366.362 101.893 367.386 101.296C373.701 96.944 382.319 89.8613 393.242 80.048C394.522 78.3413 395.674 77.488 396.698 77.488C397.722 77.488 399.429 77.8293 401.818 78.512C404.207 79.1093 405.402 79.8347 405.402 80.688C405.402 85.808 404.933 90.4587 403.994 94.64C403.055 98.8213 402.074 102.021 401.05 104.24C400.111 106.373 399.642 107.525 399.642 107.696C399.642 107.867 399.727 107.952 399.898 107.952C400.069 107.952 400.41 107.824 400.922 107.568C407.322 104.325 415.471 99.0347 425.37 91.696L428.442 89.392C429.21 89.9893 429.594 90.7147 429.594 91.568C429.594 92.4213 429.21 93.1893 428.442 93.872C428.271 93.872 426.053 95.664 421.786 99.248C417.605 102.832 412.911 106.757 407.706 111.024C402.586 115.205 397.082 119.045 391.194 122.544C385.306 126.043 380.741 127.792 377.498 127.792C369.477 127.792 365.466 122.971 365.466 113.328C365.466 112.56 365.765 111.877 366.362 111.28C367.045 110.597 367.898 110.256 368.922 110.256C368.922 110.683 369.135 111.365 369.562 112.304C370.074 113.157 370.586 113.883 371.098 114.48C372.634 115.931 374.853 116.656 377.754 116.656ZM509.934 41.648C521.198 41.648 526.83 46.256 526.83 55.472C526.83 57.0933 526.019 60.1653 524.398 64.688C522.777 69.2107 519.747 75.184 515.31 82.608C510.873 89.9467 505.667 96.6453 499.694 102.704C496.281 106.715 494.574 108.891 494.574 109.232C494.574 109.488 494.702 109.616 494.958 109.616C499.395 104.325 505.753 97.4133 514.03 88.88C522.393 80.3467 529.731 73.264 536.046 67.632C542.446 61.9147 549.315 56.752 556.654 52.144C564.078 47.4507 569.838 45.104 573.934 45.104C578.03 45.104 581.315 45.7867 583.79 47.152C586.265 48.5173 587.502 50.5227 587.502 53.168C587.502 54.704 586.99 55.472 585.966 55.472C579.822 55.6427 572.867 57.7333 565.102 61.744C557.337 65.6693 549.87 70.576 542.702 76.464C535.619 82.2667 528.366 88.5813 520.942 95.408C513.603 102.235 507.033 108.549 501.23 114.352C487.662 127.92 478.958 134.704 475.118 134.704C474.521 134.704 473.966 134.576 473.454 134.32C472.942 133.893 472.131 133.296 471.022 132.528C469.913 131.845 469.017 131.248 468.334 130.736C467.651 130.309 467.31 129.797 467.31 129.2C467.31 128.688 467.822 127.877 468.846 126.768C478.745 116.528 487.065 106.032 493.806 95.28C500.291 84.8693 505.881 74.7147 510.574 64.816L513.134 59.312C514.755 55.8987 515.566 53.5947 515.566 52.4C515.566 51.12 515.225 50.48 514.542 50.48C512.579 50.48 508.441 52.2293 502.126 55.728C495.897 59.2267 489.241 63.8347 482.158 69.552C475.161 75.2693 470.382 80.56 467.822 85.424C467.139 86.1067 466.67 86.448 466.414 86.448C466.073 86.448 465.902 86.192 465.902 85.68C465.902 83.0347 467.225 79.28 469.87 74.416C472.515 69.552 475.843 64.688 479.854 59.824C483.865 54.8747 488.601 50.608 494.062 47.024C499.609 43.44 504.899 41.648 509.934 41.648ZM584.693 62.64C585.546 62.64 586.101 62.8107 586.357 63.152C587.552 64.6027 588.149 65.7973 588.149 66.736C588.149 67.5893 587.893 68.3573 587.381 69.04C586.869 69.6373 586.229 70.3627 585.461 71.216C584.778 71.984 583.328 73.0933 581.109 74.544C578.976 75.9093 576.885 76.592 574.837 76.592C573.301 76.336 572.533 75.3973 572.533 73.776C572.533 71.216 574.069 68.7413 577.141 66.352C580.213 63.8773 582.73 62.64 584.693 62.64ZM553.973 113.072C553.29 114.267 552.949 115.333 552.949 116.272C552.949 117.211 553.461 117.68 554.485 117.68C555.082 117.68 556.106 117.424 557.557 116.912C573.514 108.549 589.13 98.6933 604.405 87.344C605.173 87.9413 605.557 88.6667 605.557 89.52C605.557 90.3733 605.13 91.184 604.277 91.952C603.424 92.72 602.186 93.8293 600.565 95.28C599.029 96.7307 596.042 99.3333 591.605 103.088C587.168 106.843 583.029 110.256 579.189 113.328C569.12 121.435 561.696 126.213 556.917 127.664C555.381 128.091 553.717 128.304 551.925 128.304C545.354 128.304 542.069 124.805 542.069 117.808C542.069 115.077 543.562 111.195 546.549 106.16C549.536 101.04 552.608 96.56 555.765 92.72C558.922 88.7947 561.013 86.6187 562.037 86.192C563.573 85.2533 565.237 84.784 567.029 84.784C568.821 84.784 570.528 85.1253 572.149 85.808C572.661 86.064 572.917 86.4053 572.917 86.832C572.917 87.2587 572.49 87.8987 571.637 88.752C570.869 89.6053 569.632 90.928 567.925 92.72C566.304 94.512 563.829 97.6267 560.501 102.064C557.258 106.416 555.082 110.085 553.973 113.072ZM602.332 115.248C603.356 115.248 606.471 113.157 611.676 108.976C616.967 104.795 622.001 100.613 626.78 96.432L633.82 90.16C634.161 89.8187 634.332 89.6053 634.332 89.52C634.332 89.3493 634.204 89.264 633.948 89.264C630.705 89.264 626.481 91.1413 621.276 94.896C616.071 98.5653 611.548 102.491 607.708 106.672C603.953 110.768 602.076 113.541 602.076 114.992C602.076 115.163 602.161 115.248 602.332 115.248ZM624.476 117.168C624.476 117.424 624.732 117.552 625.244 117.552C625.841 117.552 628.359 116.272 632.796 113.712C644.401 107.141 658.055 98.352 673.756 87.344C674.524 87.9413 674.908 88.6667 674.908 89.52C674.908 90.3733 674.481 91.184 673.628 91.952C672.775 92.72 671.537 93.8293 669.916 95.28C668.38 96.7307 665.393 99.3333 660.956 103.088C656.519 106.843 652.38 110.256 648.54 113.328C638.471 121.435 631.047 126.213 626.268 127.664C624.732 128.091 623.068 128.304 621.276 128.304C619.569 128.048 617.991 127.408 616.54 126.384C615.175 125.36 614.492 124.165 614.492 122.8C614.492 121.435 614.791 119.429 615.388 116.784C616.071 114.053 616.412 112.603 616.412 112.432C616.412 112.176 616.327 112.048 616.156 112.048C616.071 112.048 615.857 112.219 615.516 112.56C614.407 113.755 612.999 115.248 611.292 117.04C609.585 118.747 606.641 121.093 602.46 124.08C598.364 126.981 595.036 128.432 592.476 128.432C592.049 128.347 591.537 128.176 590.94 127.92C590.257 127.749 589.404 127.067 588.38 125.872C587.356 124.677 586.844 122.971 586.844 120.752C586.844 118.533 588.508 115.163 591.836 110.64C595.164 106.032 599.217 101.552 603.996 97.2C608.775 92.7627 614.023 88.9227 619.74 85.68C625.457 82.4373 630.449 80.816 634.716 80.816C636.252 80.816 637.532 81.968 638.556 84.272C638.471 83.6747 641.244 79.8347 646.876 72.752C652.508 65.584 659.164 58.416 666.844 51.248C674.609 43.9947 680.625 40.368 684.892 40.368C686.343 40.368 687.068 41.0507 687.068 42.416C687.068 44.5493 685.617 47.4507 682.716 51.12C679.9 54.7893 676.828 58.2027 673.5 61.36C670.257 64.5173 666.033 68.4853 660.828 73.264C648.796 84.1867 639.708 93.488 633.564 101.168C627.505 108.848 624.476 114.181 624.476 117.168ZM703.23 87.344C701.011 87.344 697.257 89.648 691.966 94.256C686.675 98.7787 684.03 101.552 684.03 102.576C684.03 102.747 684.158 102.832 684.414 102.832C686.291 102.832 690.003 100.741 695.55 96.56C701.182 92.3787 703.998 89.52 703.998 87.984C703.998 87.5573 703.742 87.344 703.23 87.344ZM675.966 128.304C669.395 128.304 666.11 124.293 666.11 116.272C666.11 111.237 668.286 105.904 672.638 100.272C677.075 94.5547 682.281 89.904 688.254 86.32C694.227 82.6507 699.518 80.816 704.126 80.816C706.174 80.816 708.051 81.6267 709.758 83.248C711.55 84.8693 712.446 86.448 712.446 87.984C712.446 90.8 710.441 94 706.43 97.584C702.419 101.083 698.195 103.941 693.758 106.16C689.406 108.293 686.505 109.36 685.054 109.36C683.689 109.36 682.665 108.72 681.982 107.44C681.641 107.184 681.171 107.056 680.574 107.056C679.977 107.056 678.995 108.208 677.63 110.512C676.265 112.731 675.582 114.565 675.582 116.016C675.582 117.381 676.094 118.235 677.118 118.576C683.603 118.576 690.643 116.699 698.238 112.944C705.833 109.104 716.329 102.405 729.726 92.848C730.665 92.1653 732.073 91.1413 733.95 89.776C735.913 88.4107 737.065 87.6 737.406 87.344C738.174 87.9413 738.558 88.6667 738.558 89.52C738.558 90.3733 738.174 91.1413 737.406 91.824C733.139 96.0907 727.593 100.869 720.766 106.16C714.025 111.451 706.259 116.485 697.47 121.264C688.681 125.957 681.513 128.304 675.966 128.304ZM741.407 117.552C744.223 117.552 749.77 115.035 758.047 110C766.41 104.965 774.004 99.9307 780.831 94.896L791.199 87.344C791.967 87.9413 792.351 88.6667 792.351 89.52C792.351 90.3733 791.924 91.184 791.071 91.952C790.218 92.72 788.98 93.8293 787.359 95.28C785.823 96.7307 782.836 99.3333 778.399 103.088C773.962 106.843 769.823 110.256 765.983 113.328C755.914 121.435 748.49 126.213 743.711 127.664C742.175 128.091 740.596 128.304 738.975 128.304C737.354 128.304 736.074 128.176 735.135 127.92C734.196 127.664 733.172 127.109 732.063 126.256C729.844 124.379 728.735 120.197 728.735 113.712C728.735 111.92 729.503 109.189 731.039 105.52C732.575 101.851 735.092 97.4133 738.591 92.208C742.175 87.0027 746.314 81.7973 751.007 76.592C755.786 71.3867 761.802 66.1813 769.055 60.976C776.394 55.7707 784.202 51.5467 792.479 48.304C793.759 47.8773 794.911 47.664 795.935 47.664C796.959 47.664 797.898 48.1333 798.751 49.072C799.604 49.9253 800.202 50.8213 800.543 51.76L801.183 53.04C801.183 55.0027 798.154 59.312 792.095 65.968C785.866 72.88 778.655 79.4933 770.463 85.808C762.356 92.0373 754.804 97.3707 747.807 101.808C742.09 105.563 739.231 109.488 739.231 113.584C739.231 116.229 739.956 117.552 741.407 117.552ZM752.927 91.056C755.06 91.056 761.503 85.808 772.255 75.312C783.092 64.816 788.511 58.9707 788.511 57.776L788.383 57.52L786.207 58.544C781.77 61.4453 775.839 66.3947 768.415 73.392C761.076 80.3893 755.999 85.8507 753.183 89.776C752.842 90.2027 752.671 90.544 752.671 90.8C752.671 90.9707 752.756 91.056 752.927 91.056ZM803.244 120.624L804.268 112.432C804.268 112.176 804.183 112.048 804.012 112.048C803.927 112.048 803.713 112.219 803.372 112.56C802.263 113.755 800.855 115.248 799.148 117.04C797.441 118.747 794.497 121.093 790.316 124.08C786.22 126.981 782.892 128.432 780.332 128.432C779.905 128.347 779.393 128.176 778.796 127.92C778.113 127.749 777.26 127.067 776.236 125.872C775.212 124.677 774.7 122.971 774.7 120.752C774.7 118.533 776.407 115.163 779.82 110.64C783.148 106.032 787.159 101.552 791.852 97.2C796.545 92.7627 801.751 88.9227 807.468 85.68C813.271 82.4373 818.305 80.816 822.572 80.816C824.193 80.9013 825.473 82.0533 826.412 84.272C827.265 83.4187 828.033 82.992 828.716 82.992C829.399 82.992 830.209 83.504 831.148 84.528C831.66 84.6133 832.172 84.912 832.684 85.424C833.196 85.8507 833.452 86.4907 833.452 87.344C833.452 88.1973 832.855 89.136 831.66 90.16C829.868 92.3787 827.777 94.896 825.388 97.712C822.999 100.528 821.292 102.576 820.268 103.856C819.244 105.051 818.177 106.416 817.068 107.952C815.191 110.597 814.167 112.731 813.996 114.352C822.7 110.171 836.396 101.168 855.084 87.344C855.852 87.9413 856.236 88.6667 856.236 89.52C856.236 90.3733 855.895 91.0987 855.212 91.696C854.529 92.2933 853.676 93.0187 852.652 93.872C851.713 94.7253 849.793 96.3893 846.892 98.864C843.991 101.339 841.175 103.728 838.444 106.032C835.799 108.251 832.727 110.768 829.228 113.584C825.815 116.315 822.743 118.661 820.012 120.624C813.441 125.317 809.345 127.664 807.724 127.664C806.103 127.664 804.951 127.152 804.268 126.128C803.585 125.104 803.244 123.269 803.244 120.624ZM790.188 115.248C791.212 115.248 794.327 113.157 799.532 108.976C804.823 104.795 809.815 100.613 814.508 96.432L821.676 90.16C822.017 89.8187 822.188 89.6053 822.188 89.52C822.188 89.3493 822.06 89.264 821.804 89.264C818.561 89.264 814.337 91.1413 809.132 94.896C803.927 98.5653 799.404 102.491 795.564 106.672C791.809 110.768 789.932 113.541 789.932 114.992C789.932 115.163 790.017 115.248 790.188 115.248Z" fill="white"/>
</svg>
