<svg viewBox="0 0 826 991" fill="none" xmlns="http://www.w3.org/2000/svg">
<ellipse cx="48.001" cy="285.5" rx="33" ry="16.5" fill="black"/>
<ellipse cx="92.4988" cy="270.417" rx="25.7022" ry="16.5" transform="rotate(35.7995 92.4988 270.417)" fill="black"/>
<ellipse cx="21.001" cy="270.5" rx="13" ry="10.5" fill="black"/>
<ellipse cx="41.001" cy="276.5" rx="33" ry="16.5" fill="black"/>
<ellipse cx="469" cy="528.5" rx="357" ry="461.5" fill="#D4E6FD"/>
<ellipse cx="446.501" cy="77" rx="54.5" ry="58" fill="black"/>
<path d="M482.345 783.756C482.732 783.725 483.119 783.697 483.509 783.662L482.9 774.502L482.345 783.756Z" fill="#A49FCF"/>
<mask id="mask0_39_453" style="mask-type:alpha" maskUnits="userSpaceOnUse" x="111" y="67" width="715" height="924">
<path d="M825.5 528.693C825.5 783.572 665.666 990.193 468.5 990.193C271.334 990.193 111.5 783.572 111.5 528.693C111.5 273.813 271.334 67.1929 468.5 67.1929C665.666 67.1929 825.5 273.813 825.5 528.693Z" fill="#282F3C"/>
</mask>
<g mask="url(#mask0_39_453)">
<path d="M483.486 692.742L483.757 727.774L482 768.107V794.367L488.322 925.026C488.361 925.89 487.88 926.638 487.253 926.704H487.245L494.5 1003.5H576.5L641 970L634.038 779.121L629.688 660C595.116 686.538 538.83 693.732 483.486 692.742Z" fill="#282F3C"/>
<path d="M481.836 794.588L471.113 793.1C470.541 793.023 470.105 792.331 470.105 791.524V707.582C470.105 706.703 470.603 706 471.226 706C471.84 706 472.346 706.703 472.346 707.582V790.085L481.77 791.392V730.546C481.77 729.674 482.272 728.965 482.89 728.965C483.512 728.965 484.014 729.674 484.014 730.546V766.763L485.734 726.253L485.469 691.068C424.627 689.947 364.981 678.479 337.887 672.544L334.846 720.587L329.571 828.911L322.734 969.544L481.77 1014.5L481.804 818.7L482.356 805.694L481.836 794.588Z" fill="#282F3C"/>
</g>
<path d="M475.904 118.744L475.443 110.049C464.369 126.291 450.427 142.053 428.595 140.787C428.583 140.787 428.572 140.783 428.552 140.783L429.232 153.459C456.728 151.998 470.24 132.322 475.904 118.744Z" fill="#7A3922"/>
<path d="M429.963 162.525C434.436 177.068 444.67 184.974 460.389 186.029C461.143 186.076 461.963 186.107 462.823 186.107C473.596 186.107 492.073 181.83 498.366 164.947C498.585 164.361 498.288 163.713 497.702 163.494C497.643 163.474 497.593 163.514 497.534 163.502C497.003 163.4 496.452 163.635 496.257 164.158C489.917 181.15 470.132 184.412 460.538 183.775C445.85 182.798 436.288 175.42 432.124 161.861C431.94 161.267 431.323 160.927 430.718 161.119L430.714 161.123C430.119 161.31 429.787 161.931 429.963 162.525Z" fill="#21263D"/>
<path d="M332.166 524.709C332.775 524.709 333.271 524.229 333.291 523.619L337.557 392.045L338.198 372.506L336.038 369.526L335.378 389.901L333.394 450.932L333.281 454.522L331.043 523.542C331.027 523.917 331.231 524.21 331.504 524.425C331.688 524.566 331.883 524.702 332.133 524.71L332.166 524.709Z" fill="#21263D"/>
<path d="M333.392 450.931L335.376 389.9L336.036 369.525L292.263 309.033C289.544 318.271 288.033 324.041 288.033 324.041C289.642 328.268 291.615 332.486 293.826 336.674C303.732 355.428 319.041 373.533 334.326 388.846C334.123 407.967 333.822 428.955 333.392 450.931Z" fill="#091737"/>
<path d="M636.244 355.357L630.404 236.709C630.404 236.709 630.404 184.971 589.166 169.932L498.451 149.78C498.974 155.159 498.529 159.639 497.533 163.503C497.592 163.515 497.642 163.476 497.701 163.495C498.287 163.714 498.584 164.362 498.365 164.948C492.072 181.831 473.595 186.108 462.822 186.108C461.963 186.108 461.142 186.077 460.388 186.03C444.669 184.975 434.435 177.069 429.962 162.526C429.786 161.932 430.118 161.311 430.712 161.124C429.341 156.71 429.232 153.46 429.232 153.46L356.47 177.96C356.47 177.96 353.646 177.897 350.493 182.612C336.43 195.592 323.188 222.507 312.544 249.448L414.798 329.214L426.423 313.96L480.411 377.081C480.235 376.667 480.243 376.194 480.591 375.862C481.044 375.44 481.759 375.46 482.189 375.909C490.123 384.292 494.916 390.729 499.545 396.944C503.826 402.69 507.877 408.124 514.182 414.917C516.729 412.323 520.221 408.413 524.428 403.479C535.178 390.854 550.815 371.151 568.776 347.065C575.026 338.678 581.546 329.795 588.249 320.475C588.616 319.967 589.319 319.854 589.823 320.221C589.839 320.229 589.839 320.248 589.85 320.26C590.323 320.627 590.432 321.295 590.081 321.795C555.69 369.619 525.71 406.717 514.944 417.338L514.155 417.666H514.132L513.335 417.311C506.479 410.022 502.233 404.323 497.741 398.295C495.6 395.42 493.405 392.486 490.897 389.346C488.577 386.44 485.967 383.346 482.842 379.928L490.037 388.342C480.06 397.701 467.588 407.838 453.857 415.74C430.388 435.346 407.529 432.607 389.224 423.263C365.693 411.247 349.697 388.404 349.697 388.404L338.197 372.506L337.556 392.045L333.29 523.619C333.27 524.228 332.774 524.709 332.165 524.709H332.13C331.88 524.701 331.685 524.565 331.501 524.424C329.692 579.709 326.903 634.893 322.587 677.26C322.587 677.26 328.15 678.264 337.806 679.764C365.017 683.987 424.919 692.147 486.025 692.944C540.435 693.651 595.771 688.51 629.759 669.546C633.775 667.308 637.501 664.886 640.88 662.249L636.244 355.357ZM510.92 206.267C493.432 222.642 473.221 244.099 453.678 264.849C441.315 277.978 429.631 290.372 419.115 300.997L418.31 301.333L417.517 301.009L417.509 299.415C426.505 290.329 436.396 279.892 446.802 268.852C447.544 268.059 448.29 267.27 449.044 266.473C450.044 265.41 451.021 264.375 452.032 263.301C471.602 242.528 491.841 221.047 509.38 204.617C509.79 204.242 510.38 204.269 510.802 204.597C510.857 204.636 510.931 204.62 510.974 204.671C511.396 205.127 511.373 205.838 510.92 206.267Z" fill="#091737"/>
<path d="M417.51 299.416L417.518 301.01L418.311 301.334L419.116 300.998C429.632 290.373 441.315 277.978 453.679 264.85C473.222 244.1 493.433 222.643 510.921 206.268C511.374 205.838 511.398 205.127 510.976 204.674C510.933 204.623 510.859 204.639 510.804 204.6C510.382 204.272 509.792 204.245 509.382 204.62C491.843 221.05 471.605 242.53 452.034 263.304C451.022 264.378 450.046 265.413 449.046 266.476C448.292 267.273 447.546 268.062 446.804 268.855C436.396 279.892 426.506 290.33 417.51 299.416Z" fill="#282F3C"/>
<path d="M588.248 320.474C581.545 329.794 575.025 338.677 568.775 347.064C550.814 371.15 535.177 390.853 524.427 403.478C520.22 408.412 516.728 412.322 514.181 414.916C507.876 408.123 503.826 402.689 499.544 396.943C494.915 390.728 490.122 384.291 482.188 375.908C481.758 375.459 481.044 375.439 480.59 375.861C480.242 376.193 480.235 376.666 480.41 377.08C480.457 377.209 480.449 377.353 480.551 377.455C481.356 378.303 482.102 379.119 482.84 379.928C485.965 383.346 488.574 386.44 490.895 389.346C493.403 392.487 495.598 395.42 497.739 398.295C502.231 404.322 506.477 410.022 513.333 417.311L514.13 417.666H514.153L514.942 417.338C525.708 406.717 555.688 369.619 590.079 321.795C590.431 321.295 590.321 320.627 589.848 320.26C589.836 320.248 589.836 320.229 589.821 320.221C589.318 319.853 588.615 319.967 588.248 320.474Z" fill="#282F3C"/>
<path d="M167.553 205.205C168.44 205.248 169.295 205.287 170.104 205.338C174.702 205.619 177.815 205.772 181.334 205.772C184.713 205.772 188.475 205.627 194.279 205.323C194.904 205.288 195.381 204.76 195.353 204.139C195.314 203.518 194.755 203.002 194.162 203.073C182.408 203.69 179.139 203.632 170.236 203.093C169.423 203.038 168.552 202.999 167.65 202.956C162.099 202.702 155.197 202.378 151.298 199.233C150.86 198.878 150.259 198.956 149.86 199.315C149.817 199.358 149.747 199.35 149.708 199.397C149.481 199.678 149.458 200.022 149.536 200.346C149.591 200.584 149.677 200.819 149.88 200.983C154.349 204.595 161.666 204.935 167.553 205.205Z" fill="black"/>
<path d="M174.142 216.361L175.197 216.463C181.01 217.014 186.592 217.545 191.779 217.545C194.064 217.545 196.267 217.443 198.381 217.193C198.998 217.123 199.444 216.56 199.365 215.943C199.295 215.33 198.736 214.857 198.115 214.959C191.439 215.732 183.65 215.002 175.404 214.217L174.357 214.119C165.544 213.283 160.834 212.244 155.377 211.045C153.842 210.709 152.248 210.357 150.475 209.994C149.959 209.881 149.51 210.197 149.295 210.658C149.256 210.74 149.17 210.783 149.15 210.877C149.017 211.479 149.412 212.08 150.021 212.201C150.529 212.306 150.947 212.4 151.431 212.502C152.619 212.756 153.806 213.014 154.892 213.248C160.42 214.463 165.193 215.513 174.142 216.361Z" fill="black"/>
<path d="M192.662 228.896H192.744C193.33 228.896 193.826 228.451 193.869 227.853C193.916 227.232 193.447 226.693 192.83 226.646C172.967 225.189 170.799 224.931 159.748 222.779C159.264 222.67 158.861 222.959 158.627 223.361C158.564 223.47 158.451 223.537 158.428 223.666C158.315 224.279 158.705 224.869 159.319 224.986C160.581 225.232 161.717 225.451 162.792 225.654C171.162 227.224 175.127 227.607 192.662 228.896Z" fill="black"/>
<path d="M508.135 31.4897C509.877 17.9897 510.135 15.9897 508.135 31.4897C507.533 29.9267 491.038 2.14987 476.076 2.14987C466.911 2.14987 471.423 3.70087 464.076 2.14987C458.935 1.06387 460.076 2.48975 451.576 2.14979C447.838 -1.33421 424.747 -0.0252056 422.076 2.14979C422.076 4.64979 426.076 2.14987 415.576 2.14987C411.307 -1.16313 406.731 3.83779 400.575 4.64979C393.86 5.54079 394.575 -0.877214 394.575 4.64979C394.571 9.17679 388.71 6.66578 385.753 10.6498C382.226 15.4118 382.229 13.2398 377.635 17.6498C365.651 29.1498 379.117 62.2777 385.753 72.8247C385.73 72.6487 385.698 72.4727 385.671 72.2977C385.148 68.6767 384.511 65.1217 383.96 61.6807C382.937 55.2667 382.296 49.2787 383.483 44.0757C384.842 38.1377 388.573 33.2168 396.967 29.8878C405.823 26.3798 409.03 33.4268 418.076 29.8878C421.771 28.4468 427.982 29.1187 431.576 28.4897C432.877 32.1417 439.928 27.3138 444.232 30.0948C449.966 33.7858 456.17 32.6968 458.38 37.6808C461.318 44.3058 457.72 47.8327 458.95 55.9577C462.286 78.1417 467.118 76.0127 466.911 77.7077C466.915 77.6607 466.923 77.6177 466.934 77.5707C464.575 66.9187 469.184 56.3637 478.309 52.9457C488.45 49.1407 500.243 55.6057 504.657 67.3797C509.063 79.1527 504.427 91.7817 494.282 95.5827C491.708 96.5437 489.036 96.8367 486.399 96.5627C488.411 103.278 494.524 107.715 496.567 113.895C496.606 114.012 496.672 114.118 496.708 114.235C501.224 106.52 504.567 95.5047 506.595 83.1407C510.193 61.2007 513.897 51.2787 508.135 31.4897Z" fill="black"/>
<path d="M446.223 51.2237C444.469 50.1607 441.871 50.4577 439.934 50.5597C435.004 50.8097 427.571 51.1927 423.52 54.0517C419.321 57.0047 422.868 59.6497 426.657 59.2507C430.251 58.8797 433.684 58.1727 437.395 58.0317C440.926 57.8947 445.336 57.8287 448.43 55.5827C449.774 54.6067 446.93 51.6417 446.223 51.2237Z" fill="black"/>
<path d="M408.622 56.6347C406.79 55.8847 404.517 56.5717 402.794 56.9707C398.396 57.9747 391.782 59.5017 388.782 62.8807C385.677 66.3767 389.493 68.3577 392.817 67.3927C395.973 66.4787 398.907 65.2637 402.227 64.5487C405.391 63.8687 409.348 63.1267 411.625 60.4787C412.61 59.3447 409.352 56.9277 408.622 56.6347Z" fill="black"/>
<path d="M483.602 729.356C482.98 729.356 482.475 730.06 482.475 730.927V791.369L472.989 790.071V708.114C472.989 707.242 472.48 706.544 471.861 706.544C471.235 706.544 470.734 707.242 470.734 708.114V791.5C470.734 792.302 471.173 792.988 471.748 793.065L482.541 794.544L482.475 793.213C482.432 792.346 482.906 791.594 483.532 791.545C484.136 791.479 484.687 792.134 484.726 793.007L484.734 793.104V766.905V730.928C484.734 730.06 484.229 729.356 483.602 729.356Z" fill="#030712"/>
<path d="M490.731 923.865L484.131 793.112L484.122 793.014C484.081 792.139 483.496 791.482 482.857 791.548C482.193 791.597 481.691 792.352 481.737 793.222L481.807 794.556L482.362 805.621L483.009 818.448L488.34 924.066C488.381 924.909 488.908 925.544 489.535 925.544H489.605H489.613C490.271 925.479 490.773 924.729 490.731 923.865Z" fill="#030712"/>
<path d="M428.595 140.787C450.427 142.053 464.369 126.291 475.443 110.049L475.904 118.744C470.24 132.322 456.728 151.998 429.232 153.459C429.232 153.459 429.341 156.709 430.712 161.123L430.716 161.119C431.322 160.928 431.939 161.267 432.122 161.861C436.286 175.42 445.849 182.799 460.536 183.775C470.13 184.412 489.915 181.15 496.255 164.158C496.45 163.635 497.001 163.4 497.532 163.502C498.528 159.639 498.973 155.158 498.45 149.779L496.567 114.236C494.524 108.056 488.411 103.619 486.399 96.904C489.036 97.177 491.708 96.884 494.282 95.924C504.427 92.123 509.063 79.494 504.657 67.721C500.243 55.948 488.45 49.483 478.309 53.287C469.184 56.705 464.575 67.26 466.934 77.912C466.922 77.959 466.914 78.002 466.911 78.049C467.118 76.354 462.286 78.483 458.95 56.299C457.719 48.174 461.317 44.647 458.38 38.022C456.169 33.038 449.966 34.127 444.232 30.436C439.927 27.655 438.537 27.99 435.174 27.99C430.503 26.2364 422.073 28.788 418.378 30.229C409.331 33.768 405.822 26.721 396.967 30.229C388.573 33.557 384.842 38.479 383.483 44.417C382.975 49.839 383.202 55.757 383.96 62.022C384.511 65.463 385.148 69.018 385.671 72.639C386.597 77.334 387.729 82.162 389.042 87.092C390.3 91.838 391.69 96.6549 393.187 101.526C398.023 117.229 408.687 139.573 428.554 140.784C428.572 140.783 428.584 140.787 428.595 140.787ZM490.81 79.205C490.064 79.49 489.247 79.603 488.427 79.603C486.322 79.603 484.169 78.833 483.021 78.154C480.97 76.939 478.673 73.845 478.642 71.334C478.634 70.713 479.13 70.201 479.759 70.193C480.329 70.213 480.888 70.681 480.9 71.306C480.908 72.607 482.091 74.415 483.314 75.529C483.966 72.103 486.412 68.689 489.798 68.545C490.423 68.576 490.943 69.002 490.974 69.619C490.997 70.244 490.509 70.771 489.892 70.799C487.513 70.897 485.619 74.018 485.404 76.756C485.404 76.764 485.396 76.772 485.396 76.779C486.794 77.287 488.665 77.611 490.013 77.099C490.599 76.884 491.247 77.169 491.466 77.751C491.685 78.338 491.389 78.982 490.81 79.205ZM477.572 64.002C484.095 57.412 491.095 59.225 495.095 62.772C500.466 67.526 502.615 76.733 496.927 83.92L496.044 84.342L495.345 84.1C494.857 83.717 494.771 83.002 495.157 82.518C500.02 76.377 498.18 68.514 493.602 64.459C490.172 61.42 484.583 60.119 479.169 65.592L477.571 65.596L477.572 64.002ZM445.107 69.189C444.72 69.669 444.013 69.752 443.525 69.357C442.181 68.271 440.365 67.787 438.537 67.728C439.725 68.232 440.861 69.392 441.478 71.048C442.443 73.638 441.818 76.259 440.08 76.911C438.338 77.563 436.142 75.997 435.174 73.403C434.303 71.098 434.772 68.84 436.1 67.899C434.475 68.208 433.006 68.848 432.077 69.758L431.288 70.082L430.487 69.746L430.503 68.152C433.593 65.113 440.722 64.191 444.944 67.601C445.424 67.998 445.498 68.705 445.107 69.189ZM423.521 54.053C427.572 51.194 435.005 50.811 439.935 50.561C441.873 50.459 444.47 50.163 446.224 51.225C446.931 51.643 449.775 54.608 448.431 55.584C445.337 57.83 440.927 57.897 437.396 58.033C433.685 58.174 430.251 58.881 426.658 59.252C422.869 59.65 419.322 57.006 423.521 54.053ZM392.818 67.392C389.494 68.357 385.677 66.376 388.783 62.88C391.783 59.501 398.396 57.974 402.795 56.97C404.518 56.572 406.791 55.884 408.623 56.634C409.353 56.927 412.611 59.345 411.627 60.478C409.35 63.126 405.393 63.869 402.229 64.548C398.908 65.263 395.974 66.478 392.818 67.392ZM404.533 82.318C402.795 82.97 400.592 81.4 399.623 78.814C398.654 76.224 399.283 73.599 401.021 72.947C402.755 72.299 404.959 73.865 405.927 76.451C406.896 79.041 406.267 81.67 404.533 82.318ZM408.537 75.131L407.607 74.654C406.603 73.216 405.283 72.388 403.681 72.193C402.013 71.994 400.494 72.548 399.99 72.99C399.517 73.4 398.81 73.353 398.396 72.885C397.986 72.416 398.029 71.705 398.505 71.295C399.501 70.424 401.693 69.674 403.954 69.955C405.509 70.146 407.727 70.893 409.458 73.357C409.813 73.869 409.688 74.568 409.177 74.923L408.537 75.131ZM409.514 91.826C409.291 91.174 409.123 89.888 410.455 88.646C411.107 88.033 412.076 87.447 413.096 86.83C414.584 85.928 416.838 84.564 416.784 83.564C416.686 81.396 415.706 77.58 413.3 73.962C412.952 73.442 413.097 72.743 413.613 72.399C414.129 72.055 414.832 72.192 415.179 72.712C417.839 76.712 418.913 80.884 419.034 83.45C419.151 85.794 416.554 87.368 414.261 88.755C413.343 89.314 412.472 89.837 411.995 90.29C411.526 90.731 411.604 90.981 411.647 91.114C412.041 92.294 414.999 93.884 418.62 94.27C419.237 94.34 419.682 94.895 419.62 95.512C419.557 96.094 419.069 96.516 418.499 96.516L418.378 96.512C414.611 96.103 410.357 94.365 409.514 91.826ZM415.607 105.545C414.998 105.545 414.498 105.061 414.482 104.447C414.466 103.826 414.955 103.31 415.58 103.291C421.025 103.15 425.744 101.139 428.193 97.9C428.568 97.404 429.275 97.3059 429.775 97.6809C430.263 98.0559 430.365 98.7629 429.99 99.2589C427.127 103.036 421.767 105.384 415.638 105.544L415.607 105.545Z" fill="#DB9A59"/>
<path d="M326.416 454.628C329.537 454.44 331.932 454.132 333.279 453.925L333.392 450.335C333.822 428.358 334.122 407.37 334.326 388.249C319.041 372.936 303.732 354.831 293.826 336.077L280.861 371.222L96.9938 254.644L95.4668 256.191L89.6618 250.105L82.6778 243.945L65.7168 229C58.6428 235.141 66.5218 246.379 70.1348 250.82C70.6188 250.457 71.3028 250.531 71.6858 251.011C73.5608 253.366 74.7878 256.054 75.9708 258.648C77.1158 261.152 78.1938 263.515 79.7678 265.441C83.1548 269.578 91.1978 271.75 93.8458 272.468C94.4438 272.628 94.7988 273.245 94.6388 273.851C94.5018 274.351 94.0408 274.683 93.5488 274.683L93.2518 274.644C90.4358 273.878 81.8648 271.562 78.0218 266.863C76.2678 264.718 75.0808 262.109 73.9198 259.586C72.8848 257.32 71.7718 255.02 70.2868 252.992C46.1538 257.476 25.6968 258.937 25.6968 258.937C11.8808 259.82 5.61879 261.574 5.61879 261.574C5.61879 261.574 0.329784 264.019 4.16578 267.476C4.53678 267.074 5.12279 266.937 5.59179 267.249C9.76379 269.999 16.6658 269.655 22.2088 269.366C23.1148 269.323 23.9898 269.28 24.8108 269.245C33.7408 268.921 37.0018 268.659 48.6268 266.901C49.2288 266.811 49.8148 267.233 49.8998 267.846C49.9978 268.459 49.5758 269.034 48.9618 269.127C37.2278 270.904 33.9268 271.17 24.8918 271.502C24.0788 271.529 23.2158 271.572 22.3218 271.619C20.5018 271.709 18.5488 271.81 16.5758 271.81C12.1658 271.81 7.66178 271.31 4.34878 269.126C4.13378 268.985 4.02079 268.759 3.94279 268.532C-3.68221 271.274 2.10278 277.473 2.10278 277.473C2.52078 277.946 3.46979 278.391 4.69279 278.817C4.86479 278.34 5.26679 277.985 5.81379 278.044C7.60279 278.228 9.21978 278.423 10.7668 278.607C16.3218 279.275 21.1688 279.806 29.9858 279.822H31.0018C39.2988 279.802 47.1348 279.783 53.7128 278.345C54.3148 278.208 54.9198 278.599 55.0528 279.208C55.1818 279.81 54.7988 280.415 54.1938 280.548C47.3778 282.032 39.4278 282.052 31.0068 282.071L29.9908 282.075H29.4478C20.7958 282.075 16.0218 281.505 10.5068 280.848C9.40879 280.715 8.20579 280.582 7.01079 280.446C5.11279 282.344 6.42878 283.751 6.42878 283.751C8.20179 286.685 11.4088 288.88 15.2338 290.556C15.4288 290.138 15.7998 289.829 16.2848 289.861C27.5118 290.935 29.6868 290.978 49.5818 290.498C50.2728 290.424 50.7228 290.971 50.7418 291.6C50.7578 292.217 50.2648 292.733 49.6398 292.748C42.0188 292.932 36.9638 293.041 32.9758 293.041C27.7808 293.041 24.3938 292.853 19.5778 292.432C8.77279 294.311 37.7968 302.428 37.7968 302.428C49.4808 304.846 69.9378 302.627 77.0978 301.729C78.7228 301.522 79.6718 301.385 79.6718 301.385L98.6448 297.291L221.45 436.221C221.447 436.222 277.685 501.863 326.416 454.628Z" fill="#DB9A59"/>
<path d="M149.117 210.652C149.332 210.191 149.781 209.875 150.297 209.988C152.07 210.351 153.664 210.703 155.199 211.039C160.656 212.238 165.367 213.277 174.179 214.113L175.226 214.211C183.472 214.996 191.261 215.727 197.937 214.953C198.558 214.851 199.117 215.324 199.187 215.937C199.265 216.554 198.82 217.117 198.203 217.187C196.09 217.437 193.887 217.539 191.601 217.539C186.413 217.539 180.831 217.008 175.019 216.457L173.964 216.355C165.015 215.507 160.241 214.457 154.714 213.242C153.628 213.008 152.441 212.75 151.253 212.496C149.175 214.203 150.351 215.73 150.351 215.73C151.828 218.824 154.808 221.32 158.449 223.355C158.683 222.953 159.086 222.664 159.57 222.773C170.621 224.925 172.789 225.183 192.652 226.64C193.269 226.687 193.738 227.226 193.691 227.847C193.648 228.445 193.152 228.89 192.566 228.89H192.484C174.949 227.601 170.984 227.218 162.613 225.648C151.636 226.457 179.758 237.367 179.758 237.367C193.719 241.719 221.527 240.406 221.527 240.406L240.812 238.176L292.085 309.028L335.858 369.52L338.018 372.5L349.518 388.398C349.518 388.398 365.514 411.242 389.045 423.257C407.35 432.601 430.209 435.339 453.678 415.734C467.408 407.832 479.881 397.695 489.858 388.336L482.663 379.922C481.925 379.113 481.179 378.297 480.374 377.449C480.272 377.347 480.28 377.203 480.233 377.074L426.245 313.953L414.62 329.207L312.366 249.441L243.319 195.578L241.651 196.961L236.463 190.336L214.682 167C205.03 173.863 218.397 191.203 218.397 191.203C193.284 193.473 171.944 192.906 171.944 192.906C158.108 192.445 151.706 193.578 151.706 193.578C151.706 193.578 146.194 195.5 149.683 199.308C150.081 198.949 150.683 198.87 151.121 199.226C155.019 202.371 161.922 202.695 167.473 202.949C168.375 202.992 169.246 203.031 170.059 203.086C178.961 203.625 182.231 203.684 193.985 203.066C194.579 202.996 195.137 203.511 195.176 204.132C195.203 204.753 194.727 205.28 194.102 205.316C188.297 205.621 184.536 205.765 181.157 205.765C177.637 205.765 174.524 205.613 169.927 205.331C169.118 205.28 168.263 205.241 167.376 205.198C161.489 204.928 154.173 204.589 149.704 200.975C149.501 200.811 149.415 200.577 149.36 200.338C141.508 202.326 146.661 209.057 146.661 209.057C147.035 209.574 147.933 210.109 149.117 210.652Z" fill="#DB9A59"/>
</svg>
