<svg viewBox="0 0 409 336" preserveAspectRatio="xMidYMid meet" fill="none" xmlns="http://www.w3.org/2000/svg">
<path d="M408.03 167.502C406.391 184.164 402.311 200.554 396.303 216.148C391.834 227.751 386.304 238.918 379.924 249.418C378.456 251.829 376.941 254.211 375.384 256.558C372.961 260.208 370.432 263.769 367.808 267.223C361.222 275.919 354.047 283.973 346.436 291.231C339.62 297.728 332.463 303.577 325.064 308.671C320.884 311.548 322.9 318.087 327.977 318.087H330.318C330.631 318.087 330.937 318.105 331.238 318.14C335.719 318.612 339.18 322.503 338.961 327.161C338.743 331.813 334.734 335.397 330.07 335.397H84.1014C79.1784 335.397 75.2224 331.294 75.4524 326.323C75.5644 324 76.6254 321.937 78.2354 320.463C79.8454 318.983 82.0144 318.087 84.3434 318.087C89.2724 318.087 91.3944 311.843 87.4914 308.836C71.0474 296.154 43.5614 270.148 28.0854 229.012C20.4684 208.772 15.7574 184.87 16.6944 157.089C20.4854 45.0701 127.2 -16.3289 251.602 4.89612C376.004 26.1211 415.423 92.4901 408.03 167.502Z" fill="url(#paint0_linear_62_220)"/>
<path opacity="0.08" d="M346.437 291.232C340.972 301.538 335.636 310.794 331.238 318.141C324.876 328.771 320.478 335.398 320.478 335.398H84.1019C79.1789 335.398 75.2229 331.295 75.4529 326.324C75.5649 324.001 76.6259 321.938 78.2359 320.464C79.8459 318.984 82.0149 318.088 84.3439 318.088C89.2729 318.088 91.3949 311.844 87.4919 308.837C85.1629 307.039 82.6159 304.981 79.9099 302.64C74.7329 298.177 68.9849 292.711 63.1189 286.208C58.9509 281.586 54.7229 276.444 50.6079 270.761H50.6019C42.1709 259.129 34.1939 245.25 28.0859 229.013C46.6759 247.703 73.9729 267.153 108.423 269.447C176.644 273.998 304.56 147.226 360.275 169.389C395.761 183.51 369.896 247.002 346.437 291.232Z" fill="white"/>
<path opacity="0.25" d="M95.6295 239.746H117.23V231.66H95.6295V239.746Z" fill="#0466C8"/>
<path opacity="0.25" d="M71.4264 239.746H93.0273V231.66H71.4264V239.746Z" fill="#0466C8"/>
<path opacity="0.25" d="M83.5279 251.13H105.129V243.044H83.5279V251.13Z" fill="white"/>
<path opacity="0.25" d="M59.3248 251.13H80.9258V243.044H59.3248V251.13Z" fill="white"/>
<path opacity="0.25" d="M265.613 30.915H244.012V39.001H265.613V30.915Z" fill="#0466C8"/>
<path opacity="0.25" d="M289.816 30.915H268.215V39.001H289.816V30.915Z" fill="#0466C8"/>
<path opacity="0.25" d="M277.713 42.2981H256.112V50.3841H277.713V42.2981Z" fill="white"/>
<path opacity="0.25" d="M301.917 42.2981H280.316V50.3841H301.917V42.2981Z" fill="white"/>
<path d="M117.073 141.363C127.743 166.115 113.893 195.88 86.1391 207.844C58.3841 219.808 27.2351 209.442 16.5651 184.69C5.89506 159.938 19.7451 130.173 47.4991 118.209C75.2531 106.245 106.403 116.611 117.073 141.363Z" fill="url(#paint1_radial_62_220)"/>
<path d="M92.2185 106.706V172.639C92.2185 175.021 90.2845 176.955 87.9025 176.955H4.32953C1.94753 176.955 0.0195312 175.021 0.0195312 172.639V106.706C0.0195312 104.33 1.94753 102.396 4.32953 102.396H87.9025C90.2855 102.396 92.2185 104.33 92.2185 106.706Z" fill="url(#paint2_linear_62_220)"/>
<path d="M39.0084 113.81H7.91544C7.00844 113.81 6.27344 113.075 6.27344 112.168C6.27344 111.261 7.00844 110.526 7.91544 110.526H39.0084C39.9154 110.526 40.6504 111.261 40.6504 112.168C40.6504 113.075 39.9154 113.81 39.0084 113.81Z" fill="#002A66"/>
<path d="M39.0084 124.928H7.91544C7.00844 124.928 6.27344 124.193 6.27344 123.286C6.27344 122.379 7.00844 121.644 7.91544 121.644H39.0084C39.9154 121.644 40.6504 122.379 40.6504 123.286C40.6504 124.193 39.9154 124.928 39.0084 124.928Z" fill="#EEF8FF"/>
<path d="M49.4174 136.046H7.91544C7.00844 136.046 6.27344 135.311 6.27344 134.404C6.27344 133.497 7.00844 132.762 7.91544 132.762H49.4174C50.3244 132.762 51.0594 133.497 51.0594 134.404C51.0594 135.311 50.3244 136.046 49.4174 136.046Z" fill="#002A66"/>
<path d="M49.4174 167.19H7.91544C7.00844 167.19 6.27344 166.455 6.27344 165.548C6.27344 164.641 7.00844 163.906 7.91544 163.906H49.4174C50.3244 163.906 51.0594 164.641 51.0594 165.548C51.0594 166.454 50.3244 167.19 49.4174 167.19Z" fill="#002A66"/>
<path d="M79.6132 167.19H58.6772C57.7702 167.19 57.0352 166.455 57.0352 165.548C57.0352 164.641 57.7702 163.906 58.6772 163.906H79.6132C80.5202 163.906 81.2552 164.641 81.2552 165.548C81.2562 166.454 80.5202 167.19 79.6132 167.19Z" fill="#EEF8FF"/>
<path d="M30.0205 143.544V148.276C30.0205 148.655 30.3275 148.962 30.7065 148.962H33.3255C33.7045 148.962 34.0115 148.655 34.0115 148.276V143.544C34.0115 143.165 34.3185 142.858 34.6975 142.858H34.9505C35.3295 142.858 35.6365 143.165 35.6365 143.544V156.407C35.6365 156.786 35.3295 157.093 34.9505 157.093H34.6975C34.3185 157.093 34.0115 156.786 34.0115 156.407V151.126C34.0115 150.747 33.7045 150.44 33.3255 150.44H30.7065C30.3275 150.44 30.0205 150.747 30.0205 151.126V156.407C30.0205 156.786 29.7135 157.093 29.3345 157.093H29.0805C28.7015 157.093 28.3945 156.786 28.3945 156.407V143.544C28.3945 143.165 28.7015 142.858 29.0805 142.858H29.3345C29.7125 142.858 30.0205 143.165 30.0205 143.544Z" fill="white"/>
<path d="M39.1512 144.315H37.9262C37.5472 144.315 37.2402 144.008 37.2402 143.629V143.544C37.2402 143.165 37.5472 142.858 37.9262 142.858H43.3752C43.7542 142.858 44.0612 143.165 44.0612 143.544V143.629C44.0612 144.008 43.7542 144.315 43.3752 144.315H42.1502C41.7712 144.315 41.4642 144.622 41.4642 145.001V156.406C41.4642 156.785 41.1572 157.092 40.7782 157.092H40.5242C40.1452 157.092 39.8382 156.785 39.8382 156.406V145.001C39.8372 144.623 39.5302 144.315 39.1512 144.315Z" fill="white"/>
<path d="M54.177 150.968C54.071 149.088 53.965 146.997 54.029 145.392H53.945C53.627 146.976 53.248 148.665 52.804 150.334L51.051 157.008H50.016L48.348 150.608C47.883 148.792 47.462 147.039 47.187 145.392H47.124C47.124 147.06 47.039 149.046 46.955 151.074L46.71 156.438C46.693 156.805 46.391 157.093 46.024 157.093H45.95C45.555 157.093 45.241 156.76 45.265 156.366L46.028 143.503C46.049 143.14 46.35 142.857 46.713 142.857H47.287C47.6 142.857 47.874 143.069 47.952 143.373L49.489 149.363C49.975 151.243 50.334 152.636 50.629 154.263H50.692C50.967 152.636 51.283 151.285 51.748 149.363L53.224 143.38C53.3 143.073 53.575 142.858 53.89 142.858H54.521C54.885 142.858 55.185 143.142 55.206 143.505L55.95 156.368C55.973 156.762 55.66 157.094 55.265 157.094H55.125C54.759 157.094 54.457 156.807 54.44 156.441L54.177 150.968Z" fill="white"/>
<path d="M58.893 142.858H59.147C59.526 142.858 59.833 143.165 59.833 143.544V155.034C59.833 155.413 60.14 155.72 60.519 155.72H63.159C63.538 155.72 63.845 156.027 63.845 156.406C63.845 156.785 63.538 157.092 63.159 157.092H58.893C58.514 157.092 58.207 156.785 58.207 156.406V143.543C58.206 143.165 58.514 142.858 58.893 142.858Z" fill="white"/>
<path d="M79.4273 174.361C84.2951 174.361 88.2413 170.415 88.2413 165.547C88.2413 160.679 84.2951 156.733 79.4273 156.733C74.5594 156.733 70.6133 160.679 70.6133 165.547C70.6133 170.415 74.5594 174.361 79.4273 174.361Z" fill="url(#paint3_radial_62_220)"/>
<path opacity="0.25" d="M92.2179 106.706V135.826H45.0279C43.0349 135.826 41.4199 134.21 41.4199 132.218V102.397H87.9029C90.2849 102.396 92.2179 104.33 92.2179 106.706Z" fill="black"/>
<path d="M208.982 29.911H47.5215V26.374C47.5215 24.699 48.8795 23.342 50.5535 23.342H205.95C207.625 23.342 208.982 24.699 208.982 26.374V29.911Z" fill="url(#paint4_linear_62_220)"/>
<path opacity="0.86" d="M205.379 129.724H51.1245C49.1345 129.724 47.5215 128.111 47.5215 126.121V29.9111H208.982V126.121C208.982 128.11 207.369 129.724 205.379 129.724Z" fill="#A2A5AA"/>
<path d="M202.04 26.6261C202.04 27.2561 201.529 27.7671 200.899 27.7671C200.269 27.7671 199.758 27.2561 199.758 26.6261C199.758 25.9961 200.269 25.4851 200.899 25.4851C201.529 25.4841 202.04 25.9951 202.04 26.6261Z" fill="#EEF8FF"/>
<path d="M195.069 26.6261C195.069 27.2561 194.558 27.7671 193.928 27.7671C193.298 27.7671 192.787 27.2561 192.787 26.6261C192.787 25.9961 193.298 25.4851 193.928 25.4851C194.558 25.4841 195.069 25.9951 195.069 26.6261Z" fill="#EEF8FF"/>
<path d="M188.098 26.6261C188.098 27.2561 187.587 27.7671 186.957 27.7671C186.327 27.7671 185.816 27.2561 185.816 26.6261C185.816 25.9961 186.327 25.4851 186.957 25.4851C187.587 25.4841 188.098 25.9951 188.098 26.6261Z" fill="#EEF8FF"/>
<path d="M146.446 42.2921H63.8197C62.9127 42.2921 62.1777 41.5571 62.1777 40.6501C62.1777 39.7431 62.9127 39.0081 63.8197 39.0081H146.446C147.353 39.0081 148.088 39.7431 148.088 40.6501C148.088 41.5571 147.353 42.2921 146.446 42.2921Z" fill="white"/>
<path d="M146.446 52.6519H63.8197C62.9127 52.6519 62.1777 51.9169 62.1777 51.0089C62.1777 50.1019 62.9127 49.3669 63.8197 49.3669H146.446C147.353 49.3669 148.088 50.1019 148.088 51.0089C148.088 51.9159 147.353 52.6519 146.446 52.6519Z" fill="white"/>
<path d="M101.848 63.012H63.8197C62.9127 63.012 62.1777 62.277 62.1777 61.37C62.1777 60.463 62.9127 59.728 63.8197 59.728H101.848C102.755 59.728 103.49 60.463 103.49 61.37C103.49 62.276 102.755 63.012 101.848 63.012Z" fill="#002A66"/>
<path d="M146.446 104.04H63.8197C62.9127 104.04 62.1777 103.305 62.1777 102.398C62.1777 101.491 62.9127 100.756 63.8197 100.756H146.446C147.353 100.756 148.088 101.491 148.088 102.398C148.088 103.305 147.353 104.04 146.446 104.04Z" fill="#002A66"/>
<path d="M101.848 114.4H63.8197C62.9127 114.4 62.1777 113.665 62.1777 112.758C62.1777 111.851 62.9127 111.116 63.8197 111.116H101.848C102.755 111.116 103.49 111.851 103.49 112.758C103.49 113.665 102.755 114.4 101.848 114.4Z" fill="#002A66"/>
<path d="M180.014 49.1201C172.354 49.1201 166.123 55.3521 166.123 63.0121C166.123 70.6721 172.355 76.9041 180.014 76.9041C187.674 76.9041 193.906 70.6721 193.906 63.0121C193.906 55.3521 187.674 49.1201 180.014 49.1201ZM180.014 74.5451C173.655 74.5451 168.481 69.3711 168.481 63.0121C168.481 56.6521 173.655 51.4791 180.014 51.4791C186.374 51.4791 191.548 56.6531 191.548 63.0121C191.548 69.3711 186.374 74.5451 180.014 74.5451Z" fill="#002A66"/>
<path d="M185.781 66.1451C182.601 69.3241 177.427 69.3251 174.248 66.1451C173.922 65.8201 173.395 65.8201 173.069 66.1451C172.743 66.4711 172.743 66.9991 173.069 67.3241C174.984 69.2391 177.499 70.1961 180.015 70.1961C182.53 70.1961 185.046 69.2381 186.961 67.3241C187.287 66.9981 187.287 66.4701 186.961 66.1451C186.634 65.8201 186.107 65.8201 185.781 66.1451Z" fill="#002A66"/>
<path d="M175.025 62.2512C175.793 62.2512 176.415 61.6292 176.415 60.8612C176.415 60.0932 175.793 59.4712 175.025 59.4712C174.257 59.4712 173.635 60.0932 173.635 60.8612C173.635 61.6292 174.257 62.2512 175.025 62.2512Z" fill="#002A66"/>
<path d="M185.005 62.2512C185.772 62.2512 186.395 61.6292 186.395 60.8612C186.395 60.0932 185.773 59.4712 185.005 59.4712C184.237 59.4712 183.615 60.0932 183.615 60.8612C183.615 61.6292 184.237 62.2512 185.005 62.2512Z" fill="#002A66"/>
<path d="M69.6405 92.4082C69.2945 92.4082 68.9475 92.2672 68.6835 91.9842L62.5745 85.4452C62.0455 84.8792 62.0455 83.9622 62.5745 83.3972L68.7875 76.7492C69.3165 76.1832 70.1725 76.1832 70.7015 76.7492C71.2305 77.3142 71.2305 78.2322 70.7015 78.7972L65.4455 84.4212L70.5985 89.9362C71.1275 90.5022 71.1275 91.4192 70.5985 91.9842C70.3335 92.2662 69.9865 92.4082 69.6405 92.4082Z" fill="url(#paint5_linear_62_220)"/>
<path d="M89.2126 92.4082C88.8666 92.4082 88.5206 92.2672 88.2556 91.9842C87.7266 91.4192 87.7266 90.5012 88.2556 89.9362L93.4096 84.4212L88.1526 78.7972C87.6236 78.2322 87.6236 77.3152 88.1526 76.7492C88.6816 76.1832 89.5376 76.1832 90.0666 76.7492L96.2806 83.3972C96.5346 83.6692 96.6766 84.0372 96.6766 84.4212C96.6766 84.8052 96.5336 85.1732 96.2806 85.4452L90.1706 91.9842C89.9056 92.2662 89.5586 92.4082 89.2126 92.4082Z" fill="url(#paint6_linear_62_220)"/>
<path d="M76.3939 94.2041C76.2249 94.2041 76.0519 94.1701 75.8849 94.0971C75.1919 93.7961 74.8599 92.9511 75.1409 92.2101L81.2049 76.2671C81.4869 75.5281 82.2719 75.1681 82.9689 75.4721C83.6619 75.7731 83.9939 76.6181 83.7129 77.3591L77.6489 93.3021C77.4339 93.8631 76.9289 94.2041 76.3939 94.2041Z" fill="url(#paint7_linear_62_220)"/>
<path d="M201.474 88.358H158.555C156.412 88.358 154.668 86.614 154.668 84.471V41.552C154.668 39.409 156.412 37.665 158.555 37.665H201.474C203.617 37.665 205.361 39.409 205.361 41.552V84.471C205.361 86.614 203.617 88.358 201.474 88.358ZM158.555 40.023C157.712 40.023 157.026 40.709 157.026 41.552V84.471C157.026 85.314 157.712 86 158.555 86H201.474C202.317 86 203.003 85.314 203.003 84.471V41.552C203.003 40.709 202.317 40.023 201.474 40.023H158.555Z" fill="#002A66"/>
<path d="M139.005 77.5701V76.2371C139.005 75.7321 138.595 75.3221 138.09 75.3221H135.912C135.74 74.5941 135.452 73.9121 135.068 73.2931L136.611 71.7501C136.968 71.3931 136.968 70.8131 136.611 70.4561L135.668 69.5131C135.311 69.1561 134.731 69.1561 134.374 69.5131L132.831 71.0561C132.212 70.6731 131.53 70.3851 130.802 70.2121V68.0341C130.802 67.5291 130.392 67.1191 129.887 67.1191H128.554C128.049 67.1191 127.639 67.5291 127.639 68.0341V70.2121C126.911 70.3841 126.229 70.6721 125.61 71.0561L124.067 69.5131C123.71 69.1561 123.13 69.1561 122.773 69.5131L121.83 70.4561C121.473 70.8131 121.473 71.3931 121.83 71.7501L123.373 73.2931C122.99 73.9121 122.701 74.5941 122.529 75.3221H120.351C119.846 75.3221 119.436 75.7321 119.436 76.2371V77.5701C119.436 78.0751 119.846 78.4851 120.351 78.4851H122.529C122.701 79.2131 122.989 79.8951 123.373 80.5141L121.83 82.0571C121.473 82.4141 121.473 82.9941 121.83 83.3511L122.773 84.2941C123.13 84.6511 123.71 84.6511 124.067 84.2941L125.61 82.7511C126.229 83.1341 126.911 83.4221 127.639 83.5951V85.7731C127.639 86.2781 128.049 86.6881 128.554 86.6881H129.887C130.392 86.6881 130.802 86.2781 130.802 85.7731V83.5951C131.53 83.4231 132.212 83.1351 132.831 82.7511L134.374 84.2941C134.731 84.6511 135.311 84.6511 135.668 84.2941L136.611 83.3511C136.968 82.9941 136.968 82.4141 136.611 82.0571L135.068 80.5141C135.451 79.8951 135.739 79.2131 135.912 78.4851H138.09C138.595 78.4851 139.005 78.0751 139.005 77.5701ZM129.861 80.6241C127.282 81.0511 125.073 78.8421 125.499 76.2631C125.757 74.7011 127.017 73.4401 128.58 73.1821C131.159 72.7561 133.367 74.9641 132.941 77.5431C132.683 79.1051 131.423 80.3661 129.861 80.6241Z" fill="url(#paint8_linear_62_220)"/>
<path d="M287.501 315.69L312.264 314.299C312.264 314.299 322.122 314.175 313.532 309.122C312.017 308.232 310.673 307.235 309.476 306.204C305.585 302.826 303.321 299.017 302.301 297.013L297.437 298.292L288.935 300.532C288.858 300.55 288.788 300.567 288.711 300.579C288.096 305.626 287.501 315.69 287.501 315.69Z" fill="url(#paint9_linear_62_220)"/>
<path d="M320.478 318.09C320.478 318.09 319.976 309.881 313.531 309.122C307.086 308.363 306.347 314.631 306.347 314.631L287.501 313.574L286.998 318.09H320.478Z" fill="white"/>
<path d="M297.435 298.291C298.19 300.749 300.306 306.327 304.304 307.984C306.244 306.433 308.231 306.168 309.475 306.203C305.584 302.825 303.32 299.016 302.3 297.012L297.435 298.291Z" fill="white"/>
<path d="M303.078 295.16L286.499 296.929C286.499 296.929 279.99 244.94 274.124 223.461C272.231 227.895 268.417 243.896 264.856 259.838C260.705 278.451 256.897 296.994 256.897 296.994C256.897 296.994 247.393 298.061 242.087 293.763C243.72 264.107 255.205 204.913 256.709 196.252C256.721 196.323 256.738 196.393 256.756 196.464C256.862 196.859 256.98 197.183 257.122 197.437C257.199 197.573 257.305 197.714 257.435 197.856C257.435 197.856 257.441 197.862 257.453 197.879C258.827 199.383 262.948 201.033 268.702 201.216C274.899 201.41 282.994 199.901 291.613 194.654C291.814 194.253 291.837 193.298 291.725 191.924C292.014 192.207 292.568 195.691 293.276 201.222C296.521 226.616 303.078 295.16 303.078 295.16Z" fill="url(#paint10_linear_62_220)"/>
<path d="M256.517 165.977L255.356 170.505L255.273 170.818L254.996 171.891V171.897C254.996 171.897 252.856 172.056 250.014 171.142C248.658 170.706 247.137 170.028 245.616 168.972C245.239 168.707 244.861 168.424 244.484 168.111C245.009 161.997 247.002 151.214 247.65 147.782C247.78 147.092 247.856 146.703 247.856 146.703L256.517 165.977Z" fill="url(#paint11_linear_62_220)"/>
<path d="M256.896 171.283C256.896 171.283 255.658 176.754 254.078 181.813C252.952 185.386 251.661 188.758 250.505 189.855C247.704 192.508 240.506 196.865 240.506 196.865L236.338 188.245L242.499 182.844L244.922 172.055L245.618 168.972C250.323 172.238 254.998 171.896 254.998 171.896L255.275 170.817L256.896 171.283Z" fill="url(#paint12_linear_62_220)"/>
<path d="M291.61 194.654C282.99 199.901 274.895 201.411 268.699 201.216C262.915 201.033 258.782 199.365 257.432 197.855C257.302 197.713 257.196 197.572 257.119 197.436C256.978 197.182 256.86 196.858 256.753 196.463C256.735 196.392 256.718 196.321 256.706 196.251C256.258 194.341 256.187 191.122 256.211 187.726C256.211 187.207 256.217 186.688 256.223 186.164C256.241 184.755 256.264 183.34 256.276 182.008V181.99C256.294 180.221 256.288 178.6 256.205 177.297C256.176 176.719 256.128 176.206 256.063 175.776C256.033 175.617 256.01 175.463 255.981 175.328C255.969 175.281 255.957 175.228 255.946 175.175C255.775 174.42 255.445 173.288 254.997 171.897V171.891C254.596 170.612 254.095 169.12 253.558 167.504C253.399 167.032 253.24 166.549 253.075 166.054C252.586 164.586 252.067 163.035 251.554 161.479C251.153 160.259 250.752 159.032 250.369 157.829C250.216 157.34 250.063 156.856 249.915 156.379C248.901 153.107 248.058 150.112 247.692 148.036C247.68 147.948 247.663 147.865 247.651 147.783C247.616 147.559 247.586 147.353 247.562 147.152C247.656 147.005 247.757 146.851 247.857 146.704C247.928 146.598 247.999 146.492 248.069 146.391C249.908 143.756 252.42 141.409 254.678 139.593C255.326 139.074 255.957 138.597 256.541 138.172C257.013 137.824 257.455 137.512 257.862 137.235L257.903 137.211L260.562 135.696C263.569 135.195 266.375 135 268.904 134.988C272.359 134.97 275.289 135.3 277.488 135.666C280.271 136.132 281.88 136.668 281.88 136.668L282.015 138.39L282.139 139.917L282.841 148.613L282.965 150.14L283.018 150.818C283.018 150.818 283.018 150.824 283.024 150.842C283.101 151.149 283.867 154.191 284.911 158.548C285.029 159.026 285.147 159.521 285.271 160.028C285.878 162.557 286.55 165.434 287.24 168.43C287.346 168.919 287.458 169.409 287.57 169.904C288.207 172.71 288.838 175.588 289.41 178.341C289.51 178.842 289.611 179.337 289.717 179.827C290.354 182.97 290.896 185.906 291.268 188.329C291.351 188.854 291.421 189.361 291.486 189.833C291.592 190.605 291.669 191.307 291.722 191.926C291.834 193.298 291.811 194.253 291.61 194.654Z" fill="url(#paint13_linear_62_220)"/>
<g opacity="0.35">
<path opacity="0.25" d="M282.141 139.917L247.692 148.035C247.68 147.947 247.663 147.864 247.651 147.782C247.616 147.558 247.587 147.352 247.562 147.151C247.656 147.004 247.757 146.85 247.857 146.703C247.928 146.597 247.999 146.491 248.069 146.39L282.017 138.389L282.141 139.917Z" fill="black"/>
<path opacity="0.25" d="M282.966 150.141L250.368 157.829C250.215 157.34 250.062 156.856 249.914 156.379L282.842 148.614L282.966 150.141Z" fill="black"/>
<path opacity="0.25" d="M285.271 160.028L253.557 167.504C253.398 167.032 253.239 166.549 253.074 166.054L284.911 158.549C285.03 159.026 285.147 159.521 285.271 160.028Z" fill="black"/>
<path opacity="0.25" d="M287.572 169.904L256.205 177.297C256.176 176.719 256.128 176.206 256.063 175.776L287.24 168.43C287.347 168.919 287.46 169.408 287.572 169.904Z" fill="black"/>
<path opacity="0.25" d="M289.718 179.826L256.212 187.726C256.212 187.207 256.218 186.688 256.224 186.164L289.412 178.34C289.511 178.842 289.612 179.337 289.718 179.826Z" fill="black"/>
<path opacity="0.25" d="M291.487 189.832L257.433 197.856C257.303 197.714 257.197 197.573 257.12 197.437C256.979 197.183 256.861 196.859 256.754 196.464L291.268 188.328C291.351 188.853 291.422 189.36 291.487 189.832Z" fill="black"/>
</g>
<path opacity="0.25" d="M277.49 135.667C275.88 140.154 272.349 146.427 265.121 146.704C256.484 147.04 254.933 141.987 254.679 139.594C255.327 139.075 255.958 138.598 256.542 138.173C257.014 137.825 257.456 137.513 257.863 137.236L257.904 137.212L260.563 135.697C263.57 135.196 266.376 135.001 268.905 134.989C272.36 134.971 275.291 135.301 277.49 135.667Z" fill="black"/>
<path d="M265.12 142.093C264.436 142.747 263.581 143.131 262.585 142.954C260.734 142.63 259.578 141.368 258.93 140.36C258.523 139.729 258.311 139.193 258.252 139.028C258.24 138.998 258.234 138.981 258.234 138.981C258.234 138.981 257.803 139.223 256.731 139.034C256.678 139.028 256.625 139.016 256.572 139.005C256.537 138.999 256.519 138.993 256.519 138.993C255.705 138.828 254.561 138.421 253.017 137.554C250.741 136.275 248.931 134.329 247.563 132.431C247.262 132.012 246.979 131.594 246.72 131.187C246.425 130.727 246.16 130.279 245.924 129.855C251.106 129.336 254.52 125.651 256.047 121.253C256.047 121.253 258.889 125.928 259.52 125.928C260.151 125.928 260.658 121.506 262.55 121.447C262.874 121.435 263.145 121.512 263.375 121.659C264.478 122.361 264.466 124.754 263.564 127.254C262.992 128.834 265.333 130.161 265.84 130.29C265.87 130.296 265.911 130.272 265.97 130.213C266.1 131.876 266.389 133.697 266.654 135.048C266.796 135.761 266.931 136.345 267.037 136.699C267.361 137.807 266.653 140.637 265.12 142.093Z" fill="url(#paint14_linear_62_220)"/>
<path d="M251.553 124.553C251.453 124.771 249.784 128.155 245.846 129.724C245.681 129.429 245.533 129.146 245.398 128.881C248.641 127.371 251.382 124.718 251.553 124.553Z" fill="#FFB7A9"/>
<path d="M269.742 119.995C268.94 124.995 266.617 129.582 265.969 130.212C265.91 130.271 265.869 130.295 265.839 130.289C265.332 130.159 262.991 128.833 263.563 127.253C264.648 124.24 264.447 121.381 262.549 121.446C260.656 121.505 260.149 125.927 259.519 125.927C258.888 125.927 256.046 121.252 256.046 121.252C254.519 125.65 251.105 129.335 245.923 129.854C245.74 129.878 245.558 129.889 245.369 129.901C245.534 129.842 245.693 129.783 245.847 129.724C249.785 128.156 251.454 124.772 251.554 124.553C251.383 124.718 248.641 127.371 245.399 128.881C243.825 129.606 242.139 130.066 240.57 129.848C240.452 129.695 240.334 129.535 240.234 129.37C235.677 122.584 238.955 108.428 245.34 105.716C245.34 105.716 243.683 105.238 241.69 103.77C244.532 104.389 251.784 101.877 254.295 102.207C256.801 102.537 257.609 104.53 257.609 104.53C257.609 104.53 260.781 101.671 264.383 102.873C262.614 102.808 261.288 104.954 261.288 104.954C261.288 104.954 268.051 106.469 269.69 113.609C270.154 115.627 270.089 117.849 269.742 119.995Z" fill="url(#paint15_linear_62_220)"/>
<path opacity="0.25" d="M265.12 142.093C264.436 142.747 263.581 143.131 262.585 142.954C260.734 142.63 259.578 141.368 258.93 140.36C258.523 139.729 258.311 139.193 258.252 139.028C259.496 138.739 261.159 137.713 262.438 134.535V134.529C262.438 134.523 262.444 134.523 262.444 134.517C263.629 135.389 263.428 140.719 265.12 142.093Z" fill="black"/>
<path opacity="0.25" d="M245.846 129.724C245.681 129.429 245.533 129.146 245.398 128.881C248.641 127.372 251.382 124.719 251.553 124.553C251.453 124.771 249.784 128.155 245.846 129.724Z" fill="black"/>
<path opacity="0.25" d="M263.375 121.658C260.373 122.643 261.615 127.481 259.994 127.729C257.972 128.047 256.996 125.043 256.996 125.043C256.996 125.043 255.728 127.572 251.878 129.724C250.168 130.679 248.287 131.057 246.719 131.186C246.424 130.726 246.159 130.278 245.923 129.854C251.105 129.335 254.519 125.65 256.046 121.252C256.046 121.252 258.888 125.927 259.519 125.927C260.15 125.927 260.657 121.505 262.549 121.446C262.874 121.434 263.145 121.511 263.375 121.658Z" fill="black"/>
<path opacity="0.25" d="M262.438 134.535C261.159 137.713 259.496 138.739 258.252 139.028C258.24 138.998 258.234 138.981 258.234 138.981C258.234 138.981 257.762 139.246 256.571 139.005C256.536 138.999 256.518 138.993 256.518 138.993C255.704 138.828 254.56 138.421 253.016 137.554C250.74 136.275 248.93 134.329 247.562 132.431C247.945 132.39 248.488 132.508 249.178 133.05C250.74 134.282 252.161 137.124 255.716 137.885C259.248 138.644 261.53 135.867 262.438 134.535Z" fill="white"/>
<path opacity="0.25" d="M262.571 123.496C262.571 123.496 261.963 125.265 262.235 125.833C262.508 126.402 264.435 124.665 262.571 123.496Z" fill="black"/>
<path opacity="0.25" d="M269.742 119.995C268.94 124.995 266.617 129.582 265.969 130.212C265.91 130.271 265.869 130.295 265.839 130.289C265.332 130.159 262.991 128.833 263.563 127.253C264.648 124.24 264.447 121.381 262.549 121.446C260.656 121.505 260.149 125.927 259.519 125.927C258.888 125.927 256.046 121.252 256.046 121.252C254.519 125.65 251.105 129.335 245.923 129.854C245.74 129.878 245.558 129.889 245.369 129.901C245.534 129.842 245.693 129.783 245.847 129.724C249.785 128.156 251.454 124.772 251.554 124.553C251.383 124.718 248.641 127.371 245.399 128.881C243.825 129.606 242.139 130.066 240.57 129.848C240.452 129.695 240.334 129.535 240.234 129.37C243.748 127.012 252.503 120.473 252.35 113.958C254.054 117.177 253.677 121.251 253.677 121.251C253.677 121.251 255.281 116.988 254.998 113.386C257.563 116.988 258.252 120.119 258.252 120.119C258.252 120.119 258.6 116.517 262.768 115.85C266.942 115.19 267.113 121.251 267.113 121.251C267.113 121.251 268.552 119.075 266.942 115.19C268.032 115.827 268.981 117.737 269.742 119.995Z" fill="black"/>
<path d="M264.004 145.069C258.855 145.722 257.231 140.861 256.729 139.033C257.802 139.222 258.232 138.98 258.232 138.98C258.232 138.98 258.238 138.998 258.25 139.027C258.309 139.192 258.521 139.729 258.928 140.359C259.576 141.367 260.732 142.629 262.583 142.953C263.579 143.13 264.434 142.747 265.118 142.092C266.651 140.636 267.358 137.806 267.034 136.697C266.928 136.343 266.792 135.76 266.651 135.046C267.423 135.011 268.179 134.993 268.904 134.987C269.1 139.01 268.489 144.5 264.004 145.069Z" fill="#0049B2"/>
<path opacity="0.25" d="M256.277 181.99C256.306 179.154 256.271 176.684 255.982 175.328C255.823 174.579 255.475 173.388 254.997 171.897C254.997 171.897 252.857 172.056 250.015 171.142C250.469 169.503 250.419 166.292 250.501 162.283C250.536 160.668 250.374 158.254 250.015 156.798C251.931 161.126 254.466 166.043 255.357 170.506C256.312 175.31 256.642 179.585 256.277 181.99Z" fill="black"/>
<path opacity="0.25" d="M291.609 194.654C282.989 199.901 274.894 201.411 268.698 201.216C276.062 198.132 273.904 190.71 267.112 189.348C273.945 184.295 279.45 179.812 278.344 163.453C277.779 155.096 278.975 148.165 278.975 148.165L283.025 150.842C283.314 151.986 293.231 191.418 291.609 194.654Z" fill="black"/>
<path d="M291.786 156.379C291.768 156.52 291.727 156.656 291.662 156.798C291.296 157.594 290.17 158.384 288.779 159.109C286.326 160.377 283.048 161.42 281.604 161.851C281.144 161.987 280.873 162.063 280.873 162.063C280.873 162.063 276.781 153.939 276.05 146.858C275.584 142.359 276.474 138.279 280.637 136.959C281.02 136.841 281.439 136.741 281.881 136.67C281.881 136.67 287.612 139.854 291.603 155.631C291.662 155.878 291.727 156.125 291.786 156.379Z" fill="url(#paint16_linear_62_220)"/>
<path d="M295.525 177.727C293.886 180.887 267.732 193.646 267.732 193.646C267.732 193.646 265.71 197.437 262.048 198.192C258.381 198.953 255.604 196.93 253.458 196.807C251.306 196.677 248.276 198.953 248.276 198.953C248.276 198.953 247.905 198.976 247.592 198.817C247.203 198.616 246.908 198.121 247.562 196.93C250.386 191.877 260.781 190.993 261.541 190.616C261.901 190.439 267.154 186.235 272.584 181.861C278.639 176.991 284.912 171.903 284.912 171.903L282.406 164.292L281.604 161.851C283.868 161.179 290.648 158.997 291.662 156.798C291.921 157.677 292.299 158.962 292.717 160.471C294.34 166.331 296.633 175.605 295.525 177.727Z" fill="url(#paint17_linear_62_220)"/>
<path opacity="0.25" d="M292.718 160.47C289.351 163.624 284.759 164.214 282.406 164.29L281.604 161.849C283.868 161.177 290.648 158.995 291.662 156.796C291.922 157.676 292.299 158.961 292.718 160.47Z" fill="black"/>
<path opacity="0.25" d="M255.946 175.174C255.457 177.102 254.802 179.496 254.077 181.813C250.858 179.791 246.99 174.879 244.921 172.055L245.617 168.972C250.322 172.238 254.997 171.896 254.997 171.896C255.445 173.288 255.775 174.42 255.946 175.174Z" fill="black"/>
<path d="M302.598 299.409L288.484 300.606C287.186 300.716 286.044 299.753 285.934 298.455L285.906 298.121C285.796 296.823 286.759 295.681 288.058 295.571L302.172 294.374C303.47 294.264 304.612 295.227 304.722 296.526L304.75 296.86C304.859 298.157 303.896 299.299 302.598 299.409Z" fill="#A2A5AA"/>
<path d="M258.653 298.733C258.358 299.865 257.332 300.614 256.206 300.614C256.064 300.614 255.929 300.602 255.787 300.579C255.71 300.567 255.64 300.55 255.563 300.532L242.197 297.012L241.507 296.829C240.157 296.469 239.355 295.09 239.709 293.74C240.01 292.608 241.03 291.853 242.15 291.853C242.362 291.853 242.58 291.882 242.798 291.941L256.854 295.644C258.205 296.004 259.006 297.383 258.653 298.733Z" fill="#A2A5AA"/>
<path d="M256.996 315.69L232.233 314.299C232.233 314.299 222.375 314.175 230.965 309.122C232.48 308.232 233.824 307.235 235.021 306.204C238.912 302.826 241.176 299.017 242.196 297.013L247.06 298.292L255.562 300.532C255.639 300.55 255.709 300.567 255.786 300.579C256.4 305.626 256.996 315.69 256.996 315.69Z" fill="url(#paint18_linear_62_220)"/>
<path d="M224.019 318.09C224.019 318.09 224.521 309.881 230.966 309.122C237.411 308.362 238.15 314.631 238.15 314.631L256.996 313.574L257.499 318.09H224.019Z" fill="white"/>
<path d="M247.061 298.291C246.306 300.749 244.19 306.327 240.192 307.984C238.252 306.433 236.265 306.168 235.021 306.203C238.912 302.825 241.176 299.016 242.196 297.012L247.061 298.291Z" fill="white"/>
<path opacity="0.25" d="M291.787 156.379C291.769 156.52 291.728 156.656 291.663 156.798C291.297 157.594 290.171 158.384 288.78 159.109C288.751 156.232 288.426 152.128 287.165 148.037C285.538 142.772 282.366 138.828 280.638 136.959C281.021 136.841 281.44 136.741 281.882 136.67C281.882 136.67 287.613 139.854 291.604 155.631C291.663 155.878 291.728 156.125 291.787 156.379Z" fill="black"/>
<path opacity="0.25" d="M285.608 201.233C285.608 201.233 285.229 206.723 290.725 207.86" stroke="white" stroke-width="1.1792" stroke-miterlimit="10" stroke-linecap="round" stroke-linejoin="round"/>
<path opacity="0.25" d="M288.164 210.07L298.937 291.853" stroke="white" stroke-width="1.1792" stroke-miterlimit="10" stroke-linecap="round" stroke-linejoin="round"/>
<path opacity="0.25" d="M271.496 222.452L253.219 291.853" stroke="white" stroke-width="1.1792" stroke-miterlimit="10" stroke-linecap="round" stroke-linejoin="round"/>
<path opacity="0.25" d="M274.122 223.461C272.229 227.895 268.415 243.896 264.854 259.838C264.748 251.507 264.925 242.546 265.839 235.842C268.108 219.11 274.122 223.461 274.122 223.461Z" fill="black"/>
<path opacity="0.25" d="M293.272 201.222C268.987 213.344 257.932 198.551 257.449 197.879C258.823 199.383 262.944 201.033 268.698 201.216C274.895 201.41 282.99 199.901 291.609 194.654C291.81 194.253 291.833 193.298 291.721 191.924C292.01 192.207 292.564 195.692 293.272 201.222Z" fill="black"/>
<path opacity="0.25" d="M272.584 181.86C271.57 185.763 263.286 192.024 261.824 191.924C260.167 191.812 252.444 193.787 250.015 195.208C248.117 196.316 247.686 198.091 247.592 198.816C247.203 198.615 246.908 198.12 247.562 196.929C250.386 191.876 260.781 190.992 261.541 190.615C261.901 190.439 267.154 186.235 272.584 181.86Z" fill="white"/>
<path d="M117.17 211.425L115.24 210.071L113.31 208.715C113.017 209.132 106.047 219.152 99.011 237.708C92.544 254.765 84.834 282.557 84.834 318.09H89.551C89.551 251.617 116.894 211.819 117.17 211.425Z" fill="url(#paint19_linear_62_220)"/>
<path d="M159.367 211.425L157.437 210.071L155.507 208.715C155.214 209.132 148.244 219.152 141.208 237.708C134.741 254.765 127.031 282.557 127.031 318.09H131.748C131.748 251.617 159.091 211.819 159.367 211.425Z" fill="url(#paint20_linear_62_220)"/>
<path d="M294.647 211.425L296.578 210.071L298.508 208.715C298.801 209.132 305.771 219.152 312.807 237.708C319.274 254.765 326.984 282.557 326.984 318.09H322.267C322.267 251.617 294.923 211.819 294.647 211.425Z" fill="url(#paint21_linear_62_220)"/>
<path d="M252.451 211.425L254.381 210.071L256.311 208.715C256.604 209.132 263.574 219.152 270.61 237.708C277.077 254.765 284.787 282.557 284.787 318.09H280.07C280.07 251.617 252.727 211.819 252.451 211.425Z" fill="url(#paint22_linear_62_220)"/>
<path d="M298.939 209.099C298.939 209.96 298.591 210.738 298.025 211.304C297.459 211.87 296.681 212.218 295.82 212.218H84.2479C82.5269 212.218 81.1289 210.821 81.1289 209.099C81.1289 208.238 81.4769 207.46 82.0429 206.894C82.6089 206.328 83.3869 205.98 84.2479 205.98H295.82C297.541 205.98 298.939 207.378 298.939 209.099Z" fill="#3E3E3E"/>
<path d="M336.354 209.099C336.354 209.96 336.006 210.738 335.44 211.304C334.874 211.87 334.096 212.218 333.235 212.218H295.82C296.681 212.218 297.459 211.87 298.025 211.304C298.591 210.738 298.939 209.96 298.939 209.099C298.939 207.377 297.542 205.98 295.82 205.98H333.235C334.956 205.98 336.354 207.378 336.354 209.099Z" fill="#C7CFFF"/>
<path d="M157.439 114.559V183.033H108.079C104.17 183.033 101.004 179.867 101.004 175.958V121.634C101.004 117.725 104.17 114.559 108.079 114.559H157.439Z" fill="#D4E6FD"/>
<path opacity="0.26" d="M157.438 183.034V114.558C153.531 114.558 150.363 117.726 150.363 121.633V175.959C150.363 179.866 153.531 183.034 157.438 183.034Z" fill="black"/>
<path opacity="0.25" d="M132.871 183.034H115.555L119.841 156.473C119.841 156.473 121.875 152.54 126.326 155.087C129.947 157.163 128.249 175.074 132.871 183.034Z" fill="black"/>
<path d="M108.418 197.856L119.839 156.471C120.256 154.959 122.252 154.586 123.158 155.867C124.872 158.291 126.777 162.422 126.231 168.431C125.284 178.866 119.219 198.818 119.219 198.818L108.418 197.856Z" fill="#9CACF2"/>
<path d="M128.724 196.773H105.62C103.078 196.773 101.016 198.834 101.016 201.377C101.016 203.92 103.077 205.981 105.62 205.981H128.724C131.267 205.981 133.328 203.92 133.328 201.377C133.328 198.834 131.267 196.773 128.724 196.773Z" fill="#7189E2"/>
<path d="M126.327 142.858C126.327 146.137 124.601 148.796 122.472 148.796C120.343 148.796 118.617 146.138 118.617 142.858C118.617 139.578 120.343 136.92 122.472 136.92C124.601 136.92 126.327 139.578 126.327 142.858Z" fill="url(#paint23_linear_62_220)"/>
<path d="M270.495 202.743L240.695 201.219V205.979H270.495V202.743Z" fill="#9CACF2"/>
<path d="M247.016 205.979H189.561C188.887 205.979 188.301 205.518 188.143 204.864L179.085 167.528C178.862 166.609 179.558 165.724 180.503 165.724H237.958C238.631 165.724 239.218 166.185 239.376 166.839L248.434 204.175C248.657 205.094 247.961 205.979 247.016 205.979Z" fill="#C7CFFF"/>
<path d="M245.156 204.223H187.701C187.029 204.223 186.439 203.763 186.28 203.109L177.224 165.771C177.106 165.294 177.242 164.828 177.531 164.486C177.79 164.173 178.191 163.967 178.645 163.967H236.1C236.772 163.967 237.356 164.427 237.515 165.081L246.571 202.419C246.795 203.339 246.099 204.223 245.156 204.223Z" fill="#D4E6FD"/>
<path d="M214.036 184.719C214.79 186.688 214.077 188.79 212.445 189.415C210.812 190.04 208.878 188.951 208.124 186.983C207.37 185.015 208.083 182.912 209.715 182.287C211.348 181.661 213.282 182.75 214.036 184.719Z" fill="url(#paint24_linear_62_220)"/>
<path d="M373.323 85.2792C383.993 110.031 370.143 139.796 342.389 151.76C314.634 163.724 283.485 153.358 272.815 128.606C262.145 103.854 275.995 74.0902 303.749 62.1252C331.503 50.1602 362.653 60.5272 373.323 85.2792Z" fill="url(#paint25_radial_62_220)"/>
<path d="M355.66 78.3652V121.747C355.66 124.064 353.779 125.945 351.462 125.945H281.72C279.403 125.945 277.522 124.064 277.522 121.747V78.3652C277.522 76.0482 279.403 74.1672 281.72 74.1672H351.462C353.779 74.1682 355.66 76.0482 355.66 78.3652Z" fill="url(#paint26_linear_62_220)"/>
<path d="M301.302 116.605C298.984 116.605 297.097 114.719 297.097 112.401V104.878C297.097 104.316 296.878 103.789 296.481 103.392L294.972 101.883C293.966 100.877 293.966 99.2402 294.972 98.2342L296.481 96.7252C296.878 96.3282 297.097 95.8002 297.097 95.2392V87.7162C297.097 85.3982 298.983 83.5122 301.302 83.5122V85.6142C300.143 85.6142 299.2 86.5572 299.2 87.7162V95.2392C299.2 96.3622 298.763 97.4182 297.968 98.2122L296.459 99.7212C296.273 99.9072 296.273 100.211 296.46 100.397L297.968 101.906C298.762 102.7 299.2 103.756 299.2 104.879V112.402C299.2 113.561 300.143 114.504 301.302 114.504V116.605Z" fill="#EEF8FF"/>
<path d="M331.885 83.5093C334.203 83.5093 336.09 85.3953 336.09 87.7133V95.2363C336.09 95.7973 336.309 96.3253 336.706 96.7223L338.215 98.2313C339.221 99.2373 339.221 100.874 338.215 101.88L336.706 103.389C336.309 103.786 336.09 104.314 336.09 104.875V112.398C336.09 114.716 334.204 116.602 331.885 116.602V114.5C333.044 114.5 333.987 113.557 333.987 112.398V104.875C333.987 103.752 334.424 102.696 335.219 101.902L336.728 100.393C336.914 100.207 336.914 99.9033 336.728 99.7173L335.219 98.2083C334.425 97.4143 333.987 96.3583 333.987 95.2353V87.7123C333.987 86.5533 333.044 85.6103 331.885 85.6103V83.5093Z" fill="#EEF8FF"/>
<path d="M326.211 93.8173C324.44 92.0463 321.57 92.0463 319.799 93.8173L316.593 97.0233L313.387 93.8173C311.616 92.0463 308.746 92.0463 306.975 93.8173C305.204 95.5883 305.204 98.4583 306.975 100.229L310.181 103.435L316.593 109.847L323.005 103.435L326.211 100.229C327.982 98.4583 327.982 95.5883 326.211 93.8173Z" fill="#EEF8FF"/>
<path d="M266.45 77.9152V75.8922C266.45 75.1252 265.828 74.5032 265.061 74.5032H261.755C261.494 73.3982 261.057 72.3632 260.475 71.4242L262.816 69.0832C263.358 68.5412 263.358 67.6612 262.816 67.1192L261.385 65.6882C260.843 65.1462 259.963 65.1462 259.421 65.6882L257.08 68.0292C256.141 67.4472 255.106 67.0102 254.001 66.7492V63.4432C254.001 62.6762 253.379 62.0542 252.612 62.0542H250.589C249.822 62.0542 249.2 62.6762 249.2 63.4432V66.7492C248.095 67.0102 247.06 67.4472 246.121 68.0292L243.78 65.6882C243.238 65.1462 242.358 65.1462 241.816 65.6882L240.385 67.1192C239.843 67.6612 239.843 68.5412 240.385 69.0832L242.726 71.4242C242.144 72.3632 241.707 73.3982 241.446 74.5032H238.14C237.373 74.5032 236.751 75.1252 236.751 75.8922V77.9152C236.751 78.6822 237.373 79.3042 238.14 79.3042H241.446C241.707 80.4092 242.144 81.4442 242.726 82.3832L240.385 84.7242C239.843 85.2662 239.843 86.1462 240.385 86.6882L241.816 88.1192C242.358 88.6612 243.238 88.6612 243.78 88.1192L246.121 85.7782C247.06 86.3602 248.095 86.7972 249.2 87.0582V90.3642C249.2 91.1312 249.822 91.7532 250.589 91.7532H252.612C253.379 91.7532 254.001 91.1312 254.001 90.3642V87.0582C255.106 86.7972 256.141 86.3602 257.08 85.7782L259.421 88.1192C259.963 88.6612 260.843 88.6612 261.385 88.1192L262.816 86.6882C263.358 86.1462 263.358 85.2662 262.816 84.7242L260.475 82.3832C261.057 81.4442 261.494 80.4092 261.755 79.3042H265.061C265.828 79.3042 266.45 78.6822 266.45 77.9152ZM252.573 82.5502C248.659 83.1972 245.307 79.8462 245.954 75.9322C246.346 73.5612 248.258 71.6492 250.629 71.2562C254.543 70.6092 257.894 73.9602 257.248 77.8742C256.856 80.2452 254.944 82.1582 252.573 82.5502Z" fill="#D4E6FD"/>
<path d="M222.798 125.102C222.033 125.102 221.415 124.515 221.331 123.755C220.658 117.606 215.431 112.803 209.106 112.803C203.87 112.803 199.384 116.099 197.615 120.721L200.486 121.322L196.86 123.987L195.345 125.101H195.068L193.977 123.22L191.825 119.512L194.702 120.113C196.772 114.146 202.443 109.854 209.106 109.854C216.952 109.854 223.432 115.81 224.263 123.439C224.359 124.324 223.687 125.102 222.798 125.102Z" fill="#EEF8FF"/>
<path d="M195.168 129.174C195.933 129.174 196.551 129.761 196.635 130.521C197.308 136.67 202.535 141.473 208.86 141.473C214.096 141.473 218.582 138.177 220.351 133.555L217.48 132.954L221.106 130.289L222.621 129.175H222.898L223.989 131.056L226.141 134.764L223.264 134.163C221.195 140.13 215.523 144.422 208.86 144.422C201.014 144.422 194.534 138.466 193.703 130.837C193.608 129.952 194.28 129.174 195.168 129.174Z" fill="#EEF8FF"/>
<path d="M195.345 125.102L195.151 125.244L195.068 125.102H195.345Z" fill="#EEF8FF"/>
<path d="M338.959 327.163C338.741 331.815 334.732 335.4 330.068 335.4H84.1C79.177 335.4 75.221 331.296 75.451 326.326C75.563 324.003 76.624 321.939 78.234 320.465C79.844 318.985 82.013 318.089 84.342 318.089H330.316C335.232 318.089 339.194 322.193 338.959 327.163Z" fill="#091737"/>
<path d="M331.885 153.221H363.876" stroke="white" stroke-width="2.9479" stroke-miterlimit="10" stroke-linecap="round" stroke-linejoin="round"/>
<path d="M331.885 161.833H363.876" stroke="white" stroke-width="2.9479" stroke-miterlimit="10" stroke-linecap="round" stroke-linejoin="round"/>
<path d="M331.884 162.035C336.752 162.035 340.698 158.089 340.698 153.221C340.698 148.353 336.752 144.407 331.884 144.407C327.016 144.407 323.07 148.353 323.07 153.221C323.07 158.089 327.016 162.035 331.884 162.035Z" fill="url(#paint27_radial_62_220)"/>
<path d="M75.3196 192.671H25.8926" stroke="white" stroke-width="2.9479" stroke-miterlimit="10" stroke-linecap="round" stroke-linejoin="round"/>
<path d="M75.3201 201.471H43.3281" stroke="url(#paint28_linear_62_220)" stroke-width="2.9479" stroke-miterlimit="10" stroke-linecap="round" stroke-linejoin="round"/>
<path d="M75.3201 210.082H43.3281" stroke="url(#paint29_linear_62_220)" stroke-width="2.9479" stroke-miterlimit="10" stroke-linecap="round" stroke-linejoin="round"/>
<path d="M75.6324 201.328C80.5002 201.328 84.4464 197.382 84.4464 192.514C84.4464 187.646 80.5002 183.7 75.6324 183.7C70.7645 183.7 66.8184 187.646 66.8184 192.514C66.8184 197.382 70.7645 201.328 75.6324 201.328Z" fill="url(#paint30_radial_62_220)"/>
<path d="M396.304 216.149C390.809 230.423 383.705 244.03 375.386 256.559C376.73 246.801 386.081 182.631 402.896 161.766C405.018 175.32 400.973 197.306 396.304 216.149Z" fill="url(#paint31_linear_62_220)"/>
<path d="M379.925 249.419C378.457 251.83 376.942 254.212 375.385 256.559C372.962 260.209 370.433 263.77 367.809 267.224C367.756 266.357 364.873 218.967 379.896 194.428C385.196 212.547 382.331 236.089 379.925 249.419Z" fill="#D4E6FD"/>
<g opacity="0.25">
<path d="M402.896 161.766C399.394 174.772 396.093 187.832 393.081 200.955C391.573 207.516 390.134 214.093 388.853 220.698C387.578 227.301 386.378 233.928 385.622 240.592L384.451 240.454C385.312 233.743 386.612 227.122 387.987 220.522C389.367 213.923 390.903 207.362 392.508 200.819C395.713 187.732 399.204 174.719 402.896 161.766Z" fill="black"/>
</g>
<g opacity="0.25">
<path d="M379.896 194.429C378.988 199.557 378.234 204.711 377.562 209.873C376.904 215.037 376.318 220.21 375.914 225.397C375.52 230.583 375.183 235.777 375.164 240.972C375.14 246.163 375.299 251.36 375.97 256.484L374.8 256.634C374.216 251.411 374.157 246.174 374.279 240.955C374.396 235.733 374.833 230.532 375.326 225.343C375.829 220.154 376.514 214.986 377.27 209.832C378.04 204.679 378.891 199.539 379.896 194.429Z" fill="black"/>
</g>
<path d="M54.3018 279.132C54.3018 279.132 30.9158 264.875 22.1348 237.161C46.5868 240.276 68.3928 280.464 68.3928 280.464L54.3018 279.132Z" fill="#D4E6FD"/>
<g opacity="0.25">
<path d="M22.1348 237.16C28.7618 243.168 35.2308 249.351 41.5608 255.678C47.8698 262.025 54.0408 268.522 59.7838 275.423L58.8658 276.164C53.3148 269.187 47.2988 262.565 41.1388 256.09C34.9568 249.634 28.6268 243.312 22.1348 237.16Z" fill="black"/>
</g>
<path d="M81.2545 302.499C80.8415 302.652 80.3875 302.693 79.9105 302.64C74.7335 298.177 68.9855 292.711 63.1195 286.208C34.2655 269.711 6.27148 304.473 6.27148 304.473C6.27148 304.473 17.9335 263.921 50.6025 270.761H50.6085C83.2835 277.601 81.2545 302.499 81.2545 302.499Z" fill="url(#paint32_linear_62_220)"/>
<g opacity="0.25">
<path d="M6.27148 304.474C10.2615 298.15 15.1055 292.349 20.6765 287.336C26.2605 282.395 32.8225 278.222 40.2515 276.648C43.9425 275.866 47.7995 275.803 51.5175 276.523C55.2315 277.248 58.8155 278.656 62.0425 280.629C62.8715 281.085 63.6185 281.67 64.4115 282.185L65.5835 282.983L66.6825 283.875C67.4115 284.475 68.1565 285.052 68.8735 285.673L69.9155 286.657L70.8905 287.711C72.1485 289.155 73.2145 290.777 74.0105 292.532C74.8065 294.297 75.3725 296.128 75.4895 298.159L74.3105 298.156C74.2355 296.448 73.7305 294.623 73.0025 292.984C72.2755 291.323 71.2885 289.772 70.1075 288.381L69.1905 287.363L68.2055 286.409C67.5185 285.797 66.7905 285.219 66.0845 284.621L65.0175 283.731L63.8805 282.937C63.1125 282.424 62.3875 281.839 61.5835 281.384C58.4535 279.414 54.9825 277.999 51.3745 277.245C47.7615 276.496 43.9995 276.506 40.3685 277.225C33.0625 278.669 26.4925 282.708 20.8695 287.557C15.2585 292.476 10.3435 298.204 6.27148 304.474Z" fill="black"/>
</g>
<path d="M247.388 203.566L238.332 166.228C238.173 165.574 237.589 165.114 236.917 165.114H179.462C179.008 165.114 178.607 165.32 178.348 165.633L178 165.438L188.577 108.125C188.577 108.125 271.552 66.9393 287.978 116.211C289.005 119.29 316.401 158.971 316.903 161.692C324.434 202.504 247.388 203.566 247.388 203.566Z" fill="url(#paint33_radial_62_220)"/>
<defs>
<linearGradient id="paint0_linear_62_220" x1="216.657" y1="26.459" x2="207.56" y2="328.915" gradientUnits="userSpaceOnUse">
<stop stop-color="#091737"/>
<stop offset="1" stop-color="#111827"/>
</linearGradient>
<radialGradient id="paint1_radial_62_220" cx="0" cy="0" r="1" gradientUnits="userSpaceOnUse" gradientTransform="translate(66.8226 163.024) rotate(-23.322) scale(45.3289 39.7513)">
<stop stop-color="#3E84FF"/>
<stop offset="0.3286" stop-color="#5469FF" stop-opacity="0.6714"/>
<stop offset="0.7569" stop-color="#0466C8" stop-opacity="0.2431"/>
<stop offset="1" stop-color="#0466C8" stop-opacity="0"/>
</radialGradient>
<linearGradient id="paint2_linear_62_220" x1="33.821" y1="38.4086" x2="69.4499" y2="331.778" gradientUnits="userSpaceOnUse">
<stop stop-color="#0466C8"/>
</linearGradient>
<radialGradient id="paint3_radial_62_220" cx="0" cy="0" r="1" gradientUnits="userSpaceOnUse" gradientTransform="translate(79.4273 165.547) scale(8.8144 8.8144)">
<stop stop-color="white"/>
<stop offset="1"/>
</radialGradient>
<linearGradient id="paint4_linear_62_220" x1="128.252" y1="-6.85386" x2="128.252" y2="105.145" gradientUnits="userSpaceOnUse">
<stop stop-color="#3E84FF"/>
<stop offset="1" stop-color="#7440FF"/>
</linearGradient>
<linearGradient id="paint5_linear_62_220" x1="91.9574" y1="52.3241" x2="50.2654" y2="110.44" gradientUnits="userSpaceOnUse">
<stop stop-color="#D4E6FD"/>
</linearGradient>
<linearGradient id="paint6_linear_62_220" x1="105.756" y1="62.2235" x2="64.0639" y2="120.34" gradientUnits="userSpaceOnUse">
<stop stop-color="#D4E6FD"/>
</linearGradient>
<linearGradient id="paint7_linear_62_220" x1="99.0585" y1="57.4188" x2="57.3666" y2="115.535" gradientUnits="userSpaceOnUse">
<stop stop-color="#D4E6FD"/>
</linearGradient>
<linearGradient id="paint8_linear_62_220" x1="119.435" y1="76.9033" x2="139.005" y2="76.9033" gradientUnits="userSpaceOnUse">
<stop stop-color="#D4E6FD"/>
</linearGradient>
<linearGradient id="paint9_linear_62_220" x1="302.374" y1="316.505" x2="301.534" y2="296.331" gradientUnits="userSpaceOnUse">
<stop/>
</linearGradient>
<linearGradient id="paint10_linear_62_220" x1="279.357" y1="182.421" x2="273.672" y2="276.416" gradientUnits="userSpaceOnUse">
<stop stop-color="#2B2B2B"/>
<stop offset="1" stop-color="#111111"/>
</linearGradient>
<linearGradient id="paint11_linear_62_220" x1="245.777" y1="182.394" x2="253.61" y2="150.557" gradientUnits="userSpaceOnUse">
<stop stop-color="#3E84FF"/>
<stop offset="1" stop-color="#0466C8"/>
</linearGradient>
<linearGradient id="paint12_linear_62_220" x1="252.394" y1="164.558" x2="240.455" y2="198.669" gradientUnits="userSpaceOnUse">
<stop stop-color="#7A3922"/>
<stop offset="1" stop-color="#FFB7A9"/>
</linearGradient>
<linearGradient id="paint13_linear_62_220" x1="259.185" y1="125.72" x2="275.357" y2="190.911" gradientUnits="userSpaceOnUse">
<stop stop-color="#3E84FF"/>
<stop offset="1" stop-color="#0466C8"/>
</linearGradient>
<linearGradient id="paint14_linear_62_220" x1="258.364" y1="124.165" x2="255.143" y2="141.031" gradientUnits="userSpaceOnUse">
<stop stop-color="#7A3922"/>
<stop offset="1" stop-color="#FFB7A9"/>
</linearGradient>
<linearGradient id="paint15_linear_62_220" x1="252.363" y1="109.993" x2="255.774" y2="128.376" gradientUnits="userSpaceOnUse">
<stop stop-color="#2B2B2B"/>
<stop offset="1" stop-color="#111111"/>
</linearGradient>
<linearGradient id="paint16_linear_62_220" x1="294.497" y1="171.202" x2="280.599" y2="146.691" gradientUnits="userSpaceOnUse">
<stop stop-color="#3E84FF"/>
<stop offset="1" stop-color="#0466C8"/>
</linearGradient>
<linearGradient id="paint17_linear_62_220" x1="290.048" y1="141.846" x2="268.445" y2="194.908" gradientUnits="userSpaceOnUse">
<stop stop-color="#7A3922"/>
<stop offset="1" stop-color="#FFB7A9"/>
</linearGradient>
<linearGradient id="paint18_linear_62_220" x1="242.427" y1="319.003" x2="241.587" y2="298.829" gradientUnits="userSpaceOnUse">
<stop/>
</linearGradient>
<linearGradient id="paint19_linear_62_220" x1="100.454" y1="171.116" x2="100.875" y2="242.987" gradientUnits="userSpaceOnUse">
<stop stop-color="#282F3C"/>
<stop offset="1" stop-color="#D4E6FD"/>
</linearGradient>
<linearGradient id="paint20_linear_62_220" x1="173.352" y1="176.924" x2="130.061" y2="295.448" gradientUnits="userSpaceOnUse">
<stop stop-color="#282F3C"/>
<stop offset="1" stop-color="#D4E6FD"/>
</linearGradient>
<linearGradient id="paint21_linear_62_220" x1="281.927" y1="193.774" x2="323.116" y2="290.862" gradientUnits="userSpaceOnUse">
<stop stop-color="#282F3C"/>
<stop offset="1" stop-color="#D4E6FD"/>
</linearGradient>
<linearGradient id="paint22_linear_62_220" x1="268.068" y1="170.136" x2="268.488" y2="242.007" gradientUnits="userSpaceOnUse">
<stop stop-color="#282F3C"/>
<stop offset="1" stop-color="#D4E6FD"/>
</linearGradient>
<linearGradient id="paint23_linear_62_220" x1="124.692" y1="175.043" x2="120.908" y2="120.172" gradientUnits="userSpaceOnUse">
<stop stop-color="#0466C8"/>
<stop offset="1" stop-color="#091737"/>
</linearGradient>
<linearGradient id="paint24_linear_62_220" x1="221.296" y1="220.649" x2="203.363" y2="159.566" gradientUnits="userSpaceOnUse">
<stop stop-color="#0466C8"/>
<stop offset="1" stop-color="#091737"/>
</linearGradient>
<radialGradient id="paint25_radial_62_220" cx="0" cy="0" r="1" gradientUnits="userSpaceOnUse" gradientTransform="translate(323.074 106.94) rotate(-23.322) scale(45.3289 39.7513)">
<stop stop-color="#3E84FF"/>
<stop offset="0.3286" stop-color="#5469FF" stop-opacity="0.6714"/>
<stop offset="0.7569" stop-color="#0466C8" stop-opacity="0.2431"/>
<stop offset="1" stop-color="#0466C8" stop-opacity="0"/>
</radialGradient>
<linearGradient id="paint26_linear_62_220" x1="295.709" y1="47.0476" x2="335.127" y2="147.108" gradientUnits="userSpaceOnUse">
<stop stop-color="#0466C8"/>
<stop offset="1" stop-color="#091737"/>
</linearGradient>
<radialGradient id="paint27_radial_62_220" cx="0" cy="0" r="1" gradientUnits="userSpaceOnUse" gradientTransform="translate(331.884 153.222) scale(8.8144 8.8144)">
<stop stop-color="white"/>
<stop offset="1"/>
</radialGradient>
<linearGradient id="paint28_linear_62_220" x1="-nan" y1="-nan" x2="-nan" y2="-nan" gradientUnits="userSpaceOnUse">
<stop stop-color="#3E84FF"/>
<stop offset="1" stop-color="#7440FF"/>
</linearGradient>
<linearGradient id="paint29_linear_62_220" x1="-nan" y1="-nan" x2="-nan" y2="-nan" gradientUnits="userSpaceOnUse">
<stop stop-color="#3E84FF"/>
<stop offset="1" stop-color="#7440FF"/>
</linearGradient>
<radialGradient id="paint30_radial_62_220" cx="0" cy="0" r="1" gradientUnits="userSpaceOnUse" gradientTransform="translate(75.6329 192.514) scale(8.8144 8.8144)">
<stop stop-color="white"/>
<stop offset="1"/>
</radialGradient>
<linearGradient id="paint31_linear_62_220" x1="403.711" y1="158.029" x2="384.381" y2="236.864" gradientUnits="userSpaceOnUse">
<stop stop-color="#0466C8"/>
<stop offset="1" stop-color="#091737"/>
</linearGradient>
<linearGradient id="paint32_linear_62_220" x1="13.8259" y1="268.9" x2="58.929" y2="311.35" gradientUnits="userSpaceOnUse">
<stop stop-color="#0466C8"/>
<stop offset="1" stop-color="#091737"/>
</linearGradient>
<radialGradient id="paint33_radial_62_220" cx="0" cy="0" r="1" gradientUnits="userSpaceOnUse" gradientTransform="translate(140.503 315.51) scale(232.678 232.678)">
<stop stop-color="#FF00FF"/>
<stop offset="1" stop-color="#00FFFF" stop-opacity="0"/>
</radialGradient>
</defs>
</svg>
