<svg viewBox="0 0 500 400" preserveAspectRatio="xMidYMid meet" fill="none" xmlns="http://www.w3.org/2000/svg">
<g clip-path="url(#clip0_63_2)">
<path d="M304.898 286.689C297.461 285.242 266.904 274.907 212.682 289.581C158.461 304.254 113.753 331.147 59.5946 297.485C5.43611 263.822 0.324575 155.361 47.9607 104.21C95.5969 53.0608 140.196 73.4688 217.624 120.291C295.052 167.114 343.745 118.396 432.251 149.386C520.757 180.377 475.356 298.633 427.335 298.862C379.313 299.092 382.682 301.814 304.898 286.689Z" fill="url(#paint0_linear_63_2)"/>
<path d="M439.015 127.854C431.815 128.63 424.562 127.081 418.229 123.822C406.072 117.566 386.935 102.936 399.764 76.5032C417.822 39.2976 461.723 62.0104 462.551 85.6992C463.263 106.056 460.374 125.552 439.015 127.854Z" fill="url(#paint1_linear_63_2)"/>
<path d="M392.83 30.064C392.83 30.064 383.663 18.2344 373.482 31.2408C363.301 44.2472 379.647 54.232 387.36 50.6968C395.073 47.1616 400.732 38.7528 392.83 30.064Z" fill="url(#paint2_linear_63_2)"/>
<path d="M51.3921 87.7272C51.3921 87.7272 39.7468 85.3336 39.9314 98.96C40.116 112.586 55.3068 109.934 58.3368 103.547C61.3675 97.16 60.6721 88.8512 51.3921 87.7272Z" fill="url(#paint3_linear_63_2)"/>
<path d="M187.238 369.191C220.058 369.191 246.663 363.885 246.663 357.34C246.663 350.795 220.058 345.489 187.238 345.489C154.418 345.489 127.812 350.795 127.812 357.34C127.812 363.885 154.418 369.191 187.238 369.191Z" fill="#83CACC"/>
<path d="M100.913 375.89C143.02 375.89 177.156 370.733 177.156 364.37C177.156 358.008 143.02 352.85 100.913 352.85C58.8046 352.85 24.6694 358.008 24.6694 364.37C24.6694 370.733 58.8046 375.89 100.913 375.89Z" fill="#83CACC"/>
<path d="M339.684 351.726C397.423 351.726 444.23 346.542 444.23 340.147C444.23 333.752 397.423 328.568 339.684 328.568C281.945 328.568 235.138 333.752 235.138 340.147C235.138 346.542 281.945 351.726 339.684 351.726Z" fill="#83CACC"/>
<path d="M350.917 273.57L349.324 281.25C349.324 281.25 337.745 292.821 334.014 299.603C330.283 306.385 332.996 309.17 342.825 305.505C352.655 301.841 352.989 299.438 357.407 297.266C361.824 295.094 366.514 291.683 365.71 287.161C365.71 287.161 368.331 283.334 360.56 272.213C357.161 267.349 350.917 273.57 350.917 273.57Z" fill="#FFF4F3"/>
<path d="M350.917 273.57L349.673 279.566C350.008 279.187 350.606 278.917 351.671 279.005C354.621 279.249 356.946 279.05 356.791 281.56C356.67 283.522 362.045 280.055 364.616 279.226C363.456 275.506 359.744 270.047 360.264 267.825C361.631 261.982 350.917 273.57 350.917 273.57Z" fill="#FFD950"/>
<path d="M362.081 291.003C360.952 292.52 354.512 295.341 350.531 298.438C346.549 301.535 344.036 300.537 344.036 300.537C339.717 294.285 336.172 297.23 335.563 297.13C334.966 298 334.437 298.833 334.013 299.603C330.282 306.385 332.995 309.17 342.824 305.505C352.654 301.841 353.662 299.705 357.986 297.336C363.623 294.247 367.283 290.339 366.48 285.816C366.48 285.816 366.106 284.552 365.951 283.253C362.042 284.276 363.139 289.582 362.081 291.003Z" fill="#556CB2"/>
<path d="M345.911 294.417C346.082 294.99 345.774 295.598 345.224 295.776C344.674 295.953 344.089 295.633 343.918 295.061C343.747 294.489 344.055 293.881 344.605 293.703C345.155 293.525 345.74 293.845 345.911 294.417Z" fill="#556CB2"/>
<path d="M348.958 291.488C349.128 292.061 348.821 292.669 348.271 292.846C347.72 293.024 347.135 292.704 346.965 292.132C346.794 291.559 347.102 290.951 347.652 290.773C348.202 290.596 348.786 290.916 348.958 291.488Z" fill="#556CB2"/>
<path d="M351.665 288.34C351.836 288.913 351.528 289.521 350.978 289.698C350.427 289.876 349.842 289.556 349.672 288.984C349.501 288.411 349.809 287.803 350.359 287.625C350.909 287.448 351.493 287.768 351.665 288.34Z" fill="#556CB2"/>
<path d="M354.797 285.055C354.968 285.628 354.66 286.236 354.11 286.413C353.559 286.591 352.975 286.271 352.804 285.699C352.633 285.126 352.941 284.518 353.491 284.341C354.041 284.162 354.626 284.482 354.797 285.055Z" fill="#556CB2"/>
<path d="M379.629 132.33C379.268 131.172 336.934 146.313 322.648 168.224C308.362 190.135 311.22 200.393 318.778 222.805C326.336 245.215 337.289 269.119 344.015 272.776L347.596 274.504L348.943 278.493L364.042 271.541L362.221 266.038C362.221 266.038 368.111 261.869 363.78 250.537C359.449 239.205 349.379 206.937 349.536 203.509C349.694 200.079 375.139 188.138 385.156 181.181C395.173 174.223 379.629 132.33 379.629 132.33Z" fill="#451F14"/>
<path d="M284.911 278.306L281.385 285.358C281.385 285.358 267.114 293.435 261.731 299.017C256.349 304.6 258.28 308.071 268.814 307.224C279.348 306.378 280.291 304.126 285.16 303.233C290.03 302.34 295.482 300.314 295.859 295.677C295.859 295.677 296.332 288.423 299.166 283.1C302 277.776 284.911 278.306 284.911 278.306Z" fill="#FFF4F3"/>
<path d="M284.911 278.306L282.158 283.812C282.582 283.536 283.234 283.437 284.252 283.82C287.068 284.877 289.388 285.329 288.593 287.735C287.971 289.616 294.133 289.601 296.854 289.505C297.353 287.427 298.089 285.124 299.167 283.099C302.001 277.776 284.911 278.306 284.911 278.306Z" fill="#FFD950"/>
<path d="M291.33 298.42C289.84 299.586 282.83 300.551 278.15 302.468C273.469 304.385 271.272 302.712 271.272 302.712C268.663 295.411 264.447 297.301 263.879 297.034C263.073 297.717 262.343 298.384 261.731 299.017C256.349 304.6 258.28 308.071 268.814 307.225C279.348 306.378 280.291 304.126 285.16 303.233C290.03 302.341 295.482 300.314 295.859 295.677C295.859 295.677 295.913 294.841 296.096 293.531C292.019 293.444 292.727 297.326 291.33 298.42Z" fill="#556CB2"/>
<path d="M274.673 297.261C274.693 297.867 274.236 298.375 273.654 298.396C273.071 298.417 272.583 297.941 272.563 297.336C272.543 296.729 273 296.221 273.582 296.201C274.165 296.18 274.653 296.654 274.673 297.261Z" fill="#556CB2"/>
<path d="M278.398 295.248C278.418 295.854 277.961 296.362 277.379 296.383C276.796 296.404 276.307 295.928 276.287 295.323C276.267 294.716 276.723 294.208 277.306 294.188C277.89 294.167 278.378 294.641 278.398 295.248Z" fill="#556CB2"/>
<path d="M281.848 292.928C281.868 293.534 281.411 294.042 280.829 294.063C280.246 294.084 279.757 293.608 279.737 293.003C279.717 292.396 280.174 291.888 280.757 291.868C281.34 291.847 281.828 292.321 281.848 292.928Z" fill="#556CB2"/>
<path d="M285.749 290.591C285.769 291.197 285.312 291.705 284.73 291.726C284.147 291.747 283.658 291.272 283.638 290.666C283.618 290.06 284.075 289.552 284.658 289.531C285.241 289.51 285.729 289.985 285.749 290.591Z" fill="#556CB2"/>
<path d="M314.12 136.158C314.12 136.158 299.509 203.844 296.437 221.033C293.364 238.221 277.201 261.83 283.175 275.169L282.254 280.686C282.254 280.686 293.602 289.037 300.767 287.084L302.999 281.917C302.999 281.917 306.9 283.812 312.917 273.435C318.934 263.059 326.636 221.99 331.799 209.515C336.963 197.04 350.001 146.317 350.001 146.317L314.12 136.158Z" fill="#451F14"/>
<path d="M316.013 78.7918C316.013 78.7918 301.408 115.511 296.622 124.493C291.836 133.474 296.497 138.168 296.497 138.168C296.497 138.168 329.124 151.115 356.324 153.125C383.524 155.134 377.611 68.6982 377.611 68.6982L316.013 78.7918Z" fill="#8B3657"/>
<path d="M308.354 65.6496C306.345 64.8664 327.393 41.2016 340.849 42.68C354.304 44.1584 359.913 40.9272 374.604 66.5096C389.296 92.092 311.747 87.708 310.88 86.6656C310.012 85.6224 310.498 66.4856 308.354 65.6496Z" fill="#8B3657"/>
<path d="M321.532 69.8376C321.532 69.8376 322.611 65.42 324.104 62.2464C324.104 62.2464 327.886 65.5104 334.933 66.9672C341.979 68.424 357.129 67.8344 362.186 60.4448L365.254 67.868L321.532 69.8376Z" fill="#772848"/>
<path d="M368.576 157.99L393.397 156.274L388.689 82.5935C388.077 73.0271 380.125 65.7871 370.926 66.4223L298.655 71.4175L300.531 100.784C309.897 100.137 317.994 107.508 318.617 117.249C319.239 126.99 312.152 135.41 302.786 136.058L304.47 162.42L334.659 160.334C335.282 170.074 343.379 177.446 352.745 176.798C362.11 176.153 369.198 167.731 368.576 157.99Z" fill="#FFD950"/>
<path d="M350.964 164.141C348.704 163.829 346.952 161.875 346.801 159.496L345.993 146.868L315.805 148.954L315.558 145.104C318.563 143.41 321.285 141.154 323.603 138.399C328.734 132.303 331.275 124.494 330.758 116.41C329.993 104.424 322.475 94.224 312.042 90.0744L311.603 83.2056L371.733 79.0496C372.041 79.028 372.348 79.0384 372.646 79.0792C374.764 79.372 376.404 81.2016 376.546 83.4312L380.448 144.486L355.626 146.201L356.433 158.829C356.548 160.634 355.741 161.884 355.249 162.468C354.757 163.052 353.673 164.05 351.938 164.17C351.608 164.195 351.28 164.184 350.964 164.141Z" fill="#EAC242"/>
<path d="M332.242 118.196C332.242 118.196 332.874 118.262 336.395 121.423C339.916 124.584 338.686 123.457 341.602 125.625C344.518 127.792 344.51 130.037 339.753 128.217C336.681 127.042 336.681 127.042 337.401 129.429C338.344 132.561 342.144 139.026 342.009 140.405C341.874 141.785 338.29 138.618 338.29 138.618C338.29 138.618 337.694 140.149 335.288 138.633C335.288 138.633 334.881 140.183 332.28 138.713C332.28 138.713 331.741 139.652 329.936 138.531C328.131 137.41 327.501 135.353 326.173 132.623C324.844 129.893 325.24 127.147 320.076 119.896C314.912 112.645 320.059 106.351 320.362 106.516C320.664 106.682 332.242 118.196 332.242 118.196Z" fill="#C46B43"/>
<path d="M334.5 40.8486C334.5 40.8486 315.976 43.2774 306.395 52.411C296.815 61.5446 298.25 86.8542 305.255 99.0814C312.26 111.309 323.563 131.43 323.563 131.43L336.899 120.167C336.899 120.167 328.453 93.7174 323.345 80.8966C318.236 68.075 334.5 40.8486 334.5 40.8486Z" fill="#8B3657"/>
<path d="M356.562 123.147C356.191 124.039 355.715 124.869 355.134 125.616C354.223 126.788 352.601 128.952 349.316 130.905C344.774 133.604 343.791 135.313 346.704 134.718C349.617 134.122 351.123 133.224 350.462 134.81C349.802 136.394 347.737 140.569 347.251 142.424C346.764 144.279 347.939 145.36 350.01 141.704C352.081 138.048 352.018 140.506 351.594 142.797C351.171 145.087 350.704 149.017 352.274 147.589L353.627 145.601C353.627 145.601 353.546 146.947 353.705 147.591C353.864 148.235 355.613 146.632 356.525 144.415C357.437 142.198 358.837 140.055 358.781 142.066C358.726 144.078 358.397 146.428 359.277 145.254C360.157 144.081 361.273 138.494 361.893 136.619C362.513 134.744 363.168 131.676 366.449 126.945C369.73 122.214 361.183 117.662 359.681 118.115C358.677 118.415 357.341 121.274 356.562 123.147Z" fill="#C46B43"/>
<path d="M354.304 44.1584C354.304 44.1584 374.094 45.0608 383.838 54.004C393.583 62.948 391.383 89.4425 384.601 101.806C377.82 114.169 366.884 134.509 366.884 134.509L353.347 123.51C353.347 123.51 361.31 96.8984 366.184 83.9792C371.059 71.0608 354.304 44.1584 354.304 44.1584Z" fill="#8B3657"/>
<path d="M327.028 50.2424C327.028 50.2424 332.054 64.0848 339.769 65.268C347.485 66.4512 351.374 63.012 353.272 47.5552C355.169 32.0984 327.028 50.2424 327.028 50.2424Z" fill="#772848"/>
<path d="M331.292 36.6543C331.292 36.6543 332.149 31.5175 337.646 29.4951C343.143 27.4735 353.068 35.2927 351.138 48.8223C349.208 62.3519 342.469 64.8351 336.879 60.5239C331.291 56.2127 324.928 46.9655 331.292 36.6543Z" fill="#D87B56"/>
<path d="M330.583 45.8944C330.583 45.8944 327.449 38.6776 323.001 40.28C318.553 41.8816 327.787 53.4784 331.635 51.96C335.484 50.4408 330.583 45.8944 330.583 45.8944Z" fill="#D87B56"/>
<path d="M349.141 45.091C349.141 45.091 351.1 37.4391 355.739 38.2639C360.379 39.0887 353.091 52.0983 349.055 51.2535C345.021 50.4087 349.141 45.091 349.141 45.091Z" fill="#D87B56"/>
<path d="M353.075 29.1495C353.075 29.1495 353.566 29.0375 355.969 27.7415C358.372 26.4447 350.633 25.3711 350.633 25.3711C350.633 25.3711 350.72 23.5855 347.679 19.4079C344.638 15.2303 347.994 23.3495 347.994 23.3495C343.7 19.5351 338.847 19.3431 335.385 19.9223C335.385 19.9223 327.884 20.7047 324.322 26.7607C320.761 32.8159 322.97 32.3127 322.97 32.3127C322.97 32.3127 320.527 38.9039 325.513 43.7143C326.41 44.5799 327.304 44.3599 328.167 43.4231C328.79 44.3767 329.48 45.3063 330.582 45.8935C332.363 46.8423 334.517 44.6599 335.771 43.0767C335.371 43.9775 336.293 43.7799 336.293 43.7799C341.634 44.2223 345.594 35.5823 345.594 35.5823C346.552 40.6943 347.446 36.0703 347.894 38.5151C348.177 40.0583 349.267 41.2815 350.048 42.0959C350.544 42.6127 351.362 42.4647 351.721 41.8375C353.053 39.5127 355.737 38.2623 355.737 38.2623C356.894 32.1487 353.075 29.1495 353.075 29.1495Z" fill="#451F14"/>
<path d="M336.693 51.5992C336.933 52.4752 336.693 53.3136 336.156 53.4728C335.619 53.632 334.989 53.0512 334.749 52.176C334.509 51.3 334.749 50.4616 335.286 50.3024C335.823 50.1432 336.453 50.724 336.693 51.5992Z" fill="#451F14"/>
<path d="M347.902 51.0983C347.786 52.0007 347.244 52.6703 346.691 52.5943C346.137 52.5175 345.782 51.7239 345.897 50.8215C346.013 49.9191 346.555 49.2495 347.108 49.3255C347.662 49.4023 348.017 50.1959 347.902 51.0983Z" fill="#451F14"/>
<path d="M330.066 52.0055C330.291 52.0351 329.121 49.4543 328.683 47.2719C328.683 47.2719 326.79 49.0327 323.831 46.7815C323.831 46.7815 326.651 51.5503 330.066 52.0055Z" fill="#C16748"/>
<path d="M350.783 50.9254C350.783 50.9254 351.192 48.9614 351.364 46.3758C351.364 46.3758 354.389 45.9774 356.739 42.9238C356.739 42.9238 354.556 49.0678 350.783 50.9254Z" fill="#C16748"/>
<path d="M337.293 48.2367C337.393 48.6799 336.509 49.2751 335.318 49.5663C334.127 49.8575 333.08 49.7343 332.98 49.2911C332.88 48.8479 333.764 48.2527 334.955 47.9615C336.146 47.6703 337.193 47.7935 337.293 48.2367Z" fill="#451F14"/>
<path d="M349.469 48.3351C349.411 48.7863 348.381 49.0167 347.169 48.8487C345.956 48.6815 345.02 48.1799 345.077 47.7287C345.135 47.2775 346.164 47.0471 347.377 47.2151C348.59 47.3823 349.526 47.8839 349.469 48.3351Z" fill="#451F14"/>
<path d="M338.686 57.7814C338.686 57.7814 342.247 60.6446 345.811 56.8774" stroke="#451F14" stroke-miterlimit="10" stroke-linecap="round"/>
<path d="M328.086 48.8079C327.641 48.0439 326.799 46.5223 324.714 44.9167" stroke="#451F14" stroke-miterlimit="10" stroke-linecap="round"/>
<path d="M351.898 47.7488C351.898 47.7488 352.852 43.964 355.11 42.6992" stroke="#451F14" stroke-miterlimit="10" stroke-linecap="round"/>
<path d="M356.007 143.733C354.874 143.688 371.987 153.559 373.15 149.539C374.314 145.518 363.219 144.018 356.007 143.733Z" fill="white"/>
<path d="M347.859 148.552C346.897 147.926 357.019 165.345 359.952 162.459C362.885 159.573 353.979 152.531 347.859 148.552Z" fill="white"/>
<path d="M338.501 148.195C338.335 147.029 332.154 166.339 336.168 166.788C340.182 167.238 339.558 155.621 338.501 148.195Z" fill="white"/>
<path d="M330.548 147.191C331.339 146.346 312.828 152.948 314.919 156.539C317.01 160.131 325.513 152.57 330.548 147.191Z" fill="white"/>
<path d="M325.39 139.681C326.514 139.521 308.015 132.882 307.539 137.051C307.063 141.221 318.239 140.7 325.39 139.681Z" fill="white"/>
<path d="M204.94 333.512C204.94 333.512 204.526 336.952 204.423 339.317C204.32 341.681 200.946 345.766 206.044 350.174C211.142 354.581 211.969 353.614 217.757 358.344C223.545 363.074 225.819 362.45 231.505 361.849C237.189 361.246 236.362 359.204 229.541 350.497C222.719 341.789 218.584 342.327 218.067 334.05C217.551 325.772 204.94 333.512 204.94 333.512Z" fill="#405896"/>
<path d="M157.534 334.033C157.534 334.033 156.587 339.172 154.498 340.831C152.409 342.49 138.659 346.058 134.863 350.785C131.066 355.51 159.586 351.448 165.807 351.614C172.028 351.78 173.775 352.482 173.539 345.744C173.304 339.006 173.539 331.044 173.539 331.044L157.534 334.033Z" fill="#405896"/>
<path d="M187.238 215.239C187.999 215.898 195.885 211.077 195.885 211.077C195.885 211.077 189.392 310.912 200.305 327.412C200.305 327.412 202.291 328.794 204.216 329.226L203.829 334.673H221.125L220.1 329.226C220.1 329.226 224.027 324.796 224.789 311.749C225.55 298.701 219.158 189.468 213.856 174.581C208.555 159.694 187.238 215.239 187.238 215.239Z" fill="#B3B200"/>
<path d="M170.697 166.35C170.697 166.35 165.419 171.533 161.359 195.155C157.298 218.778 155.975 277.967 154.597 287.823C153.219 297.679 148.144 323.81 158.296 329.353L157.534 334.032C157.534 334.032 167.432 338.975 176.061 334.032V327.76C176.061 327.76 183.929 317.993 188.497 277.482C193.066 236.972 194.972 195.767 194.972 195.767L170.697 166.35Z" fill="#B3B200"/>
<path d="M206.943 87.699C206.943 87.699 215.193 160.757 214.362 172.531C213.531 184.305 194.945 188.884 181.534 182.272C168.123 175.661 170.945 115.433 170.945 115.433L206.943 87.699Z" fill="#FEFEFE"/>
<path d="M302.517 227.874C293.216 229.19 284.65 222.415 283.384 212.742C282.119 203.07 288.633 194.161 297.933 192.845L293.967 162.529L292.14 162.787L262.879 166.928C261.613 157.255 253.047 150.481 243.747 151.797C234.446 153.113 227.932 162.022 229.197 171.694L203.83 175.284L213.403 248.454C214.646 257.954 223.059 264.607 232.193 263.315L303.963 253.159L305.791 252.901L302.517 227.874Z" fill="#F26748"/>
<path d="M229.132 250.746C227.526 250.443 225.766 249.089 225.46 246.746L217.528 186.116L242.896 182.526L241.255 169.986C240.896 167.243 242.749 164.708 245.387 164.335C245.899 164.263 246.409 164.273 246.902 164.366C248.617 164.689 250.493 166.133 250.82 168.632L252.461 181.173L283.549 176.774L284.592 184.733C281.706 186.638 279.14 189.083 277.01 191.998C272.294 198.447 270.276 206.419 271.326 214.447C272.881 226.334 280.911 235.98 291.742 239.386L292.092 242.064L230.552 250.772C230.071 250.842 229.593 250.833 229.132 250.746Z" fill="#DD553E"/>
<path d="M169.374 53.6287C169.374 53.6287 166.791 47.2039 171.506 42.7231C176.22 38.2423 179.11 34.2839 184.423 33.2447C189.737 32.2055 198.28 33.6823 195.976 41.3503C195.976 41.3503 206.926 46.1935 202.95 52.8687C202.95 52.8687 210.893 57.5151 205.485 65.1959C200.077 72.8767 211.363 71.3735 209.245 75.5551C207.127 79.7367 202.51 80.6367 199.568 79.2127C196.627 77.7887 191.687 83.1527 188.223 76.9471C184.76 70.7415 185.841 81.2031 175.256 80.8639C164.67 80.5247 169.31 74.3359 169.31 74.3359C169.31 74.3359 159.685 69.3623 163.023 61.2431C166.585 52.5719 167.512 54.5975 169.374 53.6287Z" fill="#F66D4D"/>
<path d="M215.642 192.123C216.061 192.342 220.598 194.82 223.321 194.761C226.043 194.701 225.362 194.289 231.488 194.525C237.613 194.761 239.315 192.46 238.294 194.465C237.273 196.471 235.823 197.709 233.457 198.241C231.091 198.772 228.482 199.007 232.962 200.482C237.443 201.957 238.18 202.488 241.129 203.845C244.078 205.201 246.404 206.676 245.213 207.148C244.022 207.62 241.413 207.148 241.413 207.148C241.413 207.148 243.115 208.505 241.867 208.917C240.619 209.33 238.691 208.917 238.691 208.917L233.927 208.209C233.927 208.209 238.521 209.979 238.521 211.277C238.521 212.574 234.154 211.572 234.154 211.572C234.154 211.572 235.402 213.518 232.168 212.752C228.935 211.985 220.05 206.925 217.432 205.798C214.813 204.671 208.178 200.365 208.178 200.365L215.642 192.123Z" fill="#FFD09C"/>
<path d="M183.04 75.9408L181.32 88.2C181.32 88.2 169.376 91.764 162.07 95.8672C154.763 99.9704 154.319 105.174 154.687 126.508C155.056 147.842 156.224 178.676 167.33 186.814C178.436 194.953 205.47 208.793 216.283 209.846C216.283 209.846 218.913 200.712 218.182 186.814C218.182 186.814 186.034 170.044 182.82 162.286C179.605 154.529 179.897 116.08 179.897 116.08L208.83 113.563L191.661 87.7336L191.4 74.9624L183.04 75.9408Z" fill="#FEFEFE"/>
<path d="M204.834 179.341C203.656 178.639 196.705 175.808 187.817 167.887C178.929 159.965 181.158 153.357 181.158 153.357L209.035 174.546L203.829 175.283L204.834 179.341Z" fill="#DAEDED"/>
<path d="M166.02 93.7487C166.02 93.7487 194.388 105.214 206.943 87.6991L194.357 87.2047L192.611 73.6895L181.625 76.6287L181.461 87.2047L166.02 93.7487Z" fill="#FFD09C"/>
<path d="M174.786 60.6391C174.765 59.6559 173.989 52.3743 180.913 49.2415C187.838 46.1087 194.472 49.8239 196.056 56.9431C197.639 64.0623 195.55 77.0599 190.712 79.3047C185.874 81.5503 175.199 79.9375 174.786 60.6391Z" fill="#FFD09C"/>
<path d="M195.185 63.2766C195.64 62.3662 199.765 55.0758 203.578 58.4326C207.39 61.7894 198.832 71.511 195.673 70.4822C192.515 69.4534 195.185 63.2766 195.185 63.2766Z" fill="#FFD09C"/>
<path d="M176.989 65.428C176.989 65.428 171.123 59.6184 167.406 61.5232C163.689 63.4288 171.779 74.4328 178.004 73.024C184.228 71.6152 176.989 65.428 176.989 65.428Z" fill="#FFD09C"/>
<path d="M181.492 66.3031C182.025 66.3031 182.457 65.5173 182.457 64.5479C182.457 63.5786 182.025 62.7927 181.492 62.7927C180.959 62.7927 180.526 63.5786 180.526 64.5479C180.526 65.5173 180.959 66.3031 181.492 66.3031Z" fill="#451F14"/>
<path d="M189.406 72.7839C189.406 72.7839 187.451 74.1911 184.381 73.0903" stroke="#451F14" stroke-miterlimit="10" stroke-linecap="round"/>
<path d="M168.603 64.5423C168.603 64.5423 172.092 64.0239 173.978 67.1431" stroke="#451F14" stroke-miterlimit="10" stroke-linecap="round"/>
<path d="M197.308 64.944C197.308 64.944 198.445 61.4744 201.973 61.1392" stroke="#451F14" stroke-miterlimit="10" stroke-linecap="round"/>
<path opacity="0.33" d="M182.036 70.9191C182.036 72.2503 180.998 73.3287 179.719 73.3287C178.44 73.3287 177.402 72.2495 177.402 70.9191C177.402 69.5887 178.44 68.5095 179.719 68.5095C180.998 68.5095 182.036 69.5887 182.036 70.9191Z" fill="#F36849"/>
<path opacity="0.33" d="M195.142 69.5312C195.142 70.8624 194.104 71.9408 192.825 71.9408C191.545 71.9408 190.508 70.8616 190.508 69.5312C190.508 68.2 191.545 67.1216 192.825 67.1216C194.104 67.1216 195.142 68.2008 195.142 69.5312Z" fill="#F36849"/>
<path d="M182.066 60.7335C182.149 61.0359 181.693 61.4359 181.048 61.6279C180.403 61.8199 179.813 61.7303 179.73 61.4279C179.646 61.1255 180.102 60.7247 180.747 60.5335C181.393 60.3415 181.983 60.4311 182.066 60.7335Z" fill="#451F14"/>
<path d="M189.939 63.9752C189.939 64.9448 190.372 65.7304 190.905 65.7304C191.438 65.7304 191.87 64.944 191.87 63.9752C191.87 63.0064 191.438 62.22 190.905 62.22C190.372 62.22 189.939 63.0056 189.939 63.9752Z" fill="#451F14"/>
<path d="M190.332 60.1551C190.248 60.4575 190.704 60.8575 191.349 61.0495C191.995 61.2415 192.585 61.1519 192.668 60.8495C192.751 60.5471 192.295 60.1471 191.65 59.9551C191.005 59.7631 190.415 59.8527 190.332 60.1551Z" fill="#451F14"/>
<path d="M174.216 53.459C174.216 53.459 177.864 59.3166 193.542 53.0454C193.542 53.0454 195.682 56.575 196.242 60.6422C196.802 64.7086 198.422 48.827 198.422 48.827C198.422 48.827 189.653 43.4974 188.598 43.8854C187.542 44.2734 180.835 45.591 180.835 45.591C180.835 45.591 177.283 49.1526 176.826 49.6638C176.368 50.175 174.216 53.459 174.216 53.459Z" fill="#F66D4D"/>
<path d="M177.93 53.4927C177.973 54.0327 177.116 64.6191 174.926 63.4391C172.735 62.2591 170.945 54.8847 170.945 54.8847L177.93 53.4927Z" fill="#F66D4D"/>
<path d="M181.596 78.4119C181.596 78.4119 188.806 83.4951 193.056 77.1367L193.374 79.5983C193.374 79.5983 191.629 91.6471 181.533 82.4623L181.596 78.4119Z" fill="#FFB883"/>
<path d="M248.348 203.551C247.854 204.612 263.423 192.283 260.351 189.559C257.278 186.835 251.498 196.797 248.348 203.551Z" fill="white"/>
<path d="M252.105 209.013C251.168 209.678 270.572 207.04 269.21 203.087C267.848 199.134 258.068 204.785 252.105 209.013Z" fill="white"/>
<path d="M252.135 215.245C251.042 214.934 265.559 228.582 267.568 224.94C269.577 221.298 259.098 217.222 252.135 215.245Z" fill="white"/>
<path d="M247.846 218.11C247.42 217.017 245.792 237.299 249.796 236.751C253.798 236.203 250.558 225.066 247.846 218.11Z" fill="white"/>
<path d="M242.267 216.005C242.578 214.87 229.297 229.819 232.777 231.948C236.257 234.077 240.29 223.224 242.267 216.005Z" fill="white"/>
<path d="M297.706 140.323C306.915 138.435 312.909 129.14 311.093 119.562C309.277 109.984 300.34 103.75 291.13 105.638L285.657 76.7632L283.847 77.1344L212.784 91.7056C203.74 93.56 197.853 102.69 199.636 112.096L213.37 184.545L238.489 179.394C236.673 169.817 242.667 160.522 251.877 158.633C261.086 156.744 270.023 162.978 271.839 172.556L300.811 166.615L302.62 166.244L297.706 140.323Z" fill="#556CB2"/>
<path d="M211.575 109.649C211.26 107.985 211.867 106.722 212.256 106.118C212.646 105.514 213.539 104.45 215.138 104.122L276.071 91.6279L281.545 120.503L293.484 118.055C293.992 117.951 294.502 117.93 294.999 117.992C296.73 118.209 298.685 119.534 299.154 122.01C299.491 123.785 298.843 125.132 298.427 125.777C298.011 126.422 297.059 127.557 295.353 127.906L283.414 130.354L288.328 156.277L278.832 158.224C274.177 151.497 266.955 146.897 258.652 145.858C255.614 145.478 252.542 145.598 249.522 146.218C238.004 148.58 229.401 157.736 226.807 168.892L222.955 169.682L211.575 109.649Z" fill="#405896"/>
<path d="M72.411 265.616C72.411 265.616 110.689 279.145 154.499 269.193C154.499 269.193 88.261 242.373 76.2987 247.23C64.3372 252.087 56.2626 255.819 72.411 265.616Z" fill="#CE821D"/>
<path d="M84.8135 249.239C84.8135 249.239 99.0381 306.236 104.646 351.796L124.478 346.242C124.478 346.242 117.736 286.796 118.035 253.518C118.333 220.241 84.8135 249.239 84.8135 249.239Z" fill="#B25A38"/>
<path d="M101.889 344.999C101.736 343.739 100.327 340.075 100.327 340.075C100.327 340.075 97.8406 339.112 100.541 338.635C103.24 338.159 125.87 332.515 125.201 334.173C124.531 335.83 125.639 346.699 125.639 346.699C125.639 346.699 106.797 351.959 106.409 351.719C106.02 351.48 101.889 344.999 101.889 344.999Z" fill="#FFF4F3"/>
<path d="M102.73 347.313C102.73 347.313 101.671 359.564 105.297 366.639C105.297 366.639 133.101 366.095 145.188 349.949C145.188 349.949 137.247 342.867 124.985 344.73L107.111 348.951C107.111 348.951 103.357 344.223 102.73 347.313Z" fill="#421C11"/>
<path d="M91.263 276.746C91.263 276.746 75.3399 313.546 49.3076 327.214C49.3076 327.214 53.3492 341.579 61.9422 343.681C61.9422 343.681 104.053 318.129 117.117 284.632C130.181 251.136 91.263 276.746 91.263 276.746Z" fill="#C56D45"/>
<path d="M47.0464 328.657C47.0464 328.657 52.5348 324.543 56.7202 321.487C56.7202 321.487 57.5218 320.098 59.2133 323.062C60.9056 326.025 65.4748 336.744 70.8925 339.998C70.8925 339.998 72.1248 341.676 69.9879 341.584C67.851 341.491 61.8025 348.945 61.8025 348.945C61.8025 348.945 48.1479 337.493 47.0464 328.657Z" fill="#FFF4F3"/>
<path d="M38.7568 330.43C38.7568 330.43 38.9576 329.627 46.2007 327.599C46.2007 327.599 58.7384 343.15 61.803 348.944C61.803 348.944 63.3299 367.611 56.2515 370.35L38.7568 330.43Z" fill="#421C11"/>
<path d="M53.8158 360.051C53.8158 360.051 59.2951 375.214 53.8158 368.744C52.7443 367.478 37.8428 347.495 37.8428 333.394C37.8428 319.294 53.8158 360.051 53.8158 360.051Z" fill="#77382D"/>
<path d="M46.2007 327.599C46.2007 327.599 48.4584 325.514 50.3491 325.768C52.2399 326.022 48.903 332.03 48.903 332.03L46.2007 327.599Z" fill="#421C11"/>
<path d="M33.4864 213.058C33.4864 213.058 32.8025 214.282 31.9933 217.9C31.1841 221.519 29.3395 230.766 28.0018 230.203C26.6641 229.639 27.4979 223.695 27.4956 222.826C27.4933 221.957 24.701 222.955 23.1318 225.313C21.5625 227.671 20.3733 232.534 18.5318 234.056C16.6902 235.579 17.3987 230.703 17.3987 230.703C17.3987 230.703 15.4056 232.102 15.4048 228.582C15.4048 228.582 13.731 229.043 13.7756 226.174C13.7756 226.174 11.741 226.238 12.9448 223.069C14.1479 219.9 20.5333 210.583 24.1779 207.072C27.8225 203.562 36.811 193.091 36.811 193.091L40.791 202.886L40.2133 207.103C40.2118 207.104 33.8625 212.176 33.4864 213.058Z" fill="#C56D45"/>
<path d="M126.687 105.604C127.966 104.574 138.2 106.537 139.696 117.889C141.191 129.241 137.752 134.994 132.519 134.061L129.827 134.159L130.425 144.48C130.425 144.48 124.743 146.035 118.463 141.37L121.112 133.107C121.626 131.503 120.697 129.83 119.126 129.395C117.236 128.873 115.175 127.55 115.175 124.264C115.175 118.199 123.099 120.687 123.099 120.687C123.099 120.687 120.706 110.425 126.687 105.604Z" fill="#C56D45"/>
<path d="M226.916 127.753C228.362 128.064 230.369 121.263 234.299 123.808C238.23 126.354 226.916 127.753 226.916 127.753Z" fill="#B25B39"/>
<path d="M225.372 128.53C225.372 128.53 226.089 128.176 227.221 127.598C230.193 126.079 236.029 123.015 239.277 120.76C243.762 117.646 242.709 120.445 240.469 123.399C238.23 126.354 238.23 126.354 238.23 126.354C238.23 126.354 241.221 126.82 239.277 129.93C239.277 129.93 241.52 130.552 239.277 133.196C239.277 133.196 241.37 133.196 238.38 136.462C235.389 139.727 234.941 139.447 229.259 140.442C223.578 141.438 218.045 144.703 218.045 144.703L215.504 132.885L225.372 128.53Z" fill="#C56D45"/>
<path d="M108.691 106.964C108.65 107.224 109.366 101.562 119.916 98.0504C130.466 94.5392 139.582 98.1864 133.673 103.409C133.673 103.409 138.867 102.001 138.316 106.964C137.763 111.927 130.213 110.036 130.213 110.036C130.213 110.036 133.083 114.249 128.609 115.127C124.136 116.005 124.136 116.005 124.136 116.005C124.136 116.005 126.499 120.92 123.968 121.447C121.436 121.974 120.507 120.306 116.794 122.413C113.271 124.411 116.066 129.428 121.328 129.705C121.803 129.73 122.158 130.17 122.091 130.658C121.806 132.742 120.913 137.529 118.736 137.598C115.95 137.686 117.132 134.614 117.132 134.614C117.132 134.614 108.269 134.877 106.582 119.604C106.582 119.604 103.628 122.062 99.4926 119.692C95.3572 117.322 97.4672 111.705 97.4672 111.705C97.4672 111.705 94.5133 113.987 95.3572 111.617C96.201 109.247 97.5518 108.983 97.5518 108.983C97.5518 108.983 94.1756 106.877 98.3956 102.926C102.614 98.9768 109.703 100.469 108.691 106.964Z" fill="#451F14"/>
<path d="M134.718 118.199C134.718 119.169 134.286 119.954 133.752 119.954C133.219 119.954 132.787 119.169 132.787 118.199C132.787 117.23 133.219 116.444 133.752 116.444C134.286 116.444 134.718 117.23 134.718 118.199Z" fill="#451F14"/>
<path d="M137.809 125.836C137.809 125.836 135.699 126.977 132.787 125.485" stroke="#451F14" stroke-miterlimit="10" stroke-linecap="round"/>
<path d="M117.046 125.046C117.046 125.046 119.663 122.764 122.11 125.485" stroke="#451F14" stroke-miterlimit="10" stroke-linecap="round"/>
<path d="M130.426 123.532C130.426 125.034 129.254 126.253 127.81 126.253C126.365 126.253 125.193 125.034 125.193 123.532C125.193 122.03 126.365 120.811 127.81 120.811C129.254 120.811 130.426 122.03 130.426 123.532Z" fill="#F36849"/>
<path d="M106.58 119.604C106.58 119.604 108.875 109.996 108.69 106.964C108.505 103.932 110.069 104.346 109.785 106.964C109.5 109.582 109.169 117.578 106.58 119.604Z" fill="#F4B148"/>
<path d="M134.326 114.38C134.409 114.682 133.954 115.082 133.309 115.274C132.663 115.466 132.073 115.377 131.99 115.074C131.907 114.772 132.363 114.371 133.008 114.18C133.653 113.988 134.243 114.078 134.326 114.38Z" fill="#451F14"/>
<path d="M85.4048 288.148L91.8286 246.642L129.662 254.158C129.662 254.158 118.915 289.329 109.488 299.431C100.061 309.534 85.4048 288.148 85.4048 288.148Z" fill="#C56D45"/>
<path d="M113.828 141.058C113.828 141.058 114.875 136.082 120.408 138.415C125.94 140.748 130.513 138.26 132.787 141.058C135.061 143.858 134.462 143.889 139.397 144.728C144.332 145.568 210.718 130.874 216.251 129.786C216.251 129.786 217.197 139.97 219.141 147.59C219.141 147.59 171.693 175.269 142.238 179.157C142.238 179.157 153.9 233.894 154.498 269.193C154.498 269.193 123.846 272.77 96.3346 262.195C68.8223 251.621 53.7208 253.798 72.4115 265.616C72.4115 265.616 58.6554 262.817 60.7492 253.331C62.8423 243.846 95.2046 178.379 95.2046 178.379C95.2046 178.379 60.7492 187.243 33.6861 218.654C33.6861 218.654 29.7985 219.432 17.8369 213.367C17.8354 213.367 54.9169 140.747 113.828 141.058Z" fill="#FFD950"/>
<path d="M95.204 178.379L103.512 161.274C103.512 161.274 61.6455 173.714 33.6855 218.654C33.6855 218.654 63.3586 188.331 95.204 178.379Z" fill="#E29B3D"/>
<path d="M142.238 179.157L140.048 165.628C140.048 165.628 156.26 172.056 200.311 157.334C200.311 157.334 171.095 175.58 142.238 179.157Z" fill="#E29B3D"/>
<path d="M113.829 141.058C113.829 141.058 121.454 144.23 130.426 144.479C130.426 144.479 122.352 146.034 107.699 141.058H113.829Z" fill="#E29B3D"/>
<path d="M244.132 111.41C244.676 112.445 244.039 92.1032 240.123 93.1288C236.209 94.1544 240.665 104.827 244.132 111.41Z" fill="white"/>
<path d="M250.589 111.394C250.567 112.573 259.746 94.5977 255.859 93.4617C251.972 92.3249 250.732 103.889 250.589 111.394Z" fill="white"/>
<path d="M255.489 114.978C254.612 115.726 273.719 111.33 272.03 107.518C270.341 103.705 261.073 110.223 255.489 114.978Z" fill="white"/>
<path d="M255.249 120.274C254.145 120.002 269.095 133.136 270.985 129.426C272.876 125.715 262.271 122.007 255.249 120.274Z" fill="white"/>
<path d="M250.366 123.782C249.657 122.862 253.675 142.781 257.359 141.066C261.044 139.35 254.877 129.642 250.366 123.782Z" fill="white"/>
<path d="M362.919 386.639C420.658 386.639 467.465 380.494 467.465 372.913C467.465 365.332 420.658 359.187 362.919 359.187C305.179 359.187 258.373 365.332 258.373 372.913C258.373 380.494 305.179 386.639 362.919 386.639Z" fill="#83CACC"/>
<path d="M374.495 352.73C374.495 352.73 375.42 363.795 373.748 364.863C372.077 365.93 328.999 365.595 328.999 365.595L374.495 352.73Z" fill="#FFF4F3"/>
<path opacity="0.38" d="M373.748 364.863C374.362 364.471 374.625 362.733 374.713 360.691H374.712C366.468 361.951 341.822 362.507 341.501 362.485L341.697 362.005L329 365.595C329 365.595 372.077 365.93 373.748 364.863Z" fill="#556CB2"/>
<path d="M428.775 320.116C427.437 316.859 404.06 285.736 379.04 273.07C354.02 260.403 346.298 305.93 346.948 326.956C347.597 347.982 428.775 320.116 428.775 320.116Z" fill="#35529B"/>
<path d="M282.996 366.573C279.253 355.176 271.757 336.429 264.017 336.623C264.017 336.623 262.114 337.125 263.632 342.868C264.93 347.776 276.456 373.715 282.767 376.083C286.06 376.568 283.558 368.313 282.996 366.573Z" fill="#556CB2"/>
<path d="M419.69 316.672C419.69 316.672 382.683 315.71 361.784 321.815C340.886 327.919 307.685 344.4 295.327 348.3C291.626 349.468 289.89 350.605 289.261 351.626L294.004 351.758C294.004 351.758 305.96 352.677 306.922 368.286C306.586 369.391 305.957 370.217 304.897 370.532L304.894 370.533C304.894 370.533 305.827 373.259 308.145 372.316L357.837 360.272C371.486 357.326 381.45 354.648 381.45 354.648C381.45 354.648 435.385 373.018 445.569 372.36C455.752 371.702 468.744 341.191 468.744 341.191C445.928 313.369 419.69 316.672 419.69 316.672Z" fill="#556CB2"/>
<path d="M294.003 351.758L289.261 351.626L288.066 351.593C281.729 339.546 274.825 336.352 270.236 335.269C265.647 334.185 264.015 336.623 264.015 336.623C271.755 336.429 279.251 355.175 282.995 366.573C283.557 368.313 286.059 376.568 282.766 376.083C282.766 376.083 285.081 377.677 292.947 373.933C292.949 373.932 292.95 373.931 292.951 373.931C296.561 373.004 300.947 371.727 304.895 370.533C305.956 370.217 306.584 369.392 306.921 368.287C305.959 352.677 294.003 351.758 294.003 351.758Z" fill="#FFF4F3"/>
<path opacity="0.38" d="M276.816 345.621C278.798 339.673 274.344 336.715 274.343 336.714C272.846 335.999 271.459 335.557 270.236 335.269C265.647 334.186 264.016 336.624 264.016 336.624C271.756 336.43 279.252 355.176 282.996 366.574C283.558 368.314 286.059 376.569 282.766 376.084C282.766 376.084 283.527 376.6 285.639 376.349C285.649 376.326 285.66 376.306 285.669 376.283C289.812 366.004 276.816 345.621 276.816 345.621Z" fill="#556CB2"/>
<path d="M292.239 356.165C292.19 356.955 291.535 357.554 290.776 357.504C290.016 357.454 289.44 356.772 289.488 355.982C289.537 355.192 290.192 354.593 290.952 354.643C291.711 354.693 292.287 355.374 292.239 356.165Z" fill="#556CB2"/>
<path d="M287.077 353.421C287.029 354.211 286.374 354.81 285.614 354.76C284.854 354.71 284.278 354.028 284.327 353.238C284.375 352.447 285.03 351.848 285.79 351.898C286.55 351.949 287.126 352.63 287.077 353.421Z" fill="#556CB2"/>
<path d="M297.376 356.506C297.328 357.297 296.672 357.896 295.912 357.846C295.153 357.795 294.576 357.114 294.624 356.323C294.673 355.533 295.328 354.934 296.088 354.984C296.848 355.035 297.425 355.717 297.376 356.506Z" fill="#556CB2"/>
<path d="M439.168 251.85C436.632 251.145 416.416 252.646 396.724 228.849C377.034 205.052 369.179 194.333 369.179 194.333L360.665 206.914C360.665 206.914 379.01 248.382 396.671 263.242C414.333 278.102 439.168 251.85 439.168 251.85Z" fill="#D34F39"/>
<path d="M381.437 146.318L358.276 155.756C361.7 164.846 357.391 175.101 348.651 178.662C339.911 182.224 330.05 177.742 326.626 168.653L298.456 180.132L309.188 208.619C300.448 212.181 296.14 222.436 299.563 231.526C302.988 240.615 312.849 245.096 321.589 241.535L330.448 265.051L397.887 237.57C406.471 234.073 410.703 224.001 407.34 215.074L381.437 146.318Z" fill="#B3B200"/>
<path d="M328.48 225.134L317.149 229.751C316.763 229.909 316.367 230.014 315.969 230.066C313.787 230.346 311.7 229.047 310.894 226.909C309.923 224.331 311.15 221.412 313.627 220.402L324.957 215.785L314.225 187.298L322.205 184.046C328.387 190.246 337.067 193.462 346.016 192.312C348.431 192.001 350.811 191.374 353.09 190.445C364.023 185.99 370.922 175.39 371.567 163.931L374.546 162.718L396.01 219.689C396.92 222.104 395.77 224.839 393.448 225.785L337.34 248.649L328.48 225.134Z" fill="#999502"/>
<path d="M443.244 238.239L443.354 241.154C443.354 241.154 449.133 240.843 450.371 237.504C451.608 234.166 443.244 238.239 443.244 238.239Z" fill="#9E4B23"/>
<path d="M443.902 215.017C443.902 215.017 436.747 210.631 429.587 218.878C422.427 227.126 418.987 236.022 424.36 239.588C429.733 243.154 429.733 243.154 429.733 243.154L434.405 258.106L448.58 247.117L443.354 241.154L443.244 238.238C443.244 238.238 451.518 240.093 453.331 235.701C455.144 231.309 449.338 228.516 444.596 228.802C444.596 228.802 452.774 222.826 443.902 215.017Z" fill="#FEB28E"/>
<path d="M366.139 225.984C365.316 225.347 364.58 224.604 363.953 223.759C362.968 222.433 361.136 220.055 359.9 215.806C358.193 209.932 356.678 208.396 356.616 211.899C356.553 215.402 357.123 217.35 355.66 216.218C354.197 215.085 350.419 211.726 348.642 210.73C346.864 209.735 345.493 210.84 348.742 214.084C351.99 217.329 349.501 216.683 347.266 215.658C345.029 214.634 341.135 213.177 342.229 215.323L343.943 217.351C343.943 217.351 342.59 216.942 341.898 216.976C341.206 217.01 342.437 219.402 344.486 220.974C346.536 222.545 348.397 224.661 346.361 224.127C344.325 223.593 342.006 222.666 342.999 223.955C343.993 225.245 349.427 227.838 351.196 228.992C352.964 230.146 355.938 231.619 360.005 236.512C364.072 241.405 370.667 232.599 370.551 230.758C370.474 229.531 367.868 227.322 366.139 225.984Z" fill="#FEB28E"/>
<path d="M453.348 232.619C453.348 232.619 456.856 229.471 454.308 223.857C454.308 223.857 457.284 218.228 455.866 214.312C454.448 210.397 452.711 214.73 452.711 214.73C452.711 214.73 450.764 203.082 444.437 201.419C438.111 199.756 438.14 206.735 438.14 206.735C438.14 206.735 431.426 203.897 430.366 209.176C429.306 214.455 431.41 217.042 431.41 217.042C431.41 217.042 436.099 213.037 441.497 214.857C446.897 216.677 447.441 225.986 444.596 228.802C441.752 231.618 451.046 228.452 453.348 232.619Z" fill="#9E4B23"/>
<path d="M447.66 243.83C447.66 243.83 440.077 245.471 429.388 251.468C418.699 257.464 397.188 250.666 397.188 250.666C397.188 250.666 376.804 232.47 365.839 222.719C365.839 222.719 364.417 233.65 356.129 234.344C356.129 234.344 368.42 252.776 386.672 270.626C404.923 288.477 418.284 290.171 418.284 290.171L414.85 302.363C414.85 302.363 421.857 315.48 423.61 316.545C425.857 317.909 453.001 341.047 468.54 344.497C468.54 344.497 484.952 272.345 447.66 243.83Z" fill="#F26748"/>
<path d="M432.183 223.415C431.646 224.254 431.594 225.198 432.067 225.526C432.54 225.853 433.359 225.439 433.895 224.602C434.432 223.763 434.483 222.818 434.01 222.491C433.537 222.163 432.719 222.577 432.183 223.415Z" fill="#451F14"/>
<path d="M424.5 229.443C424.5 229.443 426.201 231.664 429.924 231.511" stroke="#451F14" stroke-miterlimit="10" stroke-linecap="round"/>
<path d="M451.091 234.445C451.091 234.445 448.254 231.63 445.258 234.561" stroke="#451F14" stroke-miterlimit="10" stroke-linecap="round"/>
<path d="M433.402 230.706C432.728 232.282 433.41 234.129 434.926 234.83C436.441 235.53 438.216 234.821 438.89 233.245C439.564 231.668 438.882 229.822 437.366 229.122C435.851 228.42 434.076 229.13 433.402 230.706Z" fill="#F36849"/>
<path d="M437.923 221.704C437.48 222.142 436.51 221.828 435.756 221.002C435.001 220.178 434.749 219.154 435.191 218.715C435.634 218.278 436.604 218.591 437.359 219.417C438.113 220.242 438.366 221.266 437.923 221.704Z" fill="#9E4B23"/>
<path d="M445.226 283.378C434.132 291.762 418.284 290.171 418.284 290.171L414.851 302.363C421.784 316.556 423.611 316.545 423.611 316.545C438.498 318.01 450.111 324.813 451.348 325.559C431.709 314.058 445.226 283.378 445.226 283.378Z" fill="#D34F39"/>
<path d="M451.349 325.559C451.389 325.583 451.426 325.607 451.465 325.631C451.465 325.631 451.422 325.603 451.349 325.559Z" fill="#D34F39"/>
<path d="M335.785 210.621C336.509 209.713 318.563 217.829 320.923 221.236C323.282 224.642 331.178 216.4 335.785 210.621Z" fill="white"/>
<path d="M333.388 204.385C334.45 203.972 315 201.726 315.417 205.902C315.834 210.079 326.628 207.014 333.388 204.385Z" fill="white"/>
<path d="M334.786 198.326C335.777 198.899 324.804 182.047 322.019 185.086C319.233 188.125 328.477 194.681 334.786 198.326Z" fill="white"/>
<path d="M339.608 196.606C339.771 197.773 345.999 178.478 341.986 178.018C337.973 177.559 338.569 189.178 339.608 196.606Z" fill="white"/>
<path d="M344.544 200.033C343.982 201.057 360.305 189.83 357.413 186.901C354.522 183.97 348.118 193.512 344.544 200.033Z" fill="white"/>
</g>
<defs>
<linearGradient id="paint0_linear_63_2" x1="286.554" y1="91.1713" x2="199.656" y2="329.049" gradientUnits="userSpaceOnUse">
<stop stop-color="white"/>
<stop offset="0.148" stop-color="#EEF8F9"/>
<stop offset="0.5174" stop-color="#C8E9EC"/>
<stop offset="0.8145" stop-color="#B1E0E4"/>
<stop offset="1" stop-color="#A8DDE1"/>
</linearGradient>
<linearGradient id="paint1_linear_63_2" x1="441.628" y1="58.3914" x2="419.507" y2="118.946" gradientUnits="userSpaceOnUse">
<stop stop-color="white"/>
<stop offset="0.148" stop-color="#EEF8F9"/>
<stop offset="0.5174" stop-color="#C8E9EC"/>
<stop offset="0.8145" stop-color="#B1E0E4"/>
<stop offset="1" stop-color="#A8DDE1"/>
</linearGradient>
<linearGradient id="paint2_linear_63_2" x1="387.953" y1="25.6525" x2="379.582" y2="48.567" gradientUnits="userSpaceOnUse">
<stop stop-color="white"/>
<stop offset="0.148" stop-color="#EEF8F9"/>
<stop offset="0.5174" stop-color="#C8E9EC"/>
<stop offset="0.8145" stop-color="#B1E0E4"/>
<stop offset="1" stop-color="#A8DDE1"/>
</linearGradient>
<linearGradient id="paint3_linear_63_2" x1="46.14" y1="87.6259" x2="53.3541" y2="106.077" gradientUnits="userSpaceOnUse">
<stop stop-color="white"/>
<stop offset="0.148" stop-color="#EEF8F9"/>
<stop offset="0.5174" stop-color="#C8E9EC"/>
<stop offset="0.8145" stop-color="#B1E0E4"/>
<stop offset="1" stop-color="#A8DDE1"/>
</linearGradient>
<clipPath id="clip0_63_2">
<rect width="500" height="400" fill="white"/>
</clipPath>
</defs>
</svg>
